%TF.GenerationSoftware,KiCad,Pcbnew,(6.0.2)*%
%TF.CreationDate,2023-02-05T14:58:07+00:00*%
%TF.ProjectId,STM32Board,53544d33-3242-46f6-9172-642e6b696361,rev?*%
%TF.SameCoordinates,Original*%
%TF.FileFunction,Copper,L1,Top*%
%TF.FilePolarity,Positive*%
%FSLAX46Y46*%
G04 Gerber Fmt 4.6, Leading zero omitted, Abs format (unit mm)*
G04 Created by KiCad (PCBNEW (6.0.2)) date 2023-02-05 14:58:07*
%MOMM*%
%LPD*%
G01*
G04 APERTURE LIST*
G04 Aperture macros list*
%AMRoundRect*
0 Rectangle with rounded corners*
0 $1 Rounding radius*
0 $2 $3 $4 $5 $6 $7 $8 $9 X,Y pos of 4 corners*
0 Add a 4 corners polygon primitive as box body*
4,1,4,$2,$3,$4,$5,$6,$7,$8,$9,$2,$3,0*
0 Add four circle primitives for the rounded corners*
1,1,$1+$1,$2,$3*
1,1,$1+$1,$4,$5*
1,1,$1+$1,$6,$7*
1,1,$1+$1,$8,$9*
0 Add four rect primitives between the rounded corners*
20,1,$1+$1,$2,$3,$4,$5,0*
20,1,$1+$1,$4,$5,$6,$7,0*
20,1,$1+$1,$6,$7,$8,$9,0*
20,1,$1+$1,$8,$9,$2,$3,0*%
G04 Aperture macros list end*
%TA.AperFunction,SMDPad,CuDef*%
%ADD10R,1.500000X2.000000*%
%TD*%
%TA.AperFunction,SMDPad,CuDef*%
%ADD11R,3.800000X2.000000*%
%TD*%
%TA.AperFunction,ComponentPad*%
%ADD12O,1.000000X2.000000*%
%TD*%
%TA.AperFunction,ComponentPad*%
%ADD13O,1.050000X2.100000*%
%TD*%
%TA.AperFunction,SMDPad,CuDef*%
%ADD14R,0.600000X1.150000*%
%TD*%
%TA.AperFunction,SMDPad,CuDef*%
%ADD15R,0.300000X1.150000*%
%TD*%
%TA.AperFunction,SMDPad,CuDef*%
%ADD16RoundRect,0.200000X0.200000X0.275000X-0.200000X0.275000X-0.200000X-0.275000X0.200000X-0.275000X0*%
%TD*%
%TA.AperFunction,ComponentPad*%
%ADD17C,1.500000*%
%TD*%
%TA.AperFunction,SMDPad,CuDef*%
%ADD18RoundRect,0.225000X-0.250000X0.225000X-0.250000X-0.225000X0.250000X-0.225000X0.250000X0.225000X0*%
%TD*%
%TA.AperFunction,SMDPad,CuDef*%
%ADD19RoundRect,0.200000X-0.200000X-0.800000X0.200000X-0.800000X0.200000X0.800000X-0.200000X0.800000X0*%
%TD*%
%TA.AperFunction,SMDPad,CuDef*%
%ADD20RoundRect,0.225000X-0.225000X-0.250000X0.225000X-0.250000X0.225000X0.250000X-0.225000X0.250000X0*%
%TD*%
%TA.AperFunction,SMDPad,CuDef*%
%ADD21RoundRect,0.225000X0.250000X-0.225000X0.250000X0.225000X-0.250000X0.225000X-0.250000X-0.225000X0*%
%TD*%
%TA.AperFunction,SMDPad,CuDef*%
%ADD22RoundRect,0.200000X-0.275000X0.200000X-0.275000X-0.200000X0.275000X-0.200000X0.275000X0.200000X0*%
%TD*%
%TA.AperFunction,SMDPad,CuDef*%
%ADD23RoundRect,0.250000X-0.450000X0.325000X-0.450000X-0.325000X0.450000X-0.325000X0.450000X0.325000X0*%
%TD*%
%TA.AperFunction,SMDPad,CuDef*%
%ADD24RoundRect,0.225000X0.225000X0.250000X-0.225000X0.250000X-0.225000X-0.250000X0.225000X-0.250000X0*%
%TD*%
%TA.AperFunction,ComponentPad*%
%ADD25R,1.700000X1.700000*%
%TD*%
%TA.AperFunction,ComponentPad*%
%ADD26O,1.700000X1.700000*%
%TD*%
%TA.AperFunction,SMDPad,CuDef*%
%ADD27RoundRect,0.250000X-0.425000X0.450000X-0.425000X-0.450000X0.425000X-0.450000X0.425000X0.450000X0*%
%TD*%
%TA.AperFunction,ComponentPad*%
%ADD28R,1.500000X2.500000*%
%TD*%
%TA.AperFunction,ComponentPad*%
%ADD29O,1.500000X2.500000*%
%TD*%
%TA.AperFunction,ComponentPad*%
%ADD30O,2.200000X3.500000*%
%TD*%
%TA.AperFunction,SMDPad,CuDef*%
%ADD31RoundRect,0.075000X-0.075000X0.662500X-0.075000X-0.662500X0.075000X-0.662500X0.075000X0.662500X0*%
%TD*%
%TA.AperFunction,SMDPad,CuDef*%
%ADD32RoundRect,0.075000X-0.662500X0.075000X-0.662500X-0.075000X0.662500X-0.075000X0.662500X0.075000X0*%
%TD*%
%TA.AperFunction,SMDPad,CuDef*%
%ADD33RoundRect,0.200000X-0.200000X-0.275000X0.200000X-0.275000X0.200000X0.275000X-0.200000X0.275000X0*%
%TD*%
%TA.AperFunction,Conductor*%
%ADD34C,0.500000*%
%TD*%
%TA.AperFunction,Conductor*%
%ADD35C,0.250000*%
%TD*%
%TA.AperFunction,Conductor*%
%ADD36C,0.200000*%
%TD*%
G04 APERTURE END LIST*
D10*
%TO.P,U2,1,GND*%
%TO.N,GND*%
X117800000Y-114150000D03*
%TO.P,U2,2,VO*%
%TO.N,+3V3*%
X120100000Y-114150000D03*
%TO.P,U2,3,VI*%
%TO.N,+5V*%
X122400000Y-114150000D03*
D11*
%TO.P,U2,4*%
%TO.N,N/C*%
X120100000Y-107850000D03*
%TD*%
D12*
%TO.P,J9,S2,SHELL_GND*%
%TO.N,GND*%
X115980000Y-129965000D03*
%TO.P,J9,S3,SHELL_GND*%
X124620000Y-129965000D03*
D13*
%TO.P,J9,S1,SHELL_GND*%
X115980000Y-125785000D03*
%TO.P,J9,S4,SHELL_GND*%
X124620000Y-125785000D03*
D14*
%TO.P,J9,A1_B12,GND*%
X117100000Y-125210000D03*
%TO.P,J9,B1_A12,GND*%
X123500000Y-125210000D03*
%TO.P,J9,A4_B9,VBUS*%
%TO.N,/VBUS*%
X117900000Y-125210000D03*
%TO.P,J9,B4_A9,VBUS*%
X122700000Y-125210000D03*
D15*
%TO.P,J9,A7,DN1*%
%TO.N,unconnected-(J9-PadA7)*%
X120550000Y-125210000D03*
%TO.P,J9,A6,DP1*%
%TO.N,unconnected-(J9-PadA6)*%
X120050000Y-125210000D03*
%TO.P,J9,B6,DP2*%
%TO.N,unconnected-(J9-PadB6)*%
X121050000Y-125210000D03*
%TO.P,J9,A8,SBU1*%
%TO.N,unconnected-(J9-PadA8)*%
X121550000Y-125210000D03*
%TO.P,J9,B5,CC2*%
%TO.N,unconnected-(J9-PadB5)*%
X122050000Y-125210000D03*
%TO.P,J9,B7,DN2*%
%TO.N,unconnected-(J9-PadB7)*%
X119550000Y-125210000D03*
%TO.P,J9,A5,CC1*%
%TO.N,unconnected-(J9-PadA5)*%
X119050000Y-125210000D03*
%TO.P,J9,B8,SBU2*%
%TO.N,unconnected-(J9-PadB8)*%
X118550000Y-125210000D03*
%TD*%
D12*
%TO.P,J8,S2,SHELL_GND*%
%TO.N,GND*%
X101017500Y-129965000D03*
%TO.P,J8,S3,SHELL_GND*%
X109657500Y-129965000D03*
D13*
%TO.P,J8,S1,SHELL_GND*%
X101017500Y-125785000D03*
%TO.P,J8,S4,SHELL_GND*%
X109657500Y-125785000D03*
D14*
%TO.P,J8,A1_B12,GND*%
X102137500Y-125210000D03*
%TO.P,J8,B1_A12,GND*%
X108537500Y-125210000D03*
%TO.P,J8,A4_B9,VBUS*%
%TO.N,unconnected-(J8-PadA4_B9)*%
X102937500Y-125210000D03*
%TO.P,J8,B4_A9,VBUS*%
%TO.N,unconnected-(J8-PadB4_A9)*%
X107737500Y-125210000D03*
D15*
%TO.P,J8,A7,DN1*%
%TO.N,D-*%
X105587500Y-125210000D03*
%TO.P,J8,A6,DP1*%
%TO.N,D+*%
X105087500Y-125210000D03*
%TO.P,J8,B6,DP2*%
X106087500Y-125210000D03*
%TO.P,J8,A8,SBU1*%
%TO.N,unconnected-(J8-PadA8)*%
X106587500Y-125210000D03*
%TO.P,J8,B5,CC2*%
%TO.N,unconnected-(J8-PadB5)*%
X107087500Y-125210000D03*
%TO.P,J8,B7,DN2*%
%TO.N,D-*%
X104587500Y-125210000D03*
%TO.P,J8,A5,CC1*%
%TO.N,unconnected-(J8-PadA5)*%
X104087500Y-125210000D03*
%TO.P,J8,B8,SBU2*%
%TO.N,unconnected-(J8-PadB8)*%
X103587500Y-125210000D03*
%TD*%
D16*
%TO.P,R1,1*%
%TO.N,Net-(C1-Pad1)*%
X101525000Y-101800000D03*
%TO.P,R1,2*%
%TO.N,+3V3*%
X99875000Y-101800000D03*
%TD*%
D17*
%TO.P,Y1,1,1*%
%TO.N,/PD1*%
X111550000Y-101000000D03*
%TO.P,Y1,2,2*%
%TO.N,/PD0*%
X116430000Y-101000000D03*
%TD*%
D18*
%TO.P,C2,1*%
%TO.N,GND*%
X114500000Y-105225000D03*
%TO.P,C2,2*%
%TO.N,+3V3*%
X114500000Y-106775000D03*
%TD*%
D19*
%TO.P,SW1,1,1*%
%TO.N,Net-(C1-Pad1)*%
X100200000Y-98900000D03*
%TO.P,SW1,2,2*%
%TO.N,GND*%
X104400000Y-98900000D03*
%TD*%
D20*
%TO.P,C1,1*%
%TO.N,Net-(C1-Pad1)*%
X103025000Y-101800000D03*
%TO.P,C1,2*%
%TO.N,GND*%
X104575000Y-101800000D03*
%TD*%
D18*
%TO.P,C9,1*%
%TO.N,+5V*%
X119000000Y-118650000D03*
%TO.P,C9,2*%
%TO.N,GND*%
X119000000Y-120200000D03*
%TD*%
D21*
%TO.P,C4,1*%
%TO.N,GND*%
X104700000Y-117175000D03*
%TO.P,C4,2*%
%TO.N,+3V3*%
X104700000Y-115625000D03*
%TD*%
D20*
%TO.P,C3,1*%
%TO.N,GND*%
X104425000Y-106300000D03*
%TO.P,C3,2*%
%TO.N,+3V3*%
X105975000Y-106300000D03*
%TD*%
D22*
%TO.P,R5,1*%
%TO.N,/USBD-*%
X110100000Y-118600000D03*
%TO.P,R5,2*%
%TO.N,D-*%
X110100000Y-120250000D03*
%TD*%
D23*
%TO.P,D1,1,K*%
%TO.N,GND*%
X101200000Y-115275000D03*
%TO.P,D1,2,A*%
%TO.N,Net-(D1-Pad2)*%
X101200000Y-117325000D03*
%TD*%
D21*
%TO.P,C5,1*%
%TO.N,GND*%
X115056000Y-120200000D03*
%TO.P,C5,2*%
%TO.N,+3V3*%
X115056000Y-118650000D03*
%TD*%
D24*
%TO.P,C7,1*%
%TO.N,GND*%
X117775000Y-97000000D03*
%TO.P,C7,2*%
%TO.N,/PD0*%
X116225000Y-97000000D03*
%TD*%
D25*
%TO.P,J1,1,Pin_1*%
%TO.N,/PWM2*%
X129000000Y-97475000D03*
D26*
%TO.P,J1,2,Pin_2*%
%TO.N,+5V*%
X129000000Y-100015000D03*
%TO.P,J1,3,Pin_3*%
%TO.N,GND*%
X129000000Y-102555000D03*
%TD*%
D27*
%TO.P,C6,1*%
%TO.N,+3V3*%
X117000000Y-118250000D03*
%TO.P,C6,2*%
%TO.N,GND*%
X117000000Y-120950000D03*
%TD*%
D22*
%TO.P,R6,1*%
%TO.N,/USBD+*%
X111752000Y-118600000D03*
%TO.P,R6,2*%
%TO.N,D+*%
X111752000Y-120250000D03*
%TD*%
%TO.P,R3,1*%
%TO.N,Net-(R3-Pad1)*%
X103100000Y-115575000D03*
%TO.P,R3,2*%
%TO.N,Net-(D1-Pad2)*%
X103100000Y-117225000D03*
%TD*%
D25*
%TO.P,J4,1,Pin_1*%
%TO.N,Net-(J4-Pad1)*%
X129000000Y-107600000D03*
D26*
%TO.P,J4,2,Pin_2*%
%TO.N,Net-(J4-Pad2)*%
X129000000Y-110140000D03*
%TO.P,J4,3,Pin_3*%
%TO.N,GND*%
X129000000Y-112680000D03*
%TO.P,J4,4,Pin_4*%
%TO.N,+3V3*%
X129000000Y-115220000D03*
%TD*%
D25*
%TO.P,J2,1,Pin_1*%
%TO.N,/PWM1*%
X124000000Y-97475000D03*
D26*
%TO.P,J2,2,Pin_2*%
%TO.N,+5V*%
X124000000Y-100015000D03*
%TO.P,J2,3,Pin_3*%
%TO.N,GND*%
X124000000Y-102555000D03*
%TD*%
D25*
%TO.P,J7,1,Pin_1*%
%TO.N,+3V3*%
X97000000Y-99200000D03*
D26*
%TO.P,J7,2,Pin_2*%
%TO.N,GND*%
X97000000Y-101740000D03*
%TD*%
D28*
%TO.P,SW2,1,A*%
%TO.N,/VBUS*%
X123400000Y-119600000D03*
D29*
%TO.P,SW2,2,B*%
%TO.N,+5V*%
X125400000Y-119600000D03*
%TO.P,SW2,3,C*%
%TO.N,unconnected-(SW2-Pad3)*%
X127400000Y-119600000D03*
D30*
%TO.P,SW2,4,SH1*%
%TO.N,GND*%
X121300000Y-119600000D03*
%TO.P,SW2,5,SH1*%
X129500000Y-119600000D03*
%TD*%
D31*
%TO.P,U1,1,VBAT*%
%TO.N,unconnected-(U1-Pad1)*%
X112750000Y-106837500D03*
%TO.P,U1,2,PC13*%
%TO.N,unconnected-(U1-Pad2)*%
X112250000Y-106837500D03*
%TO.P,U1,3,PC14*%
%TO.N,unconnected-(U1-Pad3)*%
X111750000Y-106837500D03*
%TO.P,U1,4,PC15*%
%TO.N,unconnected-(U1-Pad4)*%
X111250000Y-106837500D03*
%TO.P,U1,5,PD0*%
%TO.N,/PD0*%
X110750000Y-106837500D03*
%TO.P,U1,6,PD1*%
%TO.N,/PD1*%
X110250000Y-106837500D03*
%TO.P,U1,7,NRST*%
%TO.N,Net-(C1-Pad1)*%
X109750000Y-106837500D03*
%TO.P,U1,8,VSSA*%
%TO.N,GND*%
X109250000Y-106837500D03*
%TO.P,U1,9,VDDA*%
%TO.N,+3V3*%
X108750000Y-106837500D03*
%TO.P,U1,10,PA0*%
%TO.N,unconnected-(U1-Pad10)*%
X108250000Y-106837500D03*
%TO.P,U1,11,PA1*%
%TO.N,unconnected-(U1-Pad11)*%
X107750000Y-106837500D03*
%TO.P,U1,12,PA2*%
%TO.N,unconnected-(U1-Pad12)*%
X107250000Y-106837500D03*
D32*
%TO.P,U1,13,PA3*%
%TO.N,unconnected-(U1-Pad13)*%
X105837500Y-108250000D03*
%TO.P,U1,14,PA4*%
%TO.N,unconnected-(U1-Pad14)*%
X105837500Y-108750000D03*
%TO.P,U1,15,PA5*%
%TO.N,unconnected-(U1-Pad15)*%
X105837500Y-109250000D03*
%TO.P,U1,16,PA6*%
%TO.N,unconnected-(U1-Pad16)*%
X105837500Y-109750000D03*
%TO.P,U1,17,PA7*%
%TO.N,unconnected-(U1-Pad17)*%
X105837500Y-110250000D03*
%TO.P,U1,18,PB0*%
%TO.N,/IN1*%
X105837500Y-110750000D03*
%TO.P,U1,19,PB1*%
%TO.N,/IN2*%
X105837500Y-111250000D03*
%TO.P,U1,20,PB2*%
%TO.N,/IN3*%
X105837500Y-111750000D03*
%TO.P,U1,21,PB10*%
%TO.N,/IN4*%
X105837500Y-112250000D03*
%TO.P,U1,22,PB11*%
%TO.N,Net-(R3-Pad1)*%
X105837500Y-112750000D03*
%TO.P,U1,23,VSS*%
%TO.N,GND*%
X105837500Y-113250000D03*
%TO.P,U1,24,VDD*%
%TO.N,+3V3*%
X105837500Y-113750000D03*
D31*
%TO.P,U1,25,PB12*%
%TO.N,unconnected-(U1-Pad25)*%
X107250000Y-115162500D03*
%TO.P,U1,26,PB13*%
%TO.N,/PB13*%
X107750000Y-115162500D03*
%TO.P,U1,27,PB14*%
%TO.N,unconnected-(U1-Pad27)*%
X108250000Y-115162500D03*
%TO.P,U1,28,PB15*%
%TO.N,unconnected-(U1-Pad28)*%
X108750000Y-115162500D03*
%TO.P,U1,29,PA8*%
%TO.N,unconnected-(U1-Pad29)*%
X109250000Y-115162500D03*
%TO.P,U1,30,PA9*%
%TO.N,unconnected-(U1-Pad30)*%
X109750000Y-115162500D03*
%TO.P,U1,31,PA10*%
%TO.N,unconnected-(U1-Pad31)*%
X110250000Y-115162500D03*
%TO.P,U1,32,PA11*%
%TO.N,/USBD-*%
X110750000Y-115162500D03*
%TO.P,U1,33,PA12*%
%TO.N,/USBD+*%
X111250000Y-115162500D03*
%TO.P,U1,34,PA13*%
%TO.N,Net-(J4-Pad2)*%
X111750000Y-115162500D03*
%TO.P,U1,35,VSS*%
%TO.N,GND*%
X112250000Y-115162500D03*
%TO.P,U1,36,VDD*%
%TO.N,+3V3*%
X112750000Y-115162500D03*
D32*
%TO.P,U1,37,PA14*%
%TO.N,Net-(J4-Pad1)*%
X114162500Y-113750000D03*
%TO.P,U1,38,PA15*%
%TO.N,unconnected-(U1-Pad38)*%
X114162500Y-113250000D03*
%TO.P,U1,39,PB3*%
%TO.N,unconnected-(U1-Pad39)*%
X114162500Y-112750000D03*
%TO.P,U1,40,PB4*%
%TO.N,unconnected-(U1-Pad40)*%
X114162500Y-112250000D03*
%TO.P,U1,41,PB5*%
%TO.N,unconnected-(U1-Pad41)*%
X114162500Y-111750000D03*
%TO.P,U1,42,PB6*%
%TO.N,unconnected-(U1-Pad42)*%
X114162500Y-111250000D03*
%TO.P,U1,43,PB7*%
%TO.N,unconnected-(U1-Pad43)*%
X114162500Y-110750000D03*
%TO.P,U1,44,BOOT0*%
%TO.N,Net-(R2-Pad1)*%
X114162500Y-110250000D03*
%TO.P,U1,45,PB8*%
%TO.N,/PWM2*%
X114162500Y-109750000D03*
%TO.P,U1,46,PB9*%
%TO.N,/PWM1*%
X114162500Y-109250000D03*
%TO.P,U1,47,VSS*%
%TO.N,GND*%
X114162500Y-108750000D03*
%TO.P,U1,48,VDD*%
%TO.N,+3V3*%
X114162500Y-108250000D03*
%TD*%
D33*
%TO.P,R2,1*%
%TO.N,Net-(R2-Pad1)*%
X118775000Y-105600000D03*
%TO.P,R2,2*%
%TO.N,GND*%
X120425000Y-105600000D03*
%TD*%
D22*
%TO.P,R4,1*%
%TO.N,+3V3*%
X113404000Y-118600000D03*
%TO.P,R4,2*%
%TO.N,D+*%
X113404000Y-120250000D03*
%TD*%
D25*
%TO.P,J3,1,Pin_1*%
%TO.N,/IN1*%
X97000000Y-105650000D03*
D26*
%TO.P,J3,2,Pin_2*%
%TO.N,/IN2*%
X97000000Y-108190000D03*
%TO.P,J3,3,Pin_3*%
%TO.N,/IN3*%
X97000000Y-110730000D03*
%TO.P,J3,4,Pin_4*%
%TO.N,/IN4*%
X97000000Y-113270000D03*
%TO.P,J3,5,Pin_5*%
%TO.N,GND*%
X97000000Y-115810000D03*
%TO.P,J3,6,Pin_6*%
%TO.N,+5V*%
X97000000Y-118350000D03*
%TD*%
D20*
%TO.P,C8,1*%
%TO.N,GND*%
X110225000Y-97000000D03*
%TO.P,C8,2*%
%TO.N,/PD1*%
X111775000Y-97000000D03*
%TD*%
D34*
%TO.N,+3V3*%
X126480489Y-112700489D02*
X129000000Y-115220000D01*
X120799511Y-112700489D02*
X126480489Y-112700489D01*
X120100000Y-113400000D02*
X120799511Y-112700489D01*
X120100000Y-114150000D02*
X120100000Y-113400000D01*
X113404000Y-115604000D02*
X112900000Y-115100000D01*
X113404000Y-115816500D02*
X113404000Y-115604000D01*
D35*
X105975000Y-106300000D02*
X105975000Y-105725000D01*
X108750000Y-106837500D02*
X108750000Y-106034994D01*
X114162500Y-108250000D02*
X114162500Y-107312500D01*
X108000000Y-113600000D02*
X107850000Y-113750000D01*
X102974520Y-104899520D02*
X107614526Y-104899520D01*
X108009994Y-113600000D02*
X108000000Y-113600000D01*
X114162500Y-107312500D02*
X114600000Y-106875000D01*
X108750000Y-112850000D02*
X108250000Y-113350000D01*
X115456000Y-118250000D02*
X115056000Y-118650000D01*
D34*
X117028000Y-118250000D02*
X120100000Y-115178000D01*
D35*
X114162500Y-108250000D02*
X113359994Y-108250000D01*
D34*
X113660000Y-118600000D02*
X115390000Y-118600000D01*
D35*
X104700000Y-114887500D02*
X105837500Y-113750000D01*
X104700000Y-115625000D02*
X104700000Y-114887500D01*
X108750000Y-106034994D02*
X107614526Y-104899520D01*
X105975000Y-105725000D02*
X106800480Y-104899520D01*
D34*
X117028000Y-118250000D02*
X115456000Y-118250000D01*
D35*
X99600000Y-101800000D02*
X99875000Y-101800000D01*
X97000000Y-99200000D02*
X99600000Y-101800000D01*
X107850000Y-113750000D02*
X105837500Y-113750000D01*
X113359994Y-108250000D02*
X108009994Y-113600000D01*
D34*
X113404000Y-118600000D02*
X113404000Y-115816500D01*
D35*
X108750000Y-106837500D02*
X108750000Y-112850000D01*
X99875000Y-101800000D02*
X102974520Y-104899520D01*
%TO.N,+5V*%
X118900000Y-118625000D02*
X122400000Y-115125000D01*
X122400000Y-115125000D02*
X122400000Y-114150000D01*
X125500000Y-119697500D02*
X125500000Y-117250000D01*
X125500000Y-117250000D02*
X122400000Y-114150000D01*
%TO.N,/PD0*%
X115784994Y-101000000D02*
X116430000Y-101000000D01*
X116430000Y-101000000D02*
X116430000Y-97205000D01*
X116430000Y-97205000D02*
X116225000Y-97000000D01*
X110750000Y-106837500D02*
X110750000Y-106034994D01*
X110750000Y-106034994D02*
X115784994Y-101000000D01*
%TO.N,/PD1*%
X110250000Y-106837500D02*
X110250000Y-105899276D01*
X111550000Y-97225000D02*
X111775000Y-97000000D01*
X110250000Y-105899276D02*
X110600000Y-105549276D01*
X110600000Y-105549276D02*
X110600000Y-101950000D01*
X110600000Y-101950000D02*
X111550000Y-101000000D01*
X111550000Y-101000000D02*
X111550000Y-97225000D01*
%TO.N,Net-(D1-Pad2)*%
X103000000Y-117325000D02*
X103100000Y-117225000D01*
X101200000Y-117325000D02*
X103000000Y-117325000D01*
%TO.N,Net-(R2-Pad1)*%
X114162500Y-110250000D02*
X115650000Y-110250000D01*
X117100000Y-108800000D02*
X117100000Y-106000000D01*
X115650000Y-110250000D02*
X117100000Y-108800000D01*
X117500000Y-105600000D02*
X118775000Y-105600000D01*
X117100000Y-106000000D02*
X117500000Y-105600000D01*
%TO.N,Net-(R3-Pad1)*%
X104750000Y-112750000D02*
X105837500Y-112750000D01*
X103100000Y-114400000D02*
X104750000Y-112750000D01*
X103100000Y-115575000D02*
X103100000Y-114400000D01*
%TO.N,/IN1*%
X102100000Y-110750000D02*
X105837500Y-110750000D01*
X97000000Y-105650000D02*
X102100000Y-110750000D01*
%TO.N,/IN2*%
X100060000Y-111250000D02*
X105837500Y-111250000D01*
X97000000Y-108190000D02*
X100060000Y-111250000D01*
%TO.N,/IN3*%
X97000000Y-110730000D02*
X98020000Y-111750000D01*
X98020000Y-111750000D02*
X105837500Y-111750000D01*
%TO.N,/IN4*%
X97000000Y-113270000D02*
X98020000Y-112250000D01*
X98020000Y-112250000D02*
X105837500Y-112250000D01*
%TO.N,/PWM2*%
X116650480Y-108613802D02*
X116650480Y-104749520D01*
X115514282Y-109750000D02*
X116650480Y-108613802D01*
X114162500Y-109750000D02*
X115514282Y-109750000D01*
X116650480Y-104749520D02*
X122700000Y-98700000D01*
X122700000Y-98700000D02*
X127775000Y-98700000D01*
X127775000Y-98700000D02*
X129000000Y-97475000D01*
%TO.N,Net-(J4-Pad2)*%
X119850978Y-109700000D02*
X115050978Y-114500000D01*
X128560000Y-109700000D02*
X119850978Y-109700000D01*
X113210474Y-114100480D02*
X112009514Y-114100480D01*
X113609994Y-114500000D02*
X113210474Y-114100480D01*
X129000000Y-110140000D02*
X128560000Y-109700000D01*
X111750000Y-114359994D02*
X111750000Y-115162500D01*
X112009514Y-114100480D02*
X111750000Y-114359994D01*
X115050978Y-114500000D02*
X113609994Y-114500000D01*
%TO.N,Net-(J4-Pad1)*%
X115224520Y-113475480D02*
X119525489Y-109174511D01*
X119525489Y-109174511D02*
X127425489Y-109174511D01*
X115224520Y-113490486D02*
X115224520Y-113475480D01*
X114965006Y-113750000D02*
X115224520Y-113490486D01*
X114162500Y-113750000D02*
X114965006Y-113750000D01*
X127425489Y-109174511D02*
X129000000Y-107600000D01*
%TO.N,/PWM1*%
X116200960Y-108427604D02*
X115378564Y-109250000D01*
X115378564Y-109250000D02*
X114162500Y-109250000D01*
X124000000Y-97475000D02*
X123289282Y-97475000D01*
X123289282Y-97475000D02*
X116200960Y-104563322D01*
X116200960Y-104563322D02*
X116200960Y-108427604D01*
D36*
%TO.N,/USBD-*%
X110100000Y-118600000D02*
X110764999Y-117935001D01*
X110764999Y-117935001D02*
X110765000Y-115120523D01*
%TO.N,/USBD+*%
X111880000Y-118600000D02*
X111215001Y-117935001D01*
X111215001Y-117935001D02*
X111215000Y-115120523D01*
%TO.N,D-*%
X104637509Y-124199586D02*
X105036615Y-123800480D01*
X104853478Y-126300000D02*
X104587500Y-126034022D01*
X105036615Y-123800480D02*
X107688123Y-123800480D01*
X104587500Y-126034022D02*
X104587500Y-125210000D01*
X107688123Y-123800480D02*
X110100000Y-121388603D01*
X105321522Y-126300000D02*
X104853478Y-126300000D01*
X104637509Y-125159991D02*
X104637509Y-124199586D01*
X110100000Y-121388603D02*
X110100000Y-120325000D01*
X105587500Y-125210000D02*
X105587500Y-126034022D01*
X105587500Y-126034022D02*
X105321522Y-126300000D01*
X104587500Y-125210000D02*
X104637509Y-125159991D01*
%TO.N,D+*%
X105202101Y-124200000D02*
X105901522Y-124200000D01*
X105100000Y-125197500D02*
X105100000Y-124302101D01*
X113660000Y-120250000D02*
X111880000Y-120250000D01*
X105901522Y-124200000D02*
X107853609Y-124200000D01*
X106087500Y-124385978D02*
X105901522Y-124200000D01*
X107853609Y-124200000D02*
X111828609Y-120225000D01*
X111828609Y-120225000D02*
X111900000Y-120225000D01*
X105100000Y-124302101D02*
X105202101Y-124200000D01*
X106087500Y-125210000D02*
X106087500Y-124385978D01*
X105087500Y-125210000D02*
X105100000Y-125197500D01*
D35*
%TO.N,Net-(C1-Pad1)*%
X103025000Y-101800000D02*
X101525000Y-101800000D01*
X101525000Y-100225000D02*
X101525000Y-101800000D01*
X101525000Y-102814282D02*
X101525000Y-101800000D01*
X100200000Y-98900000D02*
X101525000Y-100225000D01*
X109750000Y-105950000D02*
X108200000Y-104400000D01*
X103110718Y-104400000D02*
X101525000Y-102814282D01*
X109750000Y-106837500D02*
X109750000Y-105950000D01*
X108200000Y-104400000D02*
X103110718Y-104400000D01*
%TD*%
%TA.AperFunction,Conductor*%
%TO.N,+5V*%
G36*
X130659191Y-98718907D02*
G01*
X130695155Y-98768407D01*
X130700000Y-98799000D01*
X130700000Y-101301000D01*
X130681093Y-101359191D01*
X130631593Y-101395155D01*
X130601000Y-101400000D01*
X122499000Y-101400000D01*
X122440809Y-101381093D01*
X122404845Y-101331593D01*
X122400000Y-101301000D01*
X122400000Y-99501335D01*
X122418907Y-99443144D01*
X122428996Y-99431331D01*
X122805831Y-99054496D01*
X122860348Y-99026719D01*
X122875835Y-99025500D01*
X127756466Y-99025500D01*
X127765095Y-99025877D01*
X127803807Y-99029264D01*
X127813305Y-99026719D01*
X127841349Y-99019204D01*
X127849784Y-99017334D01*
X127879517Y-99012092D01*
X127879519Y-99012091D01*
X127888045Y-99010588D01*
X127895544Y-99006258D01*
X127901029Y-99004262D01*
X127906316Y-99001796D01*
X127914684Y-98999554D01*
X127946511Y-98977268D01*
X127953795Y-98972627D01*
X127987455Y-98953194D01*
X128012431Y-98923429D01*
X128018265Y-98917061D01*
X128206330Y-98728996D01*
X128260847Y-98701219D01*
X128276334Y-98700000D01*
X130601000Y-98700000D01*
X130659191Y-98718907D01*
G37*
%TD.AperFunction*%
%TD*%
%TA.AperFunction,Conductor*%
%TO.N,/VBUS*%
G36*
X124085093Y-119510963D02*
G01*
X124133415Y-119548493D01*
X124150500Y-119604089D01*
X124150500Y-120574000D01*
X124162109Y-120681980D01*
X124173495Y-120734322D01*
X124207793Y-120837372D01*
X124285965Y-120959010D01*
X124288284Y-120961686D01*
X124330142Y-121009994D01*
X124330147Y-121009999D01*
X124332458Y-121012666D01*
X124335125Y-121014977D01*
X124335133Y-121014985D01*
X124431439Y-121098435D01*
X124463035Y-121150831D01*
X124465540Y-121169590D01*
X124476958Y-121477857D01*
X124493383Y-121921321D01*
X124496198Y-121997336D01*
X124479458Y-122056186D01*
X124431323Y-122093958D01*
X124397266Y-122100000D01*
X123100000Y-122100000D01*
X123100000Y-124407763D01*
X123081093Y-124465954D01*
X123069454Y-124477141D01*
X123070450Y-124478137D01*
X123063558Y-124485029D01*
X123055448Y-124490448D01*
X123011133Y-124556769D01*
X122999500Y-124615252D01*
X122999500Y-125674841D01*
X122980593Y-125733032D01*
X122938387Y-125766305D01*
X122899767Y-125782302D01*
X122894625Y-125786248D01*
X122894621Y-125786250D01*
X122864306Y-125809512D01*
X122779549Y-125874549D01*
X122775598Y-125879698D01*
X122775595Y-125879701D01*
X122713007Y-125961267D01*
X122662582Y-125995923D01*
X122634465Y-126000000D01*
X122478320Y-126000000D01*
X122420129Y-125981093D01*
X122384165Y-125931593D01*
X122384165Y-125870407D01*
X122384280Y-125870096D01*
X122388867Y-125863231D01*
X122400500Y-125804748D01*
X122400500Y-124615252D01*
X122388867Y-124556769D01*
X122344552Y-124490448D01*
X122278231Y-124446133D01*
X122268668Y-124444231D01*
X122268666Y-124444230D01*
X122245995Y-124439721D01*
X122219748Y-124434500D01*
X121880252Y-124434500D01*
X121821769Y-124446133D01*
X121821113Y-124442836D01*
X121778336Y-124446203D01*
X121778231Y-124446133D01*
X121719748Y-124434500D01*
X121380252Y-124434500D01*
X121321769Y-124446133D01*
X121321113Y-124442836D01*
X121278336Y-124446203D01*
X121278231Y-124446133D01*
X121219748Y-124434500D01*
X120880252Y-124434500D01*
X120821769Y-124446133D01*
X120821113Y-124442836D01*
X120778336Y-124446203D01*
X120778231Y-124446133D01*
X120719748Y-124434500D01*
X120380252Y-124434500D01*
X120321769Y-124446133D01*
X120321113Y-124442836D01*
X120278336Y-124446203D01*
X120278231Y-124446133D01*
X120219748Y-124434500D01*
X119880252Y-124434500D01*
X119821769Y-124446133D01*
X119821113Y-124442836D01*
X119778336Y-124446203D01*
X119778231Y-124446133D01*
X119719748Y-124434500D01*
X119380252Y-124434500D01*
X119321769Y-124446133D01*
X119321113Y-124442836D01*
X119278336Y-124446203D01*
X119278231Y-124446133D01*
X119219748Y-124434500D01*
X118880252Y-124434500D01*
X118821769Y-124446133D01*
X118821113Y-124442836D01*
X118778336Y-124446203D01*
X118778231Y-124446133D01*
X118719748Y-124434500D01*
X118380252Y-124434500D01*
X118354005Y-124439721D01*
X118331334Y-124444230D01*
X118331332Y-124444231D01*
X118321769Y-124446133D01*
X118255448Y-124490448D01*
X118211133Y-124556769D01*
X118199500Y-124615252D01*
X118199500Y-125804748D01*
X118211133Y-125863231D01*
X118213422Y-125866657D01*
X118217945Y-125924108D01*
X118185978Y-125976278D01*
X118129451Y-125999695D01*
X118121680Y-126000000D01*
X117965535Y-126000000D01*
X117907344Y-125981093D01*
X117886993Y-125961267D01*
X117824405Y-125879701D01*
X117824402Y-125879698D01*
X117820451Y-125874549D01*
X117735694Y-125809512D01*
X117705379Y-125786250D01*
X117705375Y-125786248D01*
X117700233Y-125782302D01*
X117661613Y-125766305D01*
X117615088Y-125726567D01*
X117600500Y-125674841D01*
X117600500Y-124615252D01*
X117588867Y-124556769D01*
X117544552Y-124490448D01*
X117536442Y-124485029D01*
X117529550Y-124478137D01*
X117532367Y-124475320D01*
X117506126Y-124442048D01*
X117500000Y-124407763D01*
X117500000Y-121921321D01*
X117518907Y-121863130D01*
X117566197Y-121827914D01*
X117638184Y-121802634D01*
X117747150Y-121722150D01*
X117827634Y-121613184D01*
X117872519Y-121485369D01*
X117875500Y-121453834D01*
X117875500Y-121365538D01*
X117894407Y-121307347D01*
X117946938Y-121270453D01*
X119229109Y-120898809D01*
X119974410Y-120682780D01*
X120035564Y-120684740D01*
X120083886Y-120722271D01*
X120091693Y-120736024D01*
X120169432Y-120902734D01*
X120171913Y-120906277D01*
X120171914Y-120906279D01*
X120246407Y-121012666D01*
X120299953Y-121089139D01*
X120460861Y-121250047D01*
X120464399Y-121252524D01*
X120464401Y-121252526D01*
X120643721Y-121378086D01*
X120647266Y-121380568D01*
X120853504Y-121476739D01*
X120885712Y-121485369D01*
X121069131Y-121534516D01*
X121069133Y-121534516D01*
X121073308Y-121535635D01*
X121300000Y-121555468D01*
X121526692Y-121535635D01*
X121530867Y-121534516D01*
X121530869Y-121534516D01*
X121714288Y-121485369D01*
X121746496Y-121476739D01*
X121952734Y-121380568D01*
X121956279Y-121378086D01*
X122135599Y-121252526D01*
X122135601Y-121252524D01*
X122139139Y-121250047D01*
X122300047Y-121089139D01*
X122353594Y-121012666D01*
X122428086Y-120906279D01*
X122428087Y-120906277D01*
X122430568Y-120902734D01*
X122526739Y-120696496D01*
X122585635Y-120476692D01*
X122591065Y-120414631D01*
X122600311Y-120308950D01*
X122600311Y-120308939D01*
X122600500Y-120306784D01*
X122600500Y-119995973D01*
X122619407Y-119937782D01*
X122671938Y-119900887D01*
X124023940Y-119509003D01*
X124085093Y-119510963D01*
G37*
%TD.AperFunction*%
%TD*%
%TA.AperFunction,Conductor*%
%TO.N,+5V*%
G36*
X126042121Y-113478991D02*
G01*
X126088614Y-113532647D01*
X126100000Y-113584989D01*
X126100000Y-120574000D01*
X126079998Y-120642121D01*
X126026342Y-120688614D01*
X125974000Y-120700000D01*
X124784500Y-120700000D01*
X124716379Y-120679998D01*
X124669886Y-120626342D01*
X124658500Y-120574000D01*
X124658500Y-118301866D01*
X124651745Y-118239684D01*
X124600615Y-118103295D01*
X124513261Y-117986739D01*
X124396705Y-117899385D01*
X124260316Y-117848255D01*
X124198134Y-117841500D01*
X122601866Y-117841500D01*
X122598471Y-117841869D01*
X122598467Y-117841869D01*
X122545414Y-117847632D01*
X122475531Y-117835103D01*
X122443240Y-117811845D01*
X122440898Y-117809102D01*
X122248376Y-117644672D01*
X122032502Y-117512384D01*
X122027932Y-117510491D01*
X122027928Y-117510489D01*
X121803164Y-117417389D01*
X121803162Y-117417388D01*
X121798591Y-117415495D01*
X121713968Y-117395179D01*
X121557216Y-117357546D01*
X121557210Y-117357545D01*
X121552403Y-117356391D01*
X121300000Y-117336526D01*
X121047597Y-117356391D01*
X121042790Y-117357545D01*
X121042784Y-117357546D01*
X120886032Y-117395179D01*
X120801409Y-117415495D01*
X120796838Y-117417388D01*
X120796836Y-117417389D01*
X120572072Y-117510489D01*
X120572068Y-117510491D01*
X120567498Y-117512384D01*
X120351624Y-117644672D01*
X120159102Y-117809102D01*
X119994672Y-118001624D01*
X119862384Y-118217498D01*
X119860491Y-118222068D01*
X119860489Y-118222072D01*
X119767389Y-118446836D01*
X119765495Y-118451409D01*
X119706391Y-118697597D01*
X119691500Y-118886801D01*
X119691500Y-119174075D01*
X119671498Y-119242196D01*
X119617842Y-119288689D01*
X119547568Y-119298793D01*
X119525833Y-119293668D01*
X119406285Y-119254016D01*
X119406283Y-119254016D01*
X119399757Y-119251851D01*
X119392920Y-119251151D01*
X119392918Y-119251150D01*
X119351599Y-119246917D01*
X119298732Y-119241500D01*
X118701268Y-119241500D01*
X118698027Y-119241836D01*
X118698013Y-119241837D01*
X118671018Y-119244638D01*
X118601197Y-119231772D01*
X118549415Y-119183201D01*
X118532114Y-119114344D01*
X118534664Y-119093613D01*
X118863205Y-117516616D01*
X118897462Y-117453219D01*
X120655276Y-115695405D01*
X120717588Y-115661379D01*
X120744371Y-115658500D01*
X120898134Y-115658500D01*
X120960316Y-115651745D01*
X121096705Y-115600615D01*
X121213261Y-115513261D01*
X121300615Y-115396705D01*
X121351745Y-115260316D01*
X121358500Y-115198134D01*
X121358500Y-113584989D01*
X121378502Y-113516868D01*
X121432158Y-113470375D01*
X121484500Y-113458989D01*
X125974000Y-113458989D01*
X126042121Y-113478991D01*
G37*
%TD.AperFunction*%
%TD*%
%TA.AperFunction,Conductor*%
%TO.N,GND*%
G36*
X132559191Y-93518907D02*
G01*
X132595155Y-93568407D01*
X132600000Y-93599000D01*
X132600000Y-132701000D01*
X132581093Y-132759191D01*
X132531593Y-132795155D01*
X132501000Y-132800000D01*
X93499000Y-132800000D01*
X93440809Y-132781093D01*
X93404845Y-132731593D01*
X93400000Y-132701000D01*
X93400000Y-126285000D01*
X101867034Y-126285000D01*
X101886813Y-126435236D01*
X101889297Y-126441233D01*
X101942319Y-126569240D01*
X101942321Y-126569244D01*
X101944802Y-126575233D01*
X101948748Y-126580375D01*
X101948750Y-126580379D01*
X101967904Y-126605340D01*
X102037049Y-126695451D01*
X102042198Y-126699402D01*
X102152121Y-126783750D01*
X102152125Y-126783752D01*
X102157267Y-126787698D01*
X102163256Y-126790179D01*
X102163260Y-126790181D01*
X102291267Y-126843203D01*
X102297264Y-126845687D01*
X102409780Y-126860500D01*
X102485220Y-126860500D01*
X102597736Y-126845687D01*
X102603733Y-126843203D01*
X102731740Y-126790181D01*
X102731744Y-126790179D01*
X102737733Y-126787698D01*
X102742875Y-126783752D01*
X102742879Y-126783750D01*
X102852802Y-126699402D01*
X102857951Y-126695451D01*
X102927096Y-126605340D01*
X102946250Y-126580379D01*
X102946252Y-126580375D01*
X102950198Y-126575233D01*
X102952679Y-126569244D01*
X102952681Y-126569240D01*
X103005703Y-126441233D01*
X103008187Y-126435236D01*
X103027966Y-126285000D01*
X103026353Y-126272744D01*
X103020720Y-126229964D01*
X103008187Y-126134764D01*
X103005702Y-126128764D01*
X103003060Y-126122385D01*
X102998260Y-126061388D01*
X103030229Y-126009219D01*
X103086757Y-125985805D01*
X103094524Y-125985500D01*
X103257248Y-125985500D01*
X103315731Y-125973867D01*
X103316387Y-125977164D01*
X103359164Y-125973797D01*
X103359269Y-125973867D01*
X103417752Y-125985500D01*
X103757248Y-125985500D01*
X103815731Y-125973867D01*
X103816387Y-125977164D01*
X103859164Y-125973797D01*
X103859269Y-125973867D01*
X103917752Y-125985500D01*
X104189576Y-125985500D01*
X104247767Y-126004407D01*
X104283731Y-126053907D01*
X104288506Y-126080784D01*
X104288646Y-126084500D01*
X104289274Y-126101230D01*
X104292880Y-126109624D01*
X104292881Y-126109627D01*
X104293817Y-126111805D01*
X104300183Y-126132756D01*
X104302291Y-126144075D01*
X104307088Y-126151857D01*
X104316268Y-126166750D01*
X104322952Y-126179618D01*
X104330582Y-126197376D01*
X104333464Y-126204085D01*
X104337478Y-126208971D01*
X104341842Y-126213335D01*
X104356113Y-126231390D01*
X104361032Y-126239370D01*
X104384269Y-126257040D01*
X104394339Y-126265832D01*
X104603158Y-126474651D01*
X104605858Y-126477780D01*
X104608053Y-126482269D01*
X104614756Y-126488487D01*
X104644300Y-126515893D01*
X104646976Y-126518469D01*
X104660755Y-126532248D01*
X104664465Y-126534793D01*
X104668378Y-126538229D01*
X104681083Y-126550014D01*
X104690124Y-126558401D01*
X104698610Y-126561787D01*
X104698612Y-126561788D01*
X104700815Y-126562667D01*
X104720126Y-126572978D01*
X104722085Y-126574322D01*
X104722088Y-126574323D01*
X104729624Y-126579493D01*
X104738516Y-126581603D01*
X104738518Y-126581604D01*
X104755544Y-126585644D01*
X104769363Y-126590014D01*
X104794100Y-126599883D01*
X104800393Y-126600500D01*
X104806563Y-126600500D01*
X104829419Y-126603175D01*
X104838544Y-126605340D01*
X104867466Y-126601404D01*
X104880815Y-126600500D01*
X105268014Y-126600500D01*
X105272139Y-126600803D01*
X105276864Y-126602425D01*
X105326283Y-126600570D01*
X105329996Y-126600500D01*
X105349470Y-126600500D01*
X105353900Y-126599675D01*
X105359093Y-126599339D01*
X105375124Y-126598737D01*
X105379597Y-126598569D01*
X105388730Y-126598226D01*
X105397124Y-126594620D01*
X105397127Y-126594619D01*
X105399305Y-126593683D01*
X105420256Y-126587317D01*
X105431575Y-126585209D01*
X105454251Y-126571232D01*
X105467118Y-126564548D01*
X105485164Y-126556795D01*
X105485165Y-126556794D01*
X105491585Y-126554036D01*
X105496471Y-126550022D01*
X105500835Y-126545658D01*
X105518890Y-126531387D01*
X105526870Y-126526468D01*
X105544540Y-126503231D01*
X105553332Y-126493161D01*
X105762151Y-126284342D01*
X105765280Y-126281642D01*
X105769769Y-126279447D01*
X105803393Y-126243200D01*
X105805969Y-126240524D01*
X105819748Y-126226745D01*
X105822293Y-126223035D01*
X105825729Y-126219122D01*
X105839687Y-126204075D01*
X105845901Y-126197376D01*
X105849288Y-126188888D01*
X105850167Y-126186685D01*
X105860478Y-126167374D01*
X105861822Y-126165415D01*
X105861823Y-126165412D01*
X105866993Y-126157876D01*
X105869331Y-126148027D01*
X105873144Y-126131956D01*
X105877514Y-126118137D01*
X105887383Y-126093400D01*
X105888000Y-126087107D01*
X105888000Y-126084500D01*
X105888011Y-126084466D01*
X105888118Y-126082275D01*
X105888713Y-126082304D01*
X105906907Y-126026309D01*
X105956407Y-125990345D01*
X105987000Y-125985500D01*
X106257248Y-125985500D01*
X106315731Y-125973867D01*
X106316387Y-125977164D01*
X106359164Y-125973797D01*
X106359269Y-125973867D01*
X106417752Y-125985500D01*
X106757248Y-125985500D01*
X106815731Y-125973867D01*
X106816387Y-125977164D01*
X106859164Y-125973797D01*
X106859269Y-125973867D01*
X106917752Y-125985500D01*
X107257248Y-125985500D01*
X107315731Y-125973867D01*
X107316387Y-125977164D01*
X107359164Y-125973797D01*
X107359269Y-125973867D01*
X107417752Y-125985500D01*
X107580476Y-125985500D01*
X107638667Y-126004407D01*
X107674631Y-126053907D01*
X107674631Y-126115093D01*
X107671940Y-126122385D01*
X107669298Y-126128764D01*
X107666813Y-126134764D01*
X107654280Y-126229964D01*
X107648648Y-126272744D01*
X107647034Y-126285000D01*
X107666813Y-126435236D01*
X107669297Y-126441233D01*
X107722319Y-126569240D01*
X107722321Y-126569244D01*
X107724802Y-126575233D01*
X107728748Y-126580375D01*
X107728750Y-126580379D01*
X107747904Y-126605340D01*
X107817049Y-126695451D01*
X107822198Y-126699402D01*
X107932121Y-126783750D01*
X107932125Y-126783752D01*
X107937267Y-126787698D01*
X107943256Y-126790179D01*
X107943260Y-126790181D01*
X108071267Y-126843203D01*
X108077264Y-126845687D01*
X108189780Y-126860500D01*
X108265220Y-126860500D01*
X108377736Y-126845687D01*
X108383733Y-126843203D01*
X108511740Y-126790181D01*
X108511744Y-126790179D01*
X108517733Y-126787698D01*
X108522875Y-126783752D01*
X108522879Y-126783750D01*
X108632802Y-126699402D01*
X108637951Y-126695451D01*
X108707096Y-126605340D01*
X108726250Y-126580379D01*
X108726252Y-126580375D01*
X108730198Y-126575233D01*
X108732679Y-126569244D01*
X108732681Y-126569240D01*
X108785703Y-126441233D01*
X108788187Y-126435236D01*
X108807966Y-126285000D01*
X108806353Y-126272744D01*
X108800720Y-126229964D01*
X108788187Y-126134764D01*
X108784095Y-126124885D01*
X108732681Y-126000760D01*
X108732679Y-126000756D01*
X108730198Y-125994767D01*
X108726252Y-125989625D01*
X108726250Y-125989621D01*
X108641902Y-125879698D01*
X108637951Y-125874549D01*
X108632802Y-125870598D01*
X108522879Y-125786250D01*
X108522875Y-125786248D01*
X108517733Y-125782302D01*
X108511744Y-125779821D01*
X108511740Y-125779819D01*
X108383733Y-125726797D01*
X108377736Y-125724313D01*
X108324077Y-125717249D01*
X108268853Y-125690908D01*
X108239658Y-125637138D01*
X108238000Y-125619096D01*
X108238000Y-124615252D01*
X108229134Y-124570679D01*
X108228270Y-124566334D01*
X108228269Y-124566332D01*
X108226367Y-124556769D01*
X108182052Y-124490448D01*
X108166107Y-124479794D01*
X108128228Y-124431745D01*
X108125826Y-124370607D01*
X108151105Y-124327475D01*
X111599084Y-120879496D01*
X111653601Y-120851719D01*
X111669088Y-120850500D01*
X112021189Y-120850499D01*
X112058518Y-120850499D01*
X112062361Y-120849890D01*
X112062366Y-120849890D01*
X112099217Y-120844053D01*
X112152304Y-120835646D01*
X112208823Y-120806848D01*
X112258403Y-120781586D01*
X112258405Y-120781585D01*
X112265342Y-120778050D01*
X112355050Y-120688342D01*
X112358586Y-120681402D01*
X112358589Y-120681398D01*
X112397743Y-120604555D01*
X112441007Y-120561290D01*
X112485952Y-120550500D01*
X112670048Y-120550500D01*
X112728239Y-120569407D01*
X112758257Y-120604555D01*
X112797411Y-120681398D01*
X112797414Y-120681402D01*
X112800950Y-120688342D01*
X112890658Y-120778050D01*
X112897595Y-120781585D01*
X112897597Y-120781586D01*
X112996756Y-120832110D01*
X113003696Y-120835646D01*
X113011390Y-120836865D01*
X113011391Y-120836865D01*
X113093635Y-120849891D01*
X113093637Y-120849891D01*
X113097481Y-120850500D01*
X113403960Y-120850500D01*
X113710518Y-120850499D01*
X113714361Y-120849890D01*
X113714366Y-120849890D01*
X113751217Y-120844053D01*
X113804304Y-120835646D01*
X113860823Y-120806848D01*
X113910403Y-120781586D01*
X113910405Y-120781585D01*
X113917342Y-120778050D01*
X114007050Y-120688342D01*
X114010589Y-120681398D01*
X114061110Y-120582244D01*
X114061110Y-120582243D01*
X114064646Y-120575304D01*
X114066104Y-120566102D01*
X114078891Y-120485365D01*
X114078891Y-120485363D01*
X114079500Y-120481519D01*
X114079499Y-120018482D01*
X114064646Y-119924696D01*
X114022508Y-119841995D01*
X114010586Y-119818597D01*
X114010585Y-119818595D01*
X114007050Y-119811658D01*
X113917342Y-119721950D01*
X113910405Y-119718415D01*
X113910403Y-119718414D01*
X113811244Y-119667890D01*
X113811243Y-119667890D01*
X113804304Y-119664354D01*
X113796610Y-119663135D01*
X113796609Y-119663135D01*
X113714365Y-119650109D01*
X113714363Y-119650109D01*
X113710519Y-119649500D01*
X113404040Y-119649500D01*
X113097482Y-119649501D01*
X113093639Y-119650110D01*
X113093634Y-119650110D01*
X113056783Y-119655947D01*
X113003696Y-119664354D01*
X112962807Y-119685188D01*
X112897597Y-119718414D01*
X112897595Y-119718415D01*
X112890658Y-119721950D01*
X112800950Y-119811658D01*
X112797414Y-119818598D01*
X112797411Y-119818602D01*
X112758257Y-119895445D01*
X112714993Y-119938710D01*
X112670048Y-119949500D01*
X112485952Y-119949500D01*
X112427761Y-119930593D01*
X112397743Y-119895445D01*
X112358589Y-119818602D01*
X112358586Y-119818598D01*
X112355050Y-119811658D01*
X112265342Y-119721950D01*
X112258405Y-119718415D01*
X112258403Y-119718414D01*
X112159244Y-119667890D01*
X112159243Y-119667890D01*
X112152304Y-119664354D01*
X112144610Y-119663135D01*
X112144609Y-119663135D01*
X112062365Y-119650109D01*
X112062363Y-119650109D01*
X112058519Y-119649500D01*
X111752040Y-119649500D01*
X111445482Y-119649501D01*
X111441639Y-119650110D01*
X111441634Y-119650110D01*
X111404783Y-119655947D01*
X111351696Y-119664354D01*
X111310807Y-119685188D01*
X111245597Y-119718414D01*
X111245595Y-119718415D01*
X111238658Y-119721950D01*
X111148950Y-119811658D01*
X111145415Y-119818595D01*
X111145414Y-119818597D01*
X111116176Y-119875980D01*
X111091354Y-119924696D01*
X111090135Y-119932390D01*
X111090135Y-119932391D01*
X111089134Y-119938710D01*
X111076500Y-120018481D01*
X111076501Y-120481518D01*
X111078265Y-120492658D01*
X111068696Y-120553087D01*
X111050489Y-120578149D01*
X110898576Y-120730062D01*
X110844059Y-120757839D01*
X110783627Y-120748268D01*
X110740362Y-120705003D01*
X110730791Y-120644571D01*
X110740363Y-120615112D01*
X110757109Y-120582247D01*
X110757110Y-120582243D01*
X110760646Y-120575304D01*
X110762104Y-120566102D01*
X110774891Y-120485365D01*
X110774891Y-120485363D01*
X110775500Y-120481519D01*
X110775499Y-120018482D01*
X110760646Y-119924696D01*
X110718508Y-119841995D01*
X110706586Y-119818597D01*
X110706585Y-119818595D01*
X110703050Y-119811658D01*
X110613342Y-119721950D01*
X110606405Y-119718415D01*
X110606403Y-119718414D01*
X110507244Y-119667890D01*
X110507243Y-119667890D01*
X110500304Y-119664354D01*
X110492610Y-119663135D01*
X110492609Y-119663135D01*
X110410365Y-119650109D01*
X110410363Y-119650109D01*
X110406519Y-119649500D01*
X110100040Y-119649500D01*
X109793482Y-119649501D01*
X109789639Y-119650110D01*
X109789634Y-119650110D01*
X109752783Y-119655947D01*
X109699696Y-119664354D01*
X109658807Y-119685188D01*
X109593597Y-119718414D01*
X109593595Y-119718415D01*
X109586658Y-119721950D01*
X109496950Y-119811658D01*
X109493415Y-119818595D01*
X109493414Y-119818597D01*
X109464176Y-119875980D01*
X109439354Y-119924696D01*
X109438135Y-119932390D01*
X109438135Y-119932391D01*
X109437134Y-119938710D01*
X109424500Y-120018481D01*
X109424501Y-120481518D01*
X109425109Y-120485354D01*
X109425110Y-120485366D01*
X109430947Y-120522217D01*
X109439354Y-120575304D01*
X109468152Y-120631823D01*
X109493412Y-120681398D01*
X109496950Y-120688342D01*
X109586658Y-120778050D01*
X109593595Y-120781585D01*
X109593597Y-120781586D01*
X109692756Y-120832110D01*
X109699696Y-120835646D01*
X109707390Y-120836865D01*
X109707391Y-120836865D01*
X109715986Y-120838226D01*
X109770503Y-120866002D01*
X109798281Y-120920519D01*
X109799500Y-120936007D01*
X109799500Y-121223124D01*
X109780593Y-121281315D01*
X109770504Y-121293128D01*
X107592648Y-123470984D01*
X107538131Y-123498761D01*
X107522644Y-123499980D01*
X105090123Y-123499980D01*
X105085998Y-123499677D01*
X105081273Y-123498055D01*
X105031854Y-123499910D01*
X105028141Y-123499980D01*
X105008667Y-123499980D01*
X105004237Y-123500805D01*
X104999044Y-123501141D01*
X104983013Y-123501743D01*
X104978540Y-123501911D01*
X104969407Y-123502254D01*
X104961013Y-123505860D01*
X104961010Y-123505861D01*
X104958832Y-123506797D01*
X104937881Y-123513163D01*
X104926562Y-123515271D01*
X104918779Y-123520068D01*
X104918780Y-123520068D01*
X104903887Y-123529248D01*
X104891019Y-123535932D01*
X104872973Y-123543685D01*
X104872972Y-123543686D01*
X104866552Y-123546444D01*
X104861666Y-123550458D01*
X104857302Y-123554822D01*
X104839247Y-123569093D01*
X104831267Y-123574012D01*
X104813597Y-123597249D01*
X104804805Y-123607319D01*
X104462858Y-123949266D01*
X104459729Y-123951966D01*
X104455240Y-123954161D01*
X104449022Y-123960864D01*
X104421616Y-123990408D01*
X104419040Y-123993084D01*
X104405261Y-124006863D01*
X104402716Y-124010573D01*
X104399280Y-124014486D01*
X104379108Y-124036232D01*
X104375721Y-124044720D01*
X104375721Y-124044721D01*
X104374843Y-124046922D01*
X104364529Y-124066238D01*
X104363188Y-124068193D01*
X104363187Y-124068196D01*
X104358017Y-124075732D01*
X104355907Y-124084624D01*
X104351868Y-124101644D01*
X104347495Y-124115470D01*
X104340215Y-124133718D01*
X104337626Y-124140208D01*
X104337009Y-124146501D01*
X104337009Y-124152670D01*
X104334334Y-124175529D01*
X104332169Y-124184652D01*
X104336105Y-124213573D01*
X104337009Y-124226923D01*
X104337009Y-124335500D01*
X104318102Y-124393691D01*
X104268602Y-124429655D01*
X104238009Y-124434500D01*
X103917752Y-124434500D01*
X103859269Y-124446133D01*
X103858613Y-124442836D01*
X103815836Y-124446203D01*
X103815731Y-124446133D01*
X103757248Y-124434500D01*
X103417752Y-124434500D01*
X103359269Y-124446133D01*
X103358613Y-124442836D01*
X103315836Y-124446203D01*
X103315731Y-124446133D01*
X103257248Y-124434500D01*
X102617752Y-124434500D01*
X102591505Y-124439721D01*
X102568834Y-124444230D01*
X102568832Y-124444231D01*
X102559269Y-124446133D01*
X102492948Y-124490448D01*
X102448633Y-124556769D01*
X102446731Y-124566332D01*
X102446730Y-124566334D01*
X102445866Y-124570679D01*
X102437000Y-124615252D01*
X102437000Y-125619096D01*
X102418093Y-125677287D01*
X102368593Y-125713251D01*
X102350924Y-125717249D01*
X102297264Y-125724313D01*
X102291267Y-125726797D01*
X102163260Y-125779819D01*
X102163256Y-125779821D01*
X102157267Y-125782302D01*
X102152125Y-125786248D01*
X102152121Y-125786250D01*
X102042198Y-125870598D01*
X102037049Y-125874549D01*
X102033098Y-125879698D01*
X101948750Y-125989621D01*
X101948748Y-125989625D01*
X101944802Y-125994767D01*
X101942321Y-126000756D01*
X101942319Y-126000760D01*
X101890905Y-126124885D01*
X101886813Y-126134764D01*
X101874280Y-126229964D01*
X101868648Y-126272744D01*
X101867034Y-126285000D01*
X93400000Y-126285000D01*
X93400000Y-118335262D01*
X95944520Y-118335262D01*
X95951949Y-118423735D01*
X95953500Y-118442195D01*
X95961759Y-118540553D01*
X95963092Y-118545201D01*
X95963092Y-118545202D01*
X96014255Y-118723627D01*
X96018544Y-118738586D01*
X96112712Y-118921818D01*
X96240677Y-119083270D01*
X96244357Y-119086402D01*
X96244359Y-119086404D01*
X96285340Y-119121281D01*
X96397564Y-119216791D01*
X96401787Y-119219151D01*
X96401791Y-119219154D01*
X96445248Y-119243441D01*
X96577398Y-119317297D01*
X96581996Y-119318791D01*
X96768724Y-119379463D01*
X96768726Y-119379464D01*
X96773329Y-119380959D01*
X96977894Y-119405351D01*
X96982716Y-119404980D01*
X96982719Y-119404980D01*
X97050541Y-119399761D01*
X97183300Y-119389546D01*
X97381725Y-119334145D01*
X97386038Y-119331966D01*
X97386044Y-119331964D01*
X97561289Y-119243441D01*
X97561291Y-119243440D01*
X97565610Y-119241258D01*
X97583778Y-119227064D01*
X97724135Y-119117406D01*
X97724139Y-119117402D01*
X97727951Y-119114424D01*
X97736013Y-119105085D01*
X97834457Y-118991034D01*
X97862564Y-118958472D01*
X97881788Y-118924632D01*
X97961934Y-118783550D01*
X97961935Y-118783547D01*
X97964323Y-118779344D01*
X97966064Y-118774112D01*
X98027824Y-118588454D01*
X98027824Y-118588452D01*
X98029351Y-118583863D01*
X98032476Y-118559130D01*
X98054823Y-118382228D01*
X98055171Y-118379474D01*
X98055583Y-118350000D01*
X98055313Y-118347244D01*
X98035952Y-118149780D01*
X98035951Y-118149776D01*
X98035480Y-118144970D01*
X98031140Y-118130593D01*
X97991744Y-118000110D01*
X97975935Y-117947749D01*
X97879218Y-117765849D01*
X97828640Y-117703834D01*
X100299500Y-117703834D01*
X100299718Y-117706135D01*
X100299718Y-117706145D01*
X100301811Y-117728281D01*
X100302481Y-117735369D01*
X100347366Y-117863184D01*
X100351761Y-117869135D01*
X100351762Y-117869136D01*
X100418966Y-117960122D01*
X100427850Y-117972150D01*
X100433807Y-117976550D01*
X100519174Y-118039603D01*
X100536816Y-118052634D01*
X100664631Y-118097519D01*
X100670638Y-118098087D01*
X100670639Y-118098087D01*
X100693855Y-118100282D01*
X100693865Y-118100282D01*
X100696166Y-118100500D01*
X101703834Y-118100500D01*
X101706135Y-118100282D01*
X101706145Y-118100282D01*
X101729361Y-118098087D01*
X101729362Y-118098087D01*
X101735369Y-118097519D01*
X101863184Y-118052634D01*
X101880827Y-118039603D01*
X101966193Y-117976550D01*
X101972150Y-117972150D01*
X101981034Y-117960122D01*
X102048238Y-117869136D01*
X102048239Y-117869135D01*
X102052634Y-117863184D01*
X102083776Y-117774505D01*
X102095522Y-117741057D01*
X102095523Y-117741053D01*
X102097519Y-117735369D01*
X102098086Y-117729370D01*
X102098325Y-117728281D01*
X102129265Y-117675495D01*
X102185323Y-117650976D01*
X102195024Y-117650500D01*
X102443100Y-117650500D01*
X102501291Y-117669407D01*
X102513104Y-117679496D01*
X102586658Y-117753050D01*
X102593595Y-117756585D01*
X102593597Y-117756586D01*
X102677821Y-117799500D01*
X102699696Y-117810646D01*
X102707390Y-117811865D01*
X102707391Y-117811865D01*
X102789635Y-117824891D01*
X102789637Y-117824891D01*
X102793481Y-117825500D01*
X103099960Y-117825500D01*
X103406518Y-117825499D01*
X103410361Y-117824890D01*
X103410366Y-117824890D01*
X103447217Y-117819053D01*
X103500304Y-117810646D01*
X103556823Y-117781848D01*
X103606403Y-117756586D01*
X103606405Y-117756585D01*
X103613342Y-117753050D01*
X103703050Y-117663342D01*
X103709594Y-117650500D01*
X103757110Y-117557244D01*
X103757110Y-117557243D01*
X103760646Y-117550304D01*
X103772819Y-117473450D01*
X103774891Y-117460365D01*
X103774891Y-117460363D01*
X103775500Y-117456519D01*
X103775499Y-116993482D01*
X103760646Y-116899696D01*
X103703050Y-116786658D01*
X103613342Y-116696950D01*
X103606405Y-116693415D01*
X103606403Y-116693414D01*
X103507244Y-116642890D01*
X103507243Y-116642890D01*
X103500304Y-116639354D01*
X103492610Y-116638135D01*
X103492609Y-116638135D01*
X103410365Y-116625109D01*
X103410363Y-116625109D01*
X103406519Y-116624500D01*
X103100040Y-116624500D01*
X102793482Y-116624501D01*
X102789639Y-116625110D01*
X102789634Y-116625110D01*
X102752783Y-116630947D01*
X102699696Y-116639354D01*
X102643177Y-116668152D01*
X102593597Y-116693414D01*
X102593595Y-116693415D01*
X102586658Y-116696950D01*
X102496950Y-116786658D01*
X102439354Y-116899696D01*
X102438135Y-116907390D01*
X102438135Y-116907391D01*
X102436774Y-116915986D01*
X102408998Y-116970503D01*
X102354481Y-116998281D01*
X102338993Y-116999500D01*
X102195024Y-116999500D01*
X102136833Y-116980593D01*
X102100869Y-116931093D01*
X102098325Y-116921719D01*
X102098086Y-116920630D01*
X102097519Y-116914631D01*
X102095520Y-116908937D01*
X102076625Y-116855132D01*
X102052634Y-116786816D01*
X101972150Y-116677850D01*
X101918382Y-116638136D01*
X101869136Y-116601762D01*
X101869135Y-116601761D01*
X101863184Y-116597366D01*
X101735369Y-116552481D01*
X101729362Y-116551913D01*
X101729361Y-116551913D01*
X101706145Y-116549718D01*
X101706135Y-116549718D01*
X101703834Y-116549500D01*
X100696166Y-116549500D01*
X100693865Y-116549718D01*
X100693855Y-116549718D01*
X100670639Y-116551913D01*
X100670638Y-116551913D01*
X100664631Y-116552481D01*
X100536816Y-116597366D01*
X100530865Y-116601761D01*
X100530864Y-116601762D01*
X100481618Y-116638136D01*
X100427850Y-116677850D01*
X100347366Y-116786816D01*
X100302481Y-116914631D01*
X100299500Y-116946166D01*
X100299500Y-117703834D01*
X97828640Y-117703834D01*
X97749011Y-117606200D01*
X97725580Y-117586816D01*
X97594002Y-117477965D01*
X97594000Y-117477964D01*
X97590275Y-117474882D01*
X97409055Y-117376897D01*
X97321254Y-117349718D01*
X97216875Y-117317407D01*
X97216871Y-117317406D01*
X97212254Y-117315977D01*
X97207446Y-117315472D01*
X97207443Y-117315471D01*
X97012185Y-117294949D01*
X97012183Y-117294949D01*
X97007369Y-117294443D01*
X96947354Y-117299905D01*
X96807022Y-117312675D01*
X96807017Y-117312676D01*
X96802203Y-117313114D01*
X96604572Y-117371280D01*
X96600288Y-117373519D01*
X96600287Y-117373520D01*
X96589428Y-117379197D01*
X96422002Y-117466726D01*
X96418231Y-117469758D01*
X96265220Y-117592781D01*
X96265217Y-117592783D01*
X96261447Y-117595815D01*
X96258333Y-117599526D01*
X96258332Y-117599527D01*
X96155801Y-117721719D01*
X96129024Y-117753630D01*
X96126689Y-117757878D01*
X96126688Y-117757879D01*
X96095141Y-117815263D01*
X96029776Y-117934162D01*
X96028313Y-117938775D01*
X96028311Y-117938779D01*
X95992126Y-118052851D01*
X95967484Y-118130532D01*
X95966944Y-118135344D01*
X95966944Y-118135345D01*
X95946179Y-118320476D01*
X95944520Y-118335262D01*
X93400000Y-118335262D01*
X93400000Y-113255262D01*
X95944520Y-113255262D01*
X95944925Y-113260082D01*
X95958732Y-113424500D01*
X95961759Y-113460553D01*
X95963092Y-113465201D01*
X95963092Y-113465202D01*
X96016864Y-113652726D01*
X96018544Y-113658586D01*
X96112712Y-113841818D01*
X96240677Y-114003270D01*
X96244357Y-114006402D01*
X96244359Y-114006404D01*
X96319530Y-114070379D01*
X96397564Y-114136791D01*
X96401787Y-114139151D01*
X96401791Y-114139154D01*
X96488259Y-114187479D01*
X96577398Y-114237297D01*
X96581996Y-114238791D01*
X96768724Y-114299463D01*
X96768726Y-114299464D01*
X96773329Y-114300959D01*
X96977894Y-114325351D01*
X96982716Y-114324980D01*
X96982719Y-114324980D01*
X97050541Y-114319761D01*
X97183300Y-114309546D01*
X97381725Y-114254145D01*
X97386038Y-114251966D01*
X97386044Y-114251964D01*
X97561289Y-114163441D01*
X97561291Y-114163440D01*
X97565610Y-114161258D01*
X97569427Y-114158276D01*
X97724135Y-114037406D01*
X97724139Y-114037402D01*
X97727951Y-114034424D01*
X97736270Y-114024787D01*
X97824188Y-113922931D01*
X97862564Y-113878472D01*
X97882740Y-113842956D01*
X97961934Y-113703550D01*
X97961935Y-113703547D01*
X97964323Y-113699344D01*
X97972096Y-113675980D01*
X98027824Y-113508454D01*
X98027824Y-113508452D01*
X98029351Y-113503863D01*
X98032744Y-113477009D01*
X98049739Y-113342477D01*
X98055171Y-113299474D01*
X98055583Y-113270000D01*
X98045407Y-113166212D01*
X98035952Y-113069780D01*
X98035951Y-113069776D01*
X98035480Y-113064970D01*
X98015225Y-112997881D01*
X97995483Y-112932495D01*
X97975935Y-112867749D01*
X97970977Y-112858423D01*
X97960351Y-112798170D01*
X97988384Y-112741942D01*
X98125830Y-112604496D01*
X98180347Y-112576719D01*
X98195834Y-112575500D01*
X104225165Y-112575500D01*
X104283356Y-112594407D01*
X104319320Y-112643907D01*
X104319320Y-112705093D01*
X104295169Y-112744504D01*
X102882943Y-114156731D01*
X102876576Y-114162565D01*
X102846806Y-114187545D01*
X102832429Y-114212447D01*
X102827373Y-114221205D01*
X102822732Y-114228489D01*
X102800446Y-114260316D01*
X102798204Y-114268684D01*
X102795738Y-114273971D01*
X102793742Y-114279456D01*
X102789412Y-114286955D01*
X102787909Y-114295481D01*
X102787908Y-114295483D01*
X102782666Y-114325216D01*
X102780796Y-114333650D01*
X102770736Y-114371193D01*
X102774123Y-114409905D01*
X102774500Y-114418534D01*
X102774500Y-114894403D01*
X102755593Y-114952594D01*
X102706473Y-114988281D01*
X102699696Y-114989354D01*
X102677758Y-115000532D01*
X102593597Y-115043414D01*
X102593595Y-115043415D01*
X102586658Y-115046950D01*
X102496950Y-115136658D01*
X102493415Y-115143595D01*
X102493414Y-115143597D01*
X102454485Y-115220000D01*
X102439354Y-115249696D01*
X102438135Y-115257390D01*
X102438135Y-115257391D01*
X102426299Y-115332124D01*
X102424500Y-115343481D01*
X102424501Y-115806518D01*
X102439354Y-115900304D01*
X102496950Y-116013342D01*
X102586658Y-116103050D01*
X102593595Y-116106585D01*
X102593597Y-116106586D01*
X102692756Y-116157110D01*
X102699696Y-116160646D01*
X102707390Y-116161865D01*
X102707391Y-116161865D01*
X102789635Y-116174891D01*
X102789637Y-116174891D01*
X102793481Y-116175500D01*
X103099960Y-116175500D01*
X103406518Y-116175499D01*
X103410361Y-116174890D01*
X103410366Y-116174890D01*
X103447217Y-116169053D01*
X103500304Y-116160646D01*
X103556823Y-116131848D01*
X103606403Y-116106586D01*
X103606405Y-116106585D01*
X103613342Y-116103050D01*
X103703050Y-116013342D01*
X103732062Y-115956404D01*
X103757110Y-115907244D01*
X103757110Y-115907243D01*
X103760646Y-115900304D01*
X103763310Y-115883488D01*
X103774891Y-115810365D01*
X103774891Y-115810363D01*
X103775500Y-115806519D01*
X103775499Y-115343482D01*
X103774769Y-115338867D01*
X103767607Y-115293651D01*
X103760646Y-115249696D01*
X103711743Y-115153719D01*
X103706586Y-115143597D01*
X103706585Y-115143595D01*
X103703050Y-115136658D01*
X103613342Y-115046950D01*
X103606405Y-115043415D01*
X103606403Y-115043414D01*
X103522242Y-115000532D01*
X103500304Y-114989354D01*
X103493527Y-114988281D01*
X103444409Y-114952596D01*
X103425500Y-114894403D01*
X103425500Y-114575834D01*
X103444407Y-114517643D01*
X103454496Y-114505830D01*
X104855831Y-113104496D01*
X104910348Y-113076719D01*
X104925835Y-113075500D01*
X105031019Y-113075500D01*
X105063760Y-113082013D01*
X105067505Y-113084515D01*
X105147867Y-113100500D01*
X105837358Y-113100500D01*
X106527132Y-113100499D01*
X106607495Y-113084515D01*
X106698624Y-113023624D01*
X106759515Y-112932495D01*
X106761417Y-112922932D01*
X106761418Y-112922930D01*
X106768165Y-112889009D01*
X106775500Y-112852133D01*
X106775499Y-112647868D01*
X106759515Y-112567505D01*
X106754095Y-112559393D01*
X106751160Y-112555000D01*
X106734552Y-112496112D01*
X106751160Y-112445000D01*
X106754095Y-112440607D01*
X106754096Y-112440605D01*
X106759515Y-112432495D01*
X106761417Y-112422932D01*
X106761418Y-112422930D01*
X106770910Y-112375208D01*
X106775500Y-112352133D01*
X106775499Y-112147868D01*
X106759515Y-112067505D01*
X106754095Y-112059393D01*
X106751160Y-112055000D01*
X106734552Y-111996112D01*
X106751160Y-111945000D01*
X106754095Y-111940607D01*
X106754096Y-111940605D01*
X106759515Y-111932495D01*
X106761417Y-111922932D01*
X106761418Y-111922930D01*
X106774552Y-111856897D01*
X106775500Y-111852133D01*
X106775499Y-111647868D01*
X106759515Y-111567505D01*
X106754095Y-111559393D01*
X106751160Y-111555000D01*
X106734552Y-111496112D01*
X106751160Y-111445000D01*
X106754095Y-111440607D01*
X106754096Y-111440605D01*
X106759515Y-111432495D01*
X106761417Y-111422932D01*
X106761418Y-111422930D01*
X106768165Y-111389009D01*
X106775500Y-111352133D01*
X106775499Y-111147868D01*
X106759515Y-111067505D01*
X106754095Y-111059393D01*
X106751160Y-111055000D01*
X106734552Y-110996112D01*
X106751160Y-110945000D01*
X106754095Y-110940607D01*
X106754096Y-110940605D01*
X106759515Y-110932495D01*
X106761417Y-110922932D01*
X106761418Y-110922930D01*
X106770672Y-110876404D01*
X106775500Y-110852133D01*
X106775499Y-110647868D01*
X106759515Y-110567505D01*
X106754095Y-110559393D01*
X106751160Y-110555000D01*
X106734552Y-110496112D01*
X106751160Y-110445000D01*
X106754095Y-110440607D01*
X106754096Y-110440605D01*
X106759515Y-110432495D01*
X106761417Y-110422932D01*
X106761418Y-110422930D01*
X106770264Y-110378454D01*
X106775500Y-110352133D01*
X106775499Y-110147868D01*
X106759515Y-110067505D01*
X106754095Y-110059393D01*
X106751160Y-110055000D01*
X106734552Y-109996112D01*
X106751160Y-109945000D01*
X106754095Y-109940607D01*
X106754096Y-109940605D01*
X106759515Y-109932495D01*
X106761417Y-109922932D01*
X106761418Y-109922930D01*
X106774552Y-109856897D01*
X106775500Y-109852133D01*
X106775499Y-109647868D01*
X106759515Y-109567505D01*
X106751727Y-109555849D01*
X106751160Y-109555000D01*
X106734552Y-109496112D01*
X106751160Y-109445000D01*
X106754095Y-109440607D01*
X106754096Y-109440605D01*
X106759515Y-109432495D01*
X106761417Y-109422932D01*
X106761418Y-109422930D01*
X106774552Y-109356897D01*
X106775500Y-109352133D01*
X106775499Y-109147868D01*
X106759515Y-109067505D01*
X106752356Y-109056791D01*
X106751160Y-109055000D01*
X106734552Y-108996112D01*
X106751160Y-108945000D01*
X106754095Y-108940607D01*
X106754096Y-108940605D01*
X106759515Y-108932495D01*
X106761417Y-108922932D01*
X106761418Y-108922930D01*
X106770994Y-108874784D01*
X106775500Y-108852133D01*
X106775499Y-108647868D01*
X106759515Y-108567505D01*
X106754095Y-108559393D01*
X106751160Y-108555000D01*
X106734552Y-108496112D01*
X106751160Y-108445000D01*
X106754095Y-108440607D01*
X106754096Y-108440605D01*
X106759515Y-108432495D01*
X106761417Y-108422932D01*
X106761418Y-108422930D01*
X106774552Y-108356897D01*
X106775500Y-108352133D01*
X106775499Y-108147868D01*
X106759515Y-108067505D01*
X106698624Y-107976376D01*
X106607495Y-107915485D01*
X106597932Y-107913583D01*
X106597930Y-107913582D01*
X106564009Y-107906835D01*
X106527133Y-107899500D01*
X105837642Y-107899500D01*
X105147868Y-107899501D01*
X105067505Y-107915485D01*
X104976376Y-107976376D01*
X104915485Y-108067505D01*
X104913583Y-108077068D01*
X104913583Y-108077069D01*
X104899500Y-108147867D01*
X104899501Y-108352132D01*
X104915485Y-108432495D01*
X104920904Y-108440605D01*
X104923840Y-108445000D01*
X104940448Y-108503888D01*
X104923840Y-108555000D01*
X104920905Y-108559393D01*
X104915485Y-108567505D01*
X104913583Y-108577068D01*
X104913582Y-108577070D01*
X104908922Y-108600499D01*
X104899500Y-108647867D01*
X104899501Y-108852132D01*
X104915485Y-108932495D01*
X104920904Y-108940605D01*
X104923840Y-108945000D01*
X104940448Y-109003888D01*
X104923840Y-109055000D01*
X104921065Y-109059154D01*
X104915485Y-109067505D01*
X104913583Y-109077068D01*
X104913583Y-109077069D01*
X104899500Y-109147867D01*
X104899501Y-109352132D01*
X104915485Y-109432495D01*
X104920904Y-109440605D01*
X104923840Y-109445000D01*
X104940448Y-109503888D01*
X104923840Y-109555000D01*
X104923273Y-109555849D01*
X104915485Y-109567505D01*
X104913583Y-109577068D01*
X104913583Y-109577069D01*
X104899500Y-109647867D01*
X104899501Y-109852132D01*
X104915485Y-109932495D01*
X104920904Y-109940605D01*
X104923840Y-109945000D01*
X104940448Y-110003888D01*
X104923840Y-110055000D01*
X104920905Y-110059393D01*
X104915485Y-110067505D01*
X104913583Y-110077068D01*
X104913583Y-110077069D01*
X104899500Y-110147867D01*
X104899500Y-110152725D01*
X104899501Y-110325499D01*
X104880594Y-110383690D01*
X104831094Y-110419654D01*
X104800501Y-110424500D01*
X102275835Y-110424500D01*
X102217644Y-110405593D01*
X102205831Y-110395504D01*
X98079496Y-106269170D01*
X98051719Y-106214653D01*
X98050500Y-106199166D01*
X98050500Y-104780252D01*
X98038867Y-104721769D01*
X97994552Y-104655448D01*
X97928231Y-104611133D01*
X97918668Y-104609231D01*
X97918666Y-104609230D01*
X97895995Y-104604721D01*
X97869748Y-104599500D01*
X96130252Y-104599500D01*
X96104005Y-104604721D01*
X96081334Y-104609230D01*
X96081332Y-104609231D01*
X96071769Y-104611133D01*
X96005448Y-104655448D01*
X95961133Y-104721769D01*
X95949500Y-104780252D01*
X95949500Y-106519748D01*
X95961133Y-106578231D01*
X96005448Y-106644552D01*
X96071769Y-106688867D01*
X96081332Y-106690769D01*
X96081334Y-106690770D01*
X96104005Y-106695279D01*
X96130252Y-106700500D01*
X97549166Y-106700500D01*
X97607357Y-106719407D01*
X97619170Y-106729496D01*
X101645169Y-110755496D01*
X101672946Y-110810013D01*
X101663375Y-110870445D01*
X101620110Y-110913710D01*
X101575165Y-110924500D01*
X100235834Y-110924500D01*
X100177643Y-110905593D01*
X100165830Y-110895504D01*
X97988923Y-108718597D01*
X97961146Y-108664080D01*
X97964988Y-108617344D01*
X97970592Y-108600500D01*
X98029351Y-108423863D01*
X98038413Y-108352133D01*
X98054823Y-108222228D01*
X98055171Y-108219474D01*
X98055583Y-108190000D01*
X98051928Y-108152725D01*
X98035952Y-107989780D01*
X98035951Y-107989776D01*
X98035480Y-107984970D01*
X98033187Y-107977373D01*
X97977333Y-107792380D01*
X97975935Y-107787749D01*
X97879218Y-107605849D01*
X97749011Y-107446200D01*
X97700639Y-107406183D01*
X97594002Y-107317965D01*
X97594000Y-107317964D01*
X97590275Y-107314882D01*
X97409055Y-107216897D01*
X97312031Y-107186863D01*
X97216875Y-107157407D01*
X97216871Y-107157406D01*
X97212254Y-107155977D01*
X97207446Y-107155472D01*
X97207443Y-107155471D01*
X97012185Y-107134949D01*
X97012183Y-107134949D01*
X97007369Y-107134443D01*
X96947354Y-107139905D01*
X96807022Y-107152675D01*
X96807017Y-107152676D01*
X96802203Y-107153114D01*
X96604572Y-107211280D01*
X96600288Y-107213519D01*
X96600287Y-107213520D01*
X96589428Y-107219197D01*
X96422002Y-107306726D01*
X96418231Y-107309758D01*
X96265220Y-107432781D01*
X96265217Y-107432783D01*
X96261447Y-107435815D01*
X96258333Y-107439526D01*
X96258332Y-107439527D01*
X96184823Y-107527132D01*
X96129024Y-107593630D01*
X96126689Y-107597878D01*
X96126688Y-107597879D01*
X96122171Y-107606095D01*
X96029776Y-107774162D01*
X96028313Y-107778775D01*
X96028311Y-107778779D01*
X95982569Y-107922978D01*
X95967484Y-107970532D01*
X95966944Y-107975344D01*
X95966944Y-107975345D01*
X95947048Y-108152728D01*
X95944520Y-108175262D01*
X95944925Y-108180082D01*
X95959773Y-108356898D01*
X95961759Y-108380553D01*
X95963092Y-108385201D01*
X95963092Y-108385202D01*
X96015367Y-108567505D01*
X96018544Y-108578586D01*
X96112712Y-108761818D01*
X96240677Y-108923270D01*
X96244357Y-108926402D01*
X96244359Y-108926404D01*
X96330835Y-109000000D01*
X96397564Y-109056791D01*
X96401787Y-109059151D01*
X96401791Y-109059154D01*
X96508707Y-109118907D01*
X96577398Y-109157297D01*
X96581996Y-109158791D01*
X96768724Y-109219463D01*
X96768726Y-109219464D01*
X96773329Y-109220959D01*
X96977894Y-109245351D01*
X96982716Y-109244980D01*
X96982719Y-109244980D01*
X97050541Y-109239761D01*
X97183300Y-109229546D01*
X97381725Y-109174145D01*
X97391521Y-109169197D01*
X97407193Y-109161280D01*
X97412164Y-109158769D01*
X97472629Y-109149408D01*
X97526805Y-109177131D01*
X99605170Y-111255496D01*
X99632947Y-111310013D01*
X99623376Y-111370445D01*
X99580111Y-111413710D01*
X99535166Y-111424500D01*
X98195834Y-111424500D01*
X98137643Y-111405593D01*
X98125830Y-111395504D01*
X97988923Y-111258597D01*
X97961146Y-111204080D01*
X97964988Y-111157344D01*
X97968141Y-111147868D01*
X98015071Y-111006791D01*
X98027824Y-110968454D01*
X98027824Y-110968452D01*
X98029351Y-110963863D01*
X98040400Y-110876404D01*
X98054823Y-110762228D01*
X98055171Y-110759474D01*
X98055583Y-110730000D01*
X98054611Y-110720082D01*
X98035952Y-110529780D01*
X98035951Y-110529776D01*
X98035480Y-110524970D01*
X98030213Y-110507523D01*
X97977333Y-110332380D01*
X97975935Y-110327749D01*
X97879218Y-110145849D01*
X97749011Y-109986200D01*
X97684093Y-109932495D01*
X97594002Y-109857965D01*
X97594000Y-109857964D01*
X97590275Y-109854882D01*
X97409055Y-109756897D01*
X97333394Y-109733476D01*
X97216875Y-109697407D01*
X97216871Y-109697406D01*
X97212254Y-109695977D01*
X97207446Y-109695472D01*
X97207443Y-109695471D01*
X97012185Y-109674949D01*
X97012183Y-109674949D01*
X97007369Y-109674443D01*
X96947354Y-109679905D01*
X96807022Y-109692675D01*
X96807017Y-109692676D01*
X96802203Y-109693114D01*
X96604572Y-109751280D01*
X96600288Y-109753519D01*
X96600287Y-109753520D01*
X96589428Y-109759197D01*
X96422002Y-109846726D01*
X96418231Y-109849758D01*
X96265220Y-109972781D01*
X96265217Y-109972783D01*
X96261447Y-109975815D01*
X96258333Y-109979526D01*
X96258332Y-109979527D01*
X96136046Y-110125262D01*
X96129024Y-110133630D01*
X96126689Y-110137878D01*
X96126688Y-110137879D01*
X96121197Y-110147867D01*
X96029776Y-110314162D01*
X96028313Y-110318775D01*
X96028311Y-110318779D01*
X95994775Y-110424500D01*
X95967484Y-110510532D01*
X95966944Y-110515344D01*
X95966944Y-110515345D01*
X95945390Y-110707508D01*
X95944520Y-110715262D01*
X95944925Y-110720082D01*
X95960503Y-110905593D01*
X95961759Y-110920553D01*
X95963092Y-110925201D01*
X95963092Y-110925202D01*
X96003897Y-111067505D01*
X96018544Y-111118586D01*
X96112712Y-111301818D01*
X96240677Y-111463270D01*
X96244357Y-111466402D01*
X96244359Y-111466404D01*
X96288403Y-111503888D01*
X96397564Y-111596791D01*
X96401787Y-111599151D01*
X96401791Y-111599154D01*
X96488955Y-111647868D01*
X96577398Y-111697297D01*
X96581996Y-111698791D01*
X96768724Y-111759463D01*
X96768726Y-111759464D01*
X96773329Y-111760959D01*
X96977894Y-111785351D01*
X96982716Y-111784980D01*
X96982719Y-111784980D01*
X97050541Y-111779761D01*
X97183300Y-111769546D01*
X97381725Y-111714145D01*
X97412164Y-111698769D01*
X97472629Y-111689408D01*
X97526805Y-111717131D01*
X97739670Y-111929996D01*
X97767447Y-111984513D01*
X97757876Y-112044945D01*
X97739670Y-112070004D01*
X97528556Y-112281118D01*
X97474039Y-112308895D01*
X97418480Y-112299404D01*
X97417777Y-112301076D01*
X97413315Y-112299200D01*
X97409055Y-112296897D01*
X97402177Y-112294768D01*
X97216875Y-112237407D01*
X97216871Y-112237406D01*
X97212254Y-112235977D01*
X97207446Y-112235472D01*
X97207443Y-112235471D01*
X97012185Y-112214949D01*
X97012183Y-112214949D01*
X97007369Y-112214443D01*
X96947354Y-112219905D01*
X96807022Y-112232675D01*
X96807017Y-112232676D01*
X96802203Y-112233114D01*
X96604572Y-112291280D01*
X96600288Y-112293519D01*
X96600287Y-112293520D01*
X96591096Y-112298325D01*
X96422002Y-112386726D01*
X96418231Y-112389758D01*
X96265220Y-112512781D01*
X96265217Y-112512783D01*
X96261447Y-112515815D01*
X96258333Y-112519526D01*
X96258332Y-112519527D01*
X96153965Y-112643907D01*
X96129024Y-112673630D01*
X96029776Y-112854162D01*
X96028313Y-112858775D01*
X96028311Y-112858779D01*
X95995843Y-112961133D01*
X95967484Y-113050532D01*
X95966944Y-113055344D01*
X95966944Y-113055345D01*
X95957101Y-113143103D01*
X95944520Y-113255262D01*
X93400000Y-113255262D01*
X93400000Y-100069748D01*
X95949500Y-100069748D01*
X95951373Y-100079165D01*
X95957896Y-100111955D01*
X95961133Y-100128231D01*
X96005448Y-100194552D01*
X96071769Y-100238867D01*
X96081332Y-100240769D01*
X96081334Y-100240770D01*
X96104005Y-100245279D01*
X96130252Y-100250500D01*
X97549166Y-100250500D01*
X97607357Y-100269407D01*
X97619170Y-100279496D01*
X99245505Y-101905832D01*
X99273282Y-101960349D01*
X99274501Y-101975836D01*
X99274501Y-102106518D01*
X99275110Y-102110361D01*
X99275110Y-102110366D01*
X99280502Y-102144409D01*
X99289354Y-102200304D01*
X99292890Y-102207243D01*
X99341793Y-102303220D01*
X99346950Y-102313342D01*
X99436658Y-102403050D01*
X99443595Y-102406585D01*
X99443597Y-102406586D01*
X99540937Y-102456183D01*
X99549696Y-102460646D01*
X99557390Y-102461865D01*
X99557391Y-102461865D01*
X99639635Y-102474891D01*
X99639637Y-102474891D01*
X99643481Y-102475500D01*
X99682210Y-102475500D01*
X100049165Y-102475499D01*
X100107356Y-102494406D01*
X100119169Y-102504495D01*
X102731262Y-105116589D01*
X102737085Y-105122944D01*
X102762065Y-105152714D01*
X102795739Y-105172156D01*
X102802998Y-105176781D01*
X102825806Y-105192751D01*
X102834836Y-105199074D01*
X102843198Y-105201315D01*
X102848480Y-105203778D01*
X102853974Y-105205777D01*
X102861475Y-105210108D01*
X102899748Y-105216857D01*
X102908176Y-105218726D01*
X102937347Y-105226542D01*
X102937350Y-105226542D01*
X102945713Y-105228783D01*
X102984416Y-105225397D01*
X102993045Y-105225020D01*
X105775646Y-105225020D01*
X105833837Y-105243927D01*
X105869801Y-105293427D01*
X105869801Y-105354613D01*
X105845650Y-105394024D01*
X105757943Y-105481731D01*
X105751576Y-105487565D01*
X105721806Y-105512545D01*
X105717477Y-105520044D01*
X105702373Y-105546205D01*
X105697732Y-105553489D01*
X105675446Y-105585316D01*
X105673985Y-105590770D01*
X105633411Y-105634277D01*
X105621167Y-105639601D01*
X105616874Y-105640281D01*
X105559481Y-105669524D01*
X105503719Y-105697936D01*
X105503717Y-105697937D01*
X105496780Y-105701472D01*
X105401472Y-105796780D01*
X105397937Y-105803717D01*
X105397936Y-105803719D01*
X105349133Y-105899501D01*
X105340281Y-105916874D01*
X105339062Y-105924568D01*
X105339062Y-105924569D01*
X105336968Y-105937793D01*
X105324500Y-106016512D01*
X105324500Y-106583488D01*
X105325109Y-106587332D01*
X105325109Y-106587334D01*
X105336798Y-106661133D01*
X105340281Y-106683126D01*
X105343817Y-106690065D01*
X105343817Y-106690066D01*
X105390321Y-106781334D01*
X105401472Y-106803220D01*
X105496780Y-106898528D01*
X105503717Y-106902063D01*
X105503719Y-106902064D01*
X105609934Y-106956183D01*
X105616874Y-106959719D01*
X105624568Y-106960938D01*
X105624569Y-106960938D01*
X105712666Y-106974891D01*
X105712668Y-106974891D01*
X105716512Y-106975500D01*
X106233488Y-106975500D01*
X106237332Y-106974891D01*
X106237334Y-106974891D01*
X106325431Y-106960938D01*
X106325432Y-106960938D01*
X106333126Y-106959719D01*
X106340066Y-106956183D01*
X106446281Y-106902064D01*
X106446283Y-106902063D01*
X106453220Y-106898528D01*
X106548528Y-106803220D01*
X106559680Y-106781334D01*
X106606183Y-106690066D01*
X106606183Y-106690065D01*
X106609719Y-106683126D01*
X106613203Y-106661133D01*
X106624891Y-106587334D01*
X106624891Y-106587332D01*
X106625500Y-106583488D01*
X106625500Y-106016512D01*
X106613032Y-105937793D01*
X106610938Y-105924569D01*
X106610938Y-105924568D01*
X106609719Y-105916874D01*
X106600867Y-105899501D01*
X106552064Y-105803719D01*
X106552063Y-105803717D01*
X106548528Y-105796780D01*
X106526041Y-105774293D01*
X106498264Y-105719776D01*
X106507835Y-105659344D01*
X106526041Y-105634285D01*
X106906310Y-105254016D01*
X106960827Y-105226239D01*
X106976314Y-105225020D01*
X107438692Y-105225020D01*
X107496883Y-105243927D01*
X107508696Y-105254016D01*
X107998407Y-105743727D01*
X108026184Y-105798244D01*
X108016613Y-105858676D01*
X107973348Y-105901941D01*
X107909089Y-105910829D01*
X107887420Y-105906519D01*
X107852133Y-105899500D01*
X107750022Y-105899500D01*
X107647868Y-105899501D01*
X107567505Y-105915485D01*
X107559395Y-105920904D01*
X107555000Y-105923840D01*
X107496112Y-105940448D01*
X107445000Y-105923840D01*
X107440607Y-105920905D01*
X107440606Y-105920904D01*
X107432495Y-105915485D01*
X107422932Y-105913583D01*
X107422930Y-105913582D01*
X107387420Y-105906519D01*
X107352133Y-105899500D01*
X107250022Y-105899500D01*
X107147868Y-105899501D01*
X107067505Y-105915485D01*
X106976376Y-105976376D01*
X106915485Y-106067505D01*
X106913583Y-106077068D01*
X106913583Y-106077069D01*
X106899500Y-106147867D01*
X106899501Y-107527132D01*
X106915485Y-107607495D01*
X106976376Y-107698624D01*
X107067505Y-107759515D01*
X107077068Y-107761417D01*
X107077070Y-107761418D01*
X107110991Y-107768165D01*
X107147867Y-107775500D01*
X107249978Y-107775500D01*
X107352132Y-107775499D01*
X107432495Y-107759515D01*
X107440606Y-107754095D01*
X107445000Y-107751160D01*
X107503888Y-107734552D01*
X107555000Y-107751160D01*
X107559393Y-107754095D01*
X107559394Y-107754096D01*
X107567505Y-107759515D01*
X107577068Y-107761417D01*
X107577070Y-107761418D01*
X107610991Y-107768165D01*
X107647867Y-107775500D01*
X107749978Y-107775500D01*
X107852132Y-107775499D01*
X107932495Y-107759515D01*
X107940606Y-107754095D01*
X107945000Y-107751160D01*
X108003888Y-107734552D01*
X108055000Y-107751160D01*
X108059393Y-107754095D01*
X108059394Y-107754096D01*
X108067505Y-107759515D01*
X108077068Y-107761417D01*
X108077070Y-107761418D01*
X108110991Y-107768165D01*
X108147867Y-107775500D01*
X108179378Y-107775500D01*
X108325499Y-107775499D01*
X108383690Y-107794406D01*
X108419654Y-107843906D01*
X108424500Y-107874499D01*
X108424500Y-112674166D01*
X108405593Y-112732357D01*
X108395504Y-112744170D01*
X107999702Y-113139972D01*
X107981325Y-113166216D01*
X107970237Y-113179431D01*
X107833001Y-113316667D01*
X107812497Y-113332400D01*
X107787545Y-113346806D01*
X107779077Y-113356898D01*
X107762569Y-113376571D01*
X107756735Y-113382939D01*
X107744170Y-113395504D01*
X107689653Y-113423281D01*
X107674166Y-113424500D01*
X106643981Y-113424500D01*
X106611240Y-113417987D01*
X106607495Y-113415485D01*
X106527133Y-113399500D01*
X105837642Y-113399500D01*
X105147868Y-113399501D01*
X105067505Y-113415485D01*
X104976376Y-113476376D01*
X104915485Y-113567505D01*
X104899500Y-113647867D01*
X104899501Y-113852132D01*
X104915485Y-113932495D01*
X104971676Y-114016590D01*
X104976376Y-114023624D01*
X104975543Y-114024180D01*
X104999082Y-114070379D01*
X104989511Y-114130811D01*
X104971304Y-114155870D01*
X104482942Y-114644231D01*
X104476576Y-114650065D01*
X104446806Y-114675045D01*
X104427373Y-114708705D01*
X104422732Y-114715989D01*
X104400446Y-114747816D01*
X104398204Y-114756184D01*
X104395738Y-114761471D01*
X104393742Y-114766956D01*
X104389412Y-114774455D01*
X104387909Y-114782981D01*
X104387908Y-114782983D01*
X104382666Y-114812716D01*
X104380796Y-114821150D01*
X104370736Y-114858693D01*
X104371491Y-114867322D01*
X104373687Y-114892424D01*
X104359924Y-114952041D01*
X104316585Y-114989714D01*
X104316874Y-114990281D01*
X104311483Y-114993028D01*
X104311480Y-114993029D01*
X104203719Y-115047936D01*
X104203717Y-115047937D01*
X104196780Y-115051472D01*
X104101472Y-115146780D01*
X104097937Y-115153717D01*
X104097936Y-115153719D01*
X104046902Y-115253880D01*
X104040281Y-115266874D01*
X104039062Y-115274568D01*
X104039062Y-115274569D01*
X104027405Y-115348168D01*
X104024500Y-115366512D01*
X104024500Y-115883488D01*
X104025109Y-115887332D01*
X104025109Y-115887334D01*
X104036049Y-115956404D01*
X104040281Y-115983126D01*
X104043817Y-115990065D01*
X104043817Y-115990066D01*
X104089181Y-116079097D01*
X104101472Y-116103220D01*
X104196780Y-116198528D01*
X104203717Y-116202063D01*
X104203719Y-116202064D01*
X104300806Y-116251532D01*
X104316874Y-116259719D01*
X104324568Y-116260938D01*
X104324569Y-116260938D01*
X104412666Y-116274891D01*
X104412668Y-116274891D01*
X104416512Y-116275500D01*
X104983488Y-116275500D01*
X104987332Y-116274891D01*
X104987334Y-116274891D01*
X105075431Y-116260938D01*
X105075432Y-116260938D01*
X105083126Y-116259719D01*
X105099194Y-116251532D01*
X105196281Y-116202064D01*
X105196283Y-116202063D01*
X105203220Y-116198528D01*
X105298528Y-116103220D01*
X105310820Y-116079097D01*
X105356183Y-115990066D01*
X105356183Y-115990065D01*
X105359719Y-115983126D01*
X105363952Y-115956404D01*
X105374891Y-115887334D01*
X105374891Y-115887332D01*
X105375500Y-115883488D01*
X105375500Y-115366512D01*
X105372595Y-115348168D01*
X105360938Y-115274569D01*
X105360938Y-115274568D01*
X105359719Y-115266874D01*
X105353098Y-115253880D01*
X105302064Y-115153719D01*
X105302063Y-115153717D01*
X105298528Y-115146780D01*
X105203220Y-115051472D01*
X105196279Y-115047935D01*
X105196277Y-115047934D01*
X105187588Y-115043506D01*
X105144325Y-115000240D01*
X105134755Y-114939808D01*
X105162532Y-114885294D01*
X105918331Y-114129495D01*
X105972848Y-114101718D01*
X105988335Y-114100499D01*
X106527132Y-114100499D01*
X106607495Y-114084515D01*
X106611241Y-114082012D01*
X106643981Y-114075500D01*
X106988064Y-114075500D01*
X107046255Y-114094407D01*
X107082219Y-114143907D01*
X107082219Y-114205093D01*
X107043066Y-114256815D01*
X106976376Y-114301376D01*
X106915485Y-114392505D01*
X106913583Y-114402068D01*
X106913582Y-114402070D01*
X106908826Y-114425980D01*
X106899500Y-114472867D01*
X106899501Y-115852132D01*
X106915485Y-115932495D01*
X106976376Y-116023624D01*
X107067505Y-116084515D01*
X107077068Y-116086417D01*
X107077070Y-116086418D01*
X107110991Y-116093165D01*
X107147867Y-116100500D01*
X107249978Y-116100500D01*
X107352132Y-116100499D01*
X107432495Y-116084515D01*
X107440606Y-116079095D01*
X107445000Y-116076160D01*
X107503888Y-116059552D01*
X107555000Y-116076160D01*
X107559393Y-116079095D01*
X107559394Y-116079096D01*
X107567505Y-116084515D01*
X107577068Y-116086417D01*
X107577070Y-116086418D01*
X107610991Y-116093165D01*
X107647867Y-116100500D01*
X107749978Y-116100500D01*
X107852132Y-116100499D01*
X107932495Y-116084515D01*
X107940606Y-116079095D01*
X107945000Y-116076160D01*
X108003888Y-116059552D01*
X108055000Y-116076160D01*
X108059393Y-116079095D01*
X108059394Y-116079096D01*
X108067505Y-116084515D01*
X108077068Y-116086417D01*
X108077070Y-116086418D01*
X108110991Y-116093165D01*
X108147867Y-116100500D01*
X108249978Y-116100500D01*
X108352132Y-116100499D01*
X108432495Y-116084515D01*
X108440606Y-116079095D01*
X108445000Y-116076160D01*
X108503888Y-116059552D01*
X108555000Y-116076160D01*
X108559393Y-116079095D01*
X108559394Y-116079096D01*
X108567505Y-116084515D01*
X108577068Y-116086417D01*
X108577070Y-116086418D01*
X108610991Y-116093165D01*
X108647867Y-116100500D01*
X108749978Y-116100500D01*
X108852132Y-116100499D01*
X108932495Y-116084515D01*
X108940606Y-116079095D01*
X108945000Y-116076160D01*
X109003888Y-116059552D01*
X109055000Y-116076160D01*
X109059393Y-116079095D01*
X109059394Y-116079096D01*
X109067505Y-116084515D01*
X109077068Y-116086417D01*
X109077070Y-116086418D01*
X109110991Y-116093165D01*
X109147867Y-116100500D01*
X109249978Y-116100500D01*
X109352132Y-116100499D01*
X109432495Y-116084515D01*
X109440606Y-116079095D01*
X109445000Y-116076160D01*
X109503888Y-116059552D01*
X109555000Y-116076160D01*
X109559393Y-116079095D01*
X109559394Y-116079096D01*
X109567505Y-116084515D01*
X109577068Y-116086417D01*
X109577070Y-116086418D01*
X109610991Y-116093165D01*
X109647867Y-116100500D01*
X109749978Y-116100500D01*
X109852132Y-116100499D01*
X109932495Y-116084515D01*
X109940606Y-116079095D01*
X109945000Y-116076160D01*
X110003888Y-116059552D01*
X110055000Y-116076160D01*
X110059393Y-116079095D01*
X110059394Y-116079096D01*
X110067505Y-116084515D01*
X110077068Y-116086417D01*
X110077070Y-116086418D01*
X110110991Y-116093165D01*
X110147867Y-116100500D01*
X110249926Y-116100500D01*
X110352132Y-116100499D01*
X110356061Y-116099718D01*
X110415558Y-116112770D01*
X110456202Y-116158505D01*
X110464500Y-116198182D01*
X110464499Y-116989634D01*
X110464499Y-117769521D01*
X110445592Y-117827712D01*
X110435503Y-117839525D01*
X110304524Y-117970504D01*
X110250007Y-117998281D01*
X110234520Y-117999500D01*
X109835286Y-117999501D01*
X109793482Y-117999501D01*
X109789639Y-118000110D01*
X109789634Y-118000110D01*
X109752783Y-118005947D01*
X109699696Y-118014354D01*
X109654360Y-118037454D01*
X109593597Y-118068414D01*
X109593595Y-118068415D01*
X109586658Y-118071950D01*
X109496950Y-118161658D01*
X109493415Y-118168595D01*
X109493414Y-118168597D01*
X109453307Y-118247311D01*
X109439354Y-118274696D01*
X109438135Y-118282390D01*
X109438135Y-118282391D01*
X109427427Y-118350000D01*
X109424500Y-118368481D01*
X109424501Y-118831518D01*
X109439354Y-118925304D01*
X109454108Y-118954260D01*
X109490942Y-119026550D01*
X109496950Y-119038342D01*
X109586658Y-119128050D01*
X109593595Y-119131585D01*
X109593597Y-119131586D01*
X109692756Y-119182110D01*
X109699696Y-119185646D01*
X109707390Y-119186865D01*
X109707391Y-119186865D01*
X109789635Y-119199891D01*
X109789637Y-119199891D01*
X109793481Y-119200500D01*
X110099960Y-119200500D01*
X110406518Y-119200499D01*
X110410361Y-119199890D01*
X110410366Y-119199890D01*
X110447217Y-119194053D01*
X110500304Y-119185646D01*
X110569282Y-119150500D01*
X110606403Y-119131586D01*
X110606405Y-119131585D01*
X110613342Y-119128050D01*
X110703050Y-119038342D01*
X110709059Y-119026550D01*
X110757110Y-118932244D01*
X110757110Y-118932243D01*
X110760646Y-118925304D01*
X110762967Y-118910654D01*
X110774891Y-118835365D01*
X110774891Y-118835363D01*
X110775500Y-118831519D01*
X110775499Y-118390480D01*
X110794406Y-118332289D01*
X110804495Y-118320476D01*
X110919996Y-118204975D01*
X110974513Y-118177198D01*
X111034945Y-118186769D01*
X111060004Y-118204975D01*
X111060932Y-118205903D01*
X111088709Y-118260420D01*
X111088709Y-118291394D01*
X111079427Y-118350000D01*
X111076500Y-118368481D01*
X111076501Y-118831518D01*
X111091354Y-118925304D01*
X111106108Y-118954260D01*
X111142942Y-119026550D01*
X111148950Y-119038342D01*
X111238658Y-119128050D01*
X111245595Y-119131585D01*
X111245597Y-119131586D01*
X111344756Y-119182110D01*
X111351696Y-119185646D01*
X111359390Y-119186865D01*
X111359391Y-119186865D01*
X111441635Y-119199891D01*
X111441637Y-119199891D01*
X111445481Y-119200500D01*
X111751960Y-119200500D01*
X112058518Y-119200499D01*
X112062361Y-119199890D01*
X112062366Y-119199890D01*
X112099217Y-119194053D01*
X112152304Y-119185646D01*
X112221282Y-119150500D01*
X112258403Y-119131586D01*
X112258405Y-119131585D01*
X112265342Y-119128050D01*
X112355050Y-119038342D01*
X112361059Y-119026550D01*
X112409110Y-118932244D01*
X112409110Y-118932243D01*
X112412646Y-118925304D01*
X112414967Y-118910654D01*
X112426891Y-118835365D01*
X112426891Y-118835363D01*
X112427500Y-118831519D01*
X112427499Y-118368482D01*
X112424024Y-118346536D01*
X112418375Y-118310873D01*
X112412646Y-118274696D01*
X112375068Y-118200946D01*
X112358586Y-118168597D01*
X112358585Y-118168595D01*
X112355050Y-118161658D01*
X112265342Y-118071950D01*
X112258405Y-118068415D01*
X112258403Y-118068414D01*
X112159244Y-118017890D01*
X112159243Y-118017890D01*
X112152304Y-118014354D01*
X112144610Y-118013135D01*
X112144609Y-118013135D01*
X112062365Y-118000109D01*
X112062363Y-118000109D01*
X112058519Y-117999500D01*
X112027822Y-117999500D01*
X111745480Y-117999501D01*
X111687290Y-117980594D01*
X111675476Y-117970505D01*
X111544497Y-117839526D01*
X111516720Y-117785009D01*
X111515501Y-117769522D01*
X111515501Y-116989634D01*
X111515500Y-116194803D01*
X111534407Y-116136612D01*
X111583907Y-116100648D01*
X111633812Y-116097705D01*
X111643098Y-116099552D01*
X111643104Y-116099553D01*
X111647867Y-116100500D01*
X111749978Y-116100500D01*
X111852132Y-116100499D01*
X111932495Y-116084515D01*
X112023624Y-116023624D01*
X112084515Y-115932495D01*
X112086417Y-115922932D01*
X112086418Y-115922930D01*
X112099552Y-115856897D01*
X112100500Y-115852133D01*
X112100499Y-114524980D01*
X112119406Y-114466789D01*
X112168906Y-114430825D01*
X112199499Y-114425980D01*
X112300500Y-114425980D01*
X112358691Y-114444887D01*
X112394655Y-114494387D01*
X112399500Y-114524980D01*
X112399501Y-115200454D01*
X112399501Y-115852132D01*
X112415485Y-115932495D01*
X112476376Y-116023624D01*
X112567505Y-116084515D01*
X112577068Y-116086417D01*
X112577070Y-116086418D01*
X112610991Y-116093165D01*
X112647867Y-116100500D01*
X112652725Y-116100500D01*
X112852132Y-116100499D01*
X112852132Y-116102350D01*
X112904568Y-116113860D01*
X112945206Y-116159601D01*
X112953500Y-116199266D01*
X112953500Y-117979263D01*
X112934593Y-118037454D01*
X112903826Y-118063731D01*
X112903901Y-118063835D01*
X112902584Y-118064792D01*
X112899447Y-118067471D01*
X112897603Y-118068411D01*
X112897602Y-118068412D01*
X112890658Y-118071950D01*
X112800950Y-118161658D01*
X112797415Y-118168595D01*
X112797414Y-118168597D01*
X112757307Y-118247311D01*
X112743354Y-118274696D01*
X112742135Y-118282390D01*
X112742135Y-118282391D01*
X112731427Y-118350000D01*
X112728500Y-118368481D01*
X112728501Y-118831518D01*
X112743354Y-118925304D01*
X112758108Y-118954260D01*
X112794942Y-119026550D01*
X112800950Y-119038342D01*
X112890658Y-119128050D01*
X112897595Y-119131585D01*
X112897597Y-119131586D01*
X112996756Y-119182110D01*
X113003696Y-119185646D01*
X113011390Y-119186865D01*
X113011391Y-119186865D01*
X113093635Y-119199891D01*
X113093637Y-119199891D01*
X113097481Y-119200500D01*
X113403960Y-119200500D01*
X113710518Y-119200499D01*
X113714361Y-119199890D01*
X113714366Y-119199890D01*
X113751217Y-119194053D01*
X113804304Y-119185646D01*
X113873282Y-119150500D01*
X113910403Y-119131586D01*
X113910405Y-119131585D01*
X113917342Y-119128050D01*
X113965896Y-119079496D01*
X114020413Y-119051719D01*
X114035900Y-119050500D01*
X114357204Y-119050500D01*
X114415395Y-119069407D01*
X114445414Y-119104555D01*
X114450443Y-119114424D01*
X114457472Y-119128220D01*
X114552780Y-119223528D01*
X114559717Y-119227063D01*
X114559719Y-119227064D01*
X114591861Y-119243441D01*
X114672874Y-119284719D01*
X114680568Y-119285938D01*
X114680569Y-119285938D01*
X114768666Y-119299891D01*
X114768668Y-119299891D01*
X114772512Y-119300500D01*
X115339488Y-119300500D01*
X115343332Y-119299891D01*
X115343334Y-119299891D01*
X115431431Y-119285938D01*
X115431432Y-119285938D01*
X115439126Y-119284719D01*
X115520139Y-119243441D01*
X115552281Y-119227064D01*
X115552283Y-119227063D01*
X115559220Y-119223528D01*
X115654528Y-119128220D01*
X115661558Y-119114424D01*
X115712183Y-119015066D01*
X115712183Y-119015065D01*
X115715719Y-119008126D01*
X115718751Y-118988986D01*
X115728943Y-118924632D01*
X115746329Y-118885303D01*
X115745556Y-118884854D01*
X115813596Y-118767713D01*
X115814838Y-118762354D01*
X115853254Y-118715913D01*
X115906304Y-118700500D01*
X116029976Y-118700500D01*
X116088167Y-118719407D01*
X116124131Y-118768907D01*
X116126675Y-118778281D01*
X116126914Y-118779370D01*
X116127481Y-118785369D01*
X116129477Y-118791053D01*
X116129478Y-118791057D01*
X116148375Y-118844868D01*
X116172366Y-118913184D01*
X116176761Y-118919135D01*
X116176762Y-118919136D01*
X116229106Y-118990004D01*
X116252850Y-119022150D01*
X116258807Y-119026550D01*
X116291233Y-119050500D01*
X116361816Y-119102634D01*
X116489631Y-119147519D01*
X116495638Y-119148087D01*
X116495639Y-119148087D01*
X116518855Y-119150282D01*
X116518865Y-119150282D01*
X116521166Y-119150500D01*
X117478834Y-119150500D01*
X117481135Y-119150282D01*
X117481145Y-119150282D01*
X117504361Y-119148087D01*
X117504362Y-119148087D01*
X117510369Y-119147519D01*
X117638184Y-119102634D01*
X117708768Y-119050500D01*
X117741193Y-119026550D01*
X117747150Y-119022150D01*
X117770894Y-118990004D01*
X117823238Y-118919136D01*
X117823239Y-118919135D01*
X117827634Y-118913184D01*
X117872519Y-118785369D01*
X117875500Y-118753834D01*
X117875500Y-118080611D01*
X117894407Y-118022420D01*
X117904496Y-118010607D01*
X118095451Y-117819652D01*
X118149968Y-117791875D01*
X118210400Y-117801446D01*
X118253665Y-117844711D01*
X118262374Y-117909847D01*
X118049375Y-118932244D01*
X118037342Y-118990004D01*
X118030464Y-119031594D01*
X118027914Y-119052325D01*
X118024509Y-119094316D01*
X118039428Y-119238136D01*
X118056729Y-119306993D01*
X118058068Y-119310260D01*
X118097042Y-119405351D01*
X118111568Y-119440794D01*
X118115988Y-119446321D01*
X118115990Y-119446324D01*
X118161372Y-119503069D01*
X118201876Y-119553715D01*
X118204445Y-119556124D01*
X118204448Y-119556128D01*
X118251083Y-119599871D01*
X118253658Y-119602286D01*
X118372116Y-119685188D01*
X118378824Y-119687448D01*
X118378825Y-119687449D01*
X118505792Y-119730234D01*
X118505794Y-119730235D01*
X118509137Y-119731361D01*
X118578958Y-119744227D01*
X118701268Y-119749050D01*
X118701201Y-119750758D01*
X118701268Y-119750755D01*
X118701268Y-119749500D01*
X118710722Y-119749500D01*
X118714623Y-119749577D01*
X118719916Y-119749786D01*
X118719919Y-119749786D01*
X118723447Y-119749925D01*
X118726964Y-119749560D01*
X118727248Y-119749551D01*
X118730416Y-119749500D01*
X119267722Y-119749500D01*
X119277804Y-119750015D01*
X119281861Y-119750431D01*
X119302927Y-119754948D01*
X119364877Y-119775496D01*
X119364889Y-119775500D01*
X119365906Y-119775837D01*
X119366937Y-119776129D01*
X119366947Y-119776132D01*
X119408189Y-119787810D01*
X119408201Y-119787813D01*
X119409246Y-119788109D01*
X119430981Y-119793234D01*
X119432054Y-119793437D01*
X119432053Y-119793437D01*
X119470715Y-119800759D01*
X119470717Y-119800759D01*
X119475273Y-119801622D01*
X119619865Y-119801622D01*
X119667843Y-119794724D01*
X119686642Y-119792021D01*
X119686645Y-119792020D01*
X119690139Y-119791518D01*
X119828872Y-119750782D01*
X119950510Y-119672610D01*
X119965497Y-119659624D01*
X120001494Y-119628433D01*
X120001499Y-119628428D01*
X120004166Y-119626117D01*
X120006479Y-119623448D01*
X120094219Y-119522192D01*
X120094221Y-119522189D01*
X120098855Y-119516841D01*
X120133585Y-119440794D01*
X120157455Y-119388526D01*
X120157457Y-119388521D01*
X120158921Y-119385315D01*
X120178923Y-119317194D01*
X120199500Y-119174075D01*
X120199500Y-118910654D01*
X120199805Y-118902886D01*
X120209077Y-118785078D01*
X120211507Y-118769735D01*
X120248307Y-118616450D01*
X120253108Y-118601675D01*
X120258585Y-118588454D01*
X120313434Y-118456036D01*
X120320483Y-118442201D01*
X120402861Y-118307772D01*
X120411975Y-118295228D01*
X120514366Y-118175344D01*
X120525347Y-118164363D01*
X120645228Y-118061975D01*
X120657772Y-118052861D01*
X120792201Y-117970483D01*
X120806037Y-117963434D01*
X120951680Y-117903107D01*
X120966452Y-117898307D01*
X120976113Y-117895987D01*
X121004616Y-117889144D01*
X121004623Y-117889143D01*
X121119735Y-117861507D01*
X121135078Y-117859077D01*
X121213655Y-117852892D01*
X121292237Y-117846708D01*
X121307763Y-117846708D01*
X121386345Y-117852892D01*
X121464922Y-117859077D01*
X121480265Y-117861507D01*
X121595377Y-117889143D01*
X121595384Y-117889144D01*
X121623887Y-117895987D01*
X121633548Y-117898307D01*
X121648320Y-117903107D01*
X121793963Y-117963434D01*
X121807799Y-117970483D01*
X121942228Y-118052861D01*
X121954772Y-118061975D01*
X122110978Y-118195388D01*
X122111531Y-118194740D01*
X122121245Y-118200946D01*
X122144161Y-118222045D01*
X122146342Y-118224053D01*
X122178633Y-118247311D01*
X122180349Y-118248348D01*
X122180352Y-118248350D01*
X122243900Y-118286754D01*
X122248641Y-118289619D01*
X122283390Y-118301142D01*
X122381661Y-118333730D01*
X122430943Y-118369992D01*
X122449500Y-118427698D01*
X122449500Y-119814672D01*
X122435486Y-119865449D01*
X122432048Y-119871202D01*
X122432043Y-119871214D01*
X122429195Y-119875980D01*
X122427478Y-119881266D01*
X122427477Y-119881267D01*
X122411491Y-119930468D01*
X122410288Y-119934171D01*
X122400500Y-119995973D01*
X122400500Y-120293736D01*
X122400123Y-120302365D01*
X122391826Y-120397199D01*
X122388676Y-120433200D01*
X122385680Y-120450194D01*
X122341491Y-120615112D01*
X122340323Y-120619470D01*
X122334423Y-120635678D01*
X122260361Y-120794505D01*
X122251736Y-120809443D01*
X122189766Y-120897949D01*
X122189764Y-120897951D01*
X122151223Y-120952993D01*
X122140131Y-120966213D01*
X122016215Y-121090129D01*
X122002995Y-121101221D01*
X121859443Y-121201736D01*
X121844499Y-121210364D01*
X121685673Y-121284425D01*
X121669475Y-121290321D01*
X121662524Y-121292184D01*
X121619412Y-121303736D01*
X121500195Y-121335680D01*
X121483200Y-121338676D01*
X121308628Y-121353949D01*
X121291372Y-121353949D01*
X121116799Y-121338676D01*
X121099804Y-121335680D01*
X120937475Y-121292184D01*
X120930533Y-121290324D01*
X120914319Y-121284422D01*
X120755501Y-121210364D01*
X120740557Y-121201736D01*
X120597005Y-121101221D01*
X120583785Y-121090129D01*
X120459871Y-120966215D01*
X120448778Y-120952994D01*
X120410238Y-120897952D01*
X120410236Y-120897950D01*
X120348267Y-120809449D01*
X120339639Y-120794505D01*
X120273376Y-120652404D01*
X120273367Y-120652385D01*
X120272954Y-120651500D01*
X120272510Y-120650639D01*
X120272498Y-120650615D01*
X120266069Y-120638156D01*
X120265623Y-120637291D01*
X120264713Y-120635687D01*
X120260224Y-120627780D01*
X120257816Y-120623538D01*
X120250525Y-120615112D01*
X120209762Y-120568009D01*
X120206567Y-120564317D01*
X120192108Y-120553087D01*
X120160003Y-120528151D01*
X120159997Y-120528147D01*
X120158245Y-120526786D01*
X120128069Y-120507418D01*
X120068390Y-120491770D01*
X120047346Y-120486252D01*
X120047343Y-120486252D01*
X120041971Y-120484843D01*
X119980817Y-120482883D01*
X119976959Y-120483368D01*
X119976957Y-120483368D01*
X119922588Y-120490202D01*
X119922586Y-120490202D01*
X119918731Y-120490687D01*
X119173430Y-120706716D01*
X117891259Y-121078360D01*
X117831990Y-121106786D01*
X117779459Y-121143680D01*
X117749847Y-121169135D01*
X117745748Y-121175996D01*
X117745747Y-121175997D01*
X117733394Y-121196673D01*
X117704195Y-121245545D01*
X117702480Y-121250824D01*
X117702478Y-121250828D01*
X117686491Y-121300033D01*
X117685288Y-121303736D01*
X117684679Y-121307580D01*
X117684678Y-121307585D01*
X117677216Y-121354704D01*
X117675500Y-121365538D01*
X117675500Y-121425905D01*
X117669908Y-121458707D01*
X117653826Y-121504503D01*
X117640054Y-121530514D01*
X117612978Y-121567172D01*
X117592167Y-121587982D01*
X117555517Y-121615052D01*
X117529502Y-121628827D01*
X117503460Y-121637972D01*
X117503456Y-121637974D01*
X117499930Y-121639212D01*
X117446744Y-121667505D01*
X117399454Y-121702721D01*
X117374347Y-121724918D01*
X117328695Y-121801328D01*
X117309788Y-121859519D01*
X117300000Y-121921321D01*
X117300000Y-124407763D01*
X117303118Y-124442942D01*
X117309244Y-124477227D01*
X117349089Y-124565900D01*
X117352858Y-124570678D01*
X117352858Y-124570679D01*
X117372001Y-124594951D01*
X117378093Y-124603586D01*
X117384325Y-124613504D01*
X117399500Y-124666176D01*
X117399500Y-125619096D01*
X117380593Y-125677287D01*
X117331093Y-125713251D01*
X117313424Y-125717249D01*
X117259764Y-125724313D01*
X117253767Y-125726797D01*
X117125760Y-125779819D01*
X117125756Y-125779821D01*
X117119767Y-125782302D01*
X117114625Y-125786248D01*
X117114621Y-125786250D01*
X117004698Y-125870598D01*
X116999549Y-125874549D01*
X116995598Y-125879698D01*
X116911250Y-125989621D01*
X116911248Y-125989625D01*
X116907302Y-125994767D01*
X116904821Y-126000756D01*
X116904819Y-126000760D01*
X116853405Y-126124885D01*
X116849313Y-126134764D01*
X116836780Y-126229964D01*
X116831148Y-126272744D01*
X116829534Y-126285000D01*
X116849313Y-126435236D01*
X116851797Y-126441233D01*
X116904819Y-126569240D01*
X116904821Y-126569244D01*
X116907302Y-126575233D01*
X116911248Y-126580375D01*
X116911250Y-126580379D01*
X116930404Y-126605340D01*
X116999549Y-126695451D01*
X117004698Y-126699402D01*
X117114621Y-126783750D01*
X117114625Y-126783752D01*
X117119767Y-126787698D01*
X117125756Y-126790179D01*
X117125760Y-126790181D01*
X117253767Y-126843203D01*
X117259764Y-126845687D01*
X117372280Y-126860500D01*
X117447720Y-126860500D01*
X117560236Y-126845687D01*
X117566233Y-126843203D01*
X117694240Y-126790181D01*
X117694244Y-126790179D01*
X117700233Y-126787698D01*
X117705375Y-126783752D01*
X117705379Y-126783750D01*
X117815302Y-126699402D01*
X117820451Y-126695451D01*
X117889596Y-126605340D01*
X117908750Y-126580379D01*
X117908752Y-126580375D01*
X117912698Y-126575233D01*
X117915179Y-126569244D01*
X117915181Y-126569240D01*
X117968203Y-126441233D01*
X117970687Y-126435236D01*
X117990324Y-126286078D01*
X118016665Y-126230853D01*
X118070436Y-126201658D01*
X118088477Y-126200000D01*
X118121680Y-126200000D01*
X118124367Y-126199947D01*
X118129077Y-126199855D01*
X118129100Y-126199854D01*
X118129524Y-126199846D01*
X118129934Y-126199830D01*
X118129965Y-126199829D01*
X118132923Y-126199713D01*
X118132928Y-126199712D01*
X118137295Y-126199541D01*
X118205995Y-126184468D01*
X118262522Y-126161051D01*
X118294284Y-126144414D01*
X118326167Y-126111805D01*
X118352619Y-126084751D01*
X118352621Y-126084749D01*
X118356510Y-126080771D01*
X118385919Y-126032776D01*
X118432443Y-125993037D01*
X118470332Y-125985500D01*
X118719748Y-125985500D01*
X118778231Y-125973867D01*
X118778887Y-125977164D01*
X118821664Y-125973797D01*
X118821769Y-125973867D01*
X118880252Y-125985500D01*
X119219748Y-125985500D01*
X119278231Y-125973867D01*
X119278887Y-125977164D01*
X119321664Y-125973797D01*
X119321769Y-125973867D01*
X119380252Y-125985500D01*
X119719748Y-125985500D01*
X119778231Y-125973867D01*
X119778887Y-125977164D01*
X119821664Y-125973797D01*
X119821769Y-125973867D01*
X119880252Y-125985500D01*
X120219748Y-125985500D01*
X120278231Y-125973867D01*
X120278887Y-125977164D01*
X120321664Y-125973797D01*
X120321769Y-125973867D01*
X120380252Y-125985500D01*
X120719748Y-125985500D01*
X120778231Y-125973867D01*
X120778887Y-125977164D01*
X120821664Y-125973797D01*
X120821769Y-125973867D01*
X120880252Y-125985500D01*
X121219748Y-125985500D01*
X121278231Y-125973867D01*
X121278887Y-125977164D01*
X121321664Y-125973797D01*
X121321769Y-125973867D01*
X121380252Y-125985500D01*
X121719748Y-125985500D01*
X121778231Y-125973867D01*
X121778887Y-125977164D01*
X121821664Y-125973797D01*
X121821769Y-125973867D01*
X121880252Y-125985500D01*
X122129807Y-125985500D01*
X122187998Y-126004407D01*
X122216275Y-126039862D01*
X122217434Y-126039204D01*
X122220177Y-126044039D01*
X122222362Y-126049150D01*
X122258326Y-126098650D01*
X122281917Y-126125653D01*
X122288604Y-126129648D01*
X122288605Y-126129649D01*
X122297714Y-126135091D01*
X122358327Y-126171305D01*
X122363606Y-126173020D01*
X122363610Y-126173022D01*
X122412443Y-126188888D01*
X122416518Y-126190212D01*
X122420362Y-126190821D01*
X122420367Y-126190822D01*
X122474472Y-126199391D01*
X122474477Y-126199391D01*
X122478320Y-126200000D01*
X122511523Y-126200000D01*
X122569714Y-126218907D01*
X122605678Y-126268407D01*
X122609676Y-126286077D01*
X122629313Y-126435236D01*
X122631797Y-126441233D01*
X122684819Y-126569240D01*
X122684821Y-126569244D01*
X122687302Y-126575233D01*
X122691248Y-126580375D01*
X122691250Y-126580379D01*
X122710404Y-126605340D01*
X122779549Y-126695451D01*
X122784698Y-126699402D01*
X122894621Y-126783750D01*
X122894625Y-126783752D01*
X122899767Y-126787698D01*
X122905756Y-126790179D01*
X122905760Y-126790181D01*
X123033767Y-126843203D01*
X123039764Y-126845687D01*
X123152280Y-126860500D01*
X123227720Y-126860500D01*
X123340236Y-126845687D01*
X123346233Y-126843203D01*
X123474240Y-126790181D01*
X123474244Y-126790179D01*
X123480233Y-126787698D01*
X123485375Y-126783752D01*
X123485379Y-126783750D01*
X123595302Y-126699402D01*
X123600451Y-126695451D01*
X123669596Y-126605340D01*
X123688750Y-126580379D01*
X123688752Y-126580375D01*
X123692698Y-126575233D01*
X123695179Y-126569244D01*
X123695181Y-126569240D01*
X123748203Y-126441233D01*
X123750687Y-126435236D01*
X123770466Y-126285000D01*
X123768853Y-126272744D01*
X123763220Y-126229964D01*
X123750687Y-126134764D01*
X123746595Y-126124885D01*
X123695181Y-126000760D01*
X123695179Y-126000756D01*
X123692698Y-125994767D01*
X123688752Y-125989625D01*
X123688750Y-125989621D01*
X123604402Y-125879698D01*
X123600451Y-125874549D01*
X123595302Y-125870598D01*
X123485379Y-125786250D01*
X123485375Y-125786248D01*
X123480233Y-125782302D01*
X123474244Y-125779821D01*
X123474240Y-125779819D01*
X123346233Y-125726797D01*
X123340236Y-125724313D01*
X123286577Y-125717249D01*
X123231353Y-125690908D01*
X123202158Y-125637138D01*
X123200500Y-125619096D01*
X123200500Y-124668459D01*
X123222099Y-124606733D01*
X123234588Y-124591073D01*
X123234589Y-124591070D01*
X123239795Y-124584543D01*
X123242553Y-124576662D01*
X123246222Y-124570023D01*
X123250827Y-124560443D01*
X123268074Y-124532915D01*
X123268077Y-124532909D01*
X123271305Y-124527756D01*
X123290212Y-124469565D01*
X123290822Y-124465716D01*
X123299391Y-124411611D01*
X123299391Y-124411606D01*
X123300000Y-124407763D01*
X123300000Y-122399000D01*
X123318907Y-122340809D01*
X123368407Y-122304845D01*
X123399000Y-122300000D01*
X124397266Y-122300000D01*
X124424904Y-122297567D01*
X124430033Y-122297116D01*
X124430035Y-122297116D01*
X124432202Y-122296925D01*
X124466259Y-122290883D01*
X124471801Y-122288405D01*
X124549251Y-122253775D01*
X124549253Y-122253774D01*
X124554790Y-122251298D01*
X124559559Y-122247556D01*
X124559562Y-122247554D01*
X124585220Y-122227419D01*
X124602925Y-122213526D01*
X124604538Y-122212008D01*
X124623361Y-122194292D01*
X124623363Y-122194290D01*
X124629034Y-122188952D01*
X124671827Y-122110906D01*
X124688567Y-122052056D01*
X124696061Y-121989935D01*
X124693246Y-121913920D01*
X124693246Y-121913918D01*
X124676821Y-121470454D01*
X124672935Y-121365538D01*
X124670862Y-121309567D01*
X124687602Y-121250717D01*
X124735737Y-121212945D01*
X124777379Y-121208600D01*
X124777476Y-121207244D01*
X124780991Y-121207495D01*
X124784500Y-121208000D01*
X125974000Y-121208000D01*
X126081980Y-121196391D01*
X126134322Y-121185005D01*
X126237372Y-121150707D01*
X126242577Y-121147362D01*
X126242579Y-121147361D01*
X126288879Y-121117605D01*
X126359010Y-121072535D01*
X126374476Y-121059134D01*
X126409994Y-121028358D01*
X126409999Y-121028353D01*
X126412666Y-121026042D01*
X126414979Y-121023373D01*
X126502719Y-120922117D01*
X126502721Y-120922114D01*
X126507355Y-120916766D01*
X126561454Y-120798306D01*
X126602827Y-120753228D01*
X126662793Y-120741077D01*
X126718449Y-120766495D01*
X126726674Y-120775004D01*
X126737863Y-120788058D01*
X126737871Y-120788065D01*
X126741136Y-120791875D01*
X126759076Y-120805791D01*
X126889754Y-120907156D01*
X126889759Y-120907159D01*
X126893714Y-120910227D01*
X127066974Y-120995481D01*
X127155630Y-121018574D01*
X127248979Y-121042890D01*
X127248983Y-121042891D01*
X127253837Y-121044155D01*
X127258849Y-121044418D01*
X127258851Y-121044418D01*
X127326778Y-121047978D01*
X127446671Y-121054261D01*
X127451630Y-121053511D01*
X127451631Y-121053511D01*
X127513494Y-121044155D01*
X127637599Y-121025386D01*
X127818821Y-120958710D01*
X127823079Y-120956070D01*
X127823081Y-120956069D01*
X127978670Y-120859599D01*
X127978671Y-120859598D01*
X127982934Y-120856955D01*
X128123235Y-120724279D01*
X128126109Y-120720174D01*
X128126112Y-120720171D01*
X128231116Y-120570208D01*
X128233991Y-120566102D01*
X128236074Y-120561290D01*
X128308691Y-120393481D01*
X128310680Y-120388885D01*
X128350168Y-120199867D01*
X128350500Y-120193532D01*
X128350500Y-119051741D01*
X128344126Y-118988986D01*
X128336395Y-118912877D01*
X128336394Y-118912873D01*
X128335888Y-118907890D01*
X128286882Y-118751509D01*
X128279643Y-118728410D01*
X128279643Y-118728409D01*
X128278144Y-118723627D01*
X128184528Y-118554739D01*
X128088066Y-118442195D01*
X128062130Y-118411935D01*
X128062128Y-118411933D01*
X128058864Y-118408125D01*
X128032213Y-118387453D01*
X127910246Y-118292844D01*
X127910241Y-118292841D01*
X127906286Y-118289773D01*
X127733026Y-118204519D01*
X127618219Y-118174614D01*
X127551021Y-118157110D01*
X127551017Y-118157109D01*
X127546163Y-118155845D01*
X127541151Y-118155582D01*
X127541149Y-118155582D01*
X127473222Y-118152022D01*
X127353329Y-118145739D01*
X127348370Y-118146489D01*
X127348369Y-118146489D01*
X127328460Y-118149500D01*
X127162401Y-118174614D01*
X126981179Y-118241290D01*
X126976921Y-118243930D01*
X126976919Y-118243931D01*
X126821330Y-118340401D01*
X126817066Y-118343045D01*
X126813422Y-118346491D01*
X126775022Y-118382804D01*
X126719751Y-118409048D01*
X126659609Y-118397793D01*
X126617570Y-118353338D01*
X126608000Y-118310873D01*
X126608000Y-113704111D01*
X126626907Y-113645920D01*
X126676407Y-113609956D01*
X126737593Y-113609956D01*
X126777004Y-113634107D01*
X127967293Y-114824396D01*
X127995070Y-114878913D01*
X127991655Y-114924334D01*
X127982866Y-114952041D01*
X127967484Y-115000532D01*
X127966944Y-115005344D01*
X127966944Y-115005345D01*
X127948504Y-115169748D01*
X127944520Y-115205262D01*
X127949111Y-115259934D01*
X127958388Y-115370405D01*
X127961759Y-115410553D01*
X127963092Y-115415201D01*
X127963092Y-115415202D01*
X128015233Y-115597038D01*
X128018544Y-115608586D01*
X128112712Y-115791818D01*
X128240677Y-115953270D01*
X128244357Y-115956402D01*
X128244359Y-115956404D01*
X128317731Y-116018848D01*
X128397564Y-116086791D01*
X128401787Y-116089151D01*
X128401791Y-116089154D01*
X128445248Y-116113441D01*
X128577398Y-116187297D01*
X128581996Y-116188791D01*
X128768724Y-116249463D01*
X128768726Y-116249464D01*
X128773329Y-116250959D01*
X128977894Y-116275351D01*
X128982716Y-116274980D01*
X128982719Y-116274980D01*
X129050541Y-116269761D01*
X129183300Y-116259546D01*
X129381725Y-116204145D01*
X129386038Y-116201966D01*
X129386044Y-116201964D01*
X129561289Y-116113441D01*
X129561291Y-116113440D01*
X129565610Y-116111258D01*
X129580593Y-116099552D01*
X129724135Y-115987406D01*
X129724139Y-115987402D01*
X129727951Y-115984424D01*
X129735714Y-115975431D01*
X129818436Y-115879595D01*
X129862564Y-115828472D01*
X129881231Y-115795613D01*
X129961934Y-115653550D01*
X129961935Y-115653547D01*
X129964323Y-115649344D01*
X129968554Y-115636627D01*
X130027824Y-115458454D01*
X130027824Y-115458452D01*
X130029351Y-115453863D01*
X130031904Y-115433659D01*
X130054823Y-115252228D01*
X130055171Y-115249474D01*
X130055250Y-115243863D01*
X130055544Y-115222776D01*
X130055583Y-115220000D01*
X130047864Y-115141274D01*
X130035952Y-115019780D01*
X130035951Y-115019776D01*
X130035480Y-115014970D01*
X130016648Y-114952594D01*
X129985771Y-114850326D01*
X129975935Y-114817749D01*
X129879218Y-114635849D01*
X129749011Y-114476200D01*
X129741912Y-114470327D01*
X129594002Y-114347965D01*
X129594000Y-114347964D01*
X129590275Y-114344882D01*
X129478123Y-114284242D01*
X129413309Y-114249197D01*
X129413308Y-114249197D01*
X129409055Y-114246897D01*
X129328264Y-114221888D01*
X129216875Y-114187407D01*
X129216871Y-114187406D01*
X129212254Y-114185977D01*
X129207446Y-114185472D01*
X129207443Y-114185471D01*
X129012185Y-114164949D01*
X129012183Y-114164949D01*
X129007369Y-114164443D01*
X128947354Y-114169905D01*
X128807022Y-114182675D01*
X128807017Y-114182676D01*
X128802203Y-114183114D01*
X128787148Y-114187545D01*
X128708342Y-114210739D01*
X128702538Y-114212447D01*
X128641376Y-114210739D01*
X128604582Y-114187479D01*
X126822108Y-112405005D01*
X126814366Y-112396292D01*
X126796942Y-112374190D01*
X126792361Y-112368379D01*
X126743740Y-112334775D01*
X126741217Y-112332972D01*
X126699628Y-112302253D01*
X126699626Y-112302252D01*
X126693673Y-112297855D01*
X126686857Y-112295462D01*
X126680920Y-112291358D01*
X126673861Y-112289125D01*
X126673860Y-112289125D01*
X126648542Y-112281118D01*
X126624560Y-112273533D01*
X126621675Y-112272571D01*
X126565858Y-112252970D01*
X126559816Y-112252733D01*
X126557142Y-112252212D01*
X126551759Y-112250509D01*
X126545152Y-112249989D01*
X126491948Y-112249989D01*
X126488061Y-112249913D01*
X126437886Y-112247941D01*
X126437883Y-112247941D01*
X126430495Y-112247651D01*
X126423717Y-112249448D01*
X126413892Y-112249989D01*
X120832138Y-112249989D01*
X120820502Y-112249303D01*
X120818965Y-112249121D01*
X120785201Y-112245125D01*
X120777925Y-112246454D01*
X120777922Y-112246454D01*
X120755721Y-112250509D01*
X120727081Y-112255740D01*
X120724035Y-112256247D01*
X120665549Y-112265040D01*
X120659036Y-112268168D01*
X120651938Y-112269464D01*
X120629503Y-112281118D01*
X120599531Y-112296687D01*
X120596749Y-112298077D01*
X120550103Y-112320476D01*
X120550100Y-112320478D01*
X120543432Y-112323680D01*
X120538990Y-112327786D01*
X120536730Y-112329309D01*
X120531723Y-112331910D01*
X120526683Y-112336214D01*
X120489051Y-112373846D01*
X120486248Y-112376540D01*
X120449387Y-112410613D01*
X120449385Y-112410616D01*
X120443955Y-112415635D01*
X120440433Y-112421699D01*
X120433873Y-112429024D01*
X119942393Y-112920504D01*
X119887876Y-112948281D01*
X119872389Y-112949500D01*
X119330252Y-112949500D01*
X119304532Y-112954616D01*
X119281334Y-112959230D01*
X119281332Y-112959231D01*
X119271769Y-112961133D01*
X119205448Y-113005448D01*
X119161133Y-113071769D01*
X119159231Y-113081332D01*
X119159230Y-113081334D01*
X119158219Y-113086417D01*
X119149500Y-113130252D01*
X119149500Y-115169748D01*
X119150448Y-115174512D01*
X119158948Y-115217244D01*
X119161133Y-115228231D01*
X119205448Y-115294552D01*
X119208858Y-115296831D01*
X119235015Y-115348168D01*
X119225444Y-115408600D01*
X119207238Y-115433659D01*
X117320393Y-117320504D01*
X117265876Y-117348281D01*
X117250389Y-117349500D01*
X116521166Y-117349500D01*
X116518865Y-117349718D01*
X116518855Y-117349718D01*
X116495639Y-117351913D01*
X116495638Y-117351913D01*
X116489631Y-117352481D01*
X116361816Y-117397366D01*
X116355865Y-117401761D01*
X116355864Y-117401762D01*
X116263806Y-117469758D01*
X116252850Y-117477850D01*
X116172366Y-117586816D01*
X116150002Y-117650500D01*
X116131273Y-117703834D01*
X116127481Y-117714631D01*
X116126914Y-117720630D01*
X116126675Y-117721719D01*
X116095735Y-117774505D01*
X116039677Y-117799024D01*
X116029976Y-117799500D01*
X115422150Y-117799500D01*
X115385950Y-117804942D01*
X115329359Y-117813450D01*
X115329357Y-117813451D01*
X115322038Y-117814551D01*
X115315367Y-117817754D01*
X115315365Y-117817755D01*
X115255071Y-117846708D01*
X115199921Y-117873191D01*
X115100444Y-117965146D01*
X115100228Y-117964913D01*
X115052914Y-117995991D01*
X115026792Y-117999500D01*
X114772512Y-117999500D01*
X114768668Y-118000109D01*
X114768666Y-118000109D01*
X114680569Y-118014062D01*
X114680568Y-118014062D01*
X114672874Y-118015281D01*
X114665935Y-118018817D01*
X114665934Y-118018817D01*
X114559719Y-118072936D01*
X114559717Y-118072937D01*
X114552780Y-118076472D01*
X114508748Y-118120504D01*
X114454231Y-118148281D01*
X114438744Y-118149500D01*
X114035900Y-118149500D01*
X113977709Y-118130593D01*
X113965896Y-118120504D01*
X113917342Y-118071950D01*
X113910398Y-118068412D01*
X113910397Y-118068411D01*
X113908553Y-118067471D01*
X113907090Y-118066008D01*
X113904099Y-118063835D01*
X113904443Y-118063361D01*
X113865289Y-118024206D01*
X113854500Y-117979263D01*
X113854500Y-115636627D01*
X113855186Y-115624991D01*
X113856617Y-115612896D01*
X113859364Y-115589690D01*
X113848749Y-115531567D01*
X113848240Y-115528510D01*
X113840549Y-115477353D01*
X113840549Y-115477352D01*
X113839449Y-115470038D01*
X113836323Y-115463528D01*
X113835026Y-115456427D01*
X113807796Y-115404005D01*
X113806408Y-115401227D01*
X113784017Y-115354600D01*
X113784015Y-115354596D01*
X113780809Y-115347921D01*
X113776704Y-115343481D01*
X113775181Y-115341221D01*
X113772580Y-115336212D01*
X113768276Y-115331172D01*
X113730631Y-115293527D01*
X113727937Y-115290724D01*
X113693879Y-115253880D01*
X113688854Y-115248444D01*
X113682790Y-115244922D01*
X113675471Y-115238368D01*
X113416355Y-114979252D01*
X113388578Y-114924735D01*
X113398149Y-114864303D01*
X113441414Y-114821038D01*
X113503548Y-114811752D01*
X113535209Y-114817334D01*
X113543645Y-114819204D01*
X113563021Y-114824396D01*
X113581187Y-114829264D01*
X113619902Y-114825877D01*
X113628531Y-114825500D01*
X115032444Y-114825500D01*
X115041073Y-114825877D01*
X115079785Y-114829264D01*
X115097952Y-114824396D01*
X115117327Y-114819204D01*
X115125762Y-114817334D01*
X115155495Y-114812092D01*
X115155497Y-114812091D01*
X115164023Y-114810588D01*
X115171522Y-114806258D01*
X115177007Y-114804262D01*
X115182294Y-114801796D01*
X115190662Y-114799554D01*
X115222489Y-114777268D01*
X115229773Y-114772627D01*
X115263433Y-114753194D01*
X115288409Y-114723429D01*
X115294243Y-114717061D01*
X119956808Y-110054496D01*
X120011325Y-110026719D01*
X120026812Y-110025500D01*
X127845993Y-110025500D01*
X127904184Y-110044407D01*
X127940148Y-110093907D01*
X127944677Y-110123858D01*
X127944520Y-110125262D01*
X127944924Y-110130074D01*
X127944924Y-110130079D01*
X127961354Y-110325734D01*
X127961759Y-110330553D01*
X127963092Y-110335201D01*
X127963092Y-110335202D01*
X128012044Y-110505917D01*
X128018544Y-110528586D01*
X128112712Y-110711818D01*
X128240677Y-110873270D01*
X128244357Y-110876402D01*
X128244359Y-110876404D01*
X128319798Y-110940607D01*
X128397564Y-111006791D01*
X128401787Y-111009151D01*
X128401791Y-111009154D01*
X128506199Y-111067505D01*
X128577398Y-111107297D01*
X128581996Y-111108791D01*
X128768724Y-111169463D01*
X128768726Y-111169464D01*
X128773329Y-111170959D01*
X128977894Y-111195351D01*
X128982716Y-111194980D01*
X128982719Y-111194980D01*
X129050541Y-111189761D01*
X129183300Y-111179546D01*
X129381725Y-111124145D01*
X129386038Y-111121966D01*
X129386044Y-111121964D01*
X129561289Y-111033441D01*
X129561291Y-111033440D01*
X129565610Y-111031258D01*
X129596927Y-111006791D01*
X129724135Y-110907406D01*
X129724139Y-110907402D01*
X129727951Y-110904424D01*
X129735651Y-110895504D01*
X129787313Y-110835651D01*
X129862564Y-110748472D01*
X129881430Y-110715262D01*
X129961934Y-110573550D01*
X129961935Y-110573547D01*
X129964323Y-110569344D01*
X129966736Y-110562092D01*
X130027824Y-110378454D01*
X130027824Y-110378452D01*
X130029351Y-110373863D01*
X130031495Y-110356897D01*
X130054823Y-110172228D01*
X130055171Y-110169474D01*
X130055583Y-110140000D01*
X130055313Y-110137244D01*
X130035952Y-109939780D01*
X130035951Y-109939776D01*
X130035480Y-109934970D01*
X130011909Y-109856898D01*
X130000125Y-109817869D01*
X129975935Y-109737749D01*
X129879218Y-109555849D01*
X129749011Y-109396200D01*
X129689867Y-109347272D01*
X129594002Y-109267965D01*
X129594000Y-109267964D01*
X129590275Y-109264882D01*
X129433461Y-109180093D01*
X129413309Y-109169197D01*
X129413308Y-109169197D01*
X129409055Y-109166897D01*
X129332186Y-109143102D01*
X129216875Y-109107407D01*
X129216871Y-109107406D01*
X129212254Y-109105977D01*
X129207446Y-109105472D01*
X129207443Y-109105471D01*
X129012185Y-109084949D01*
X129012183Y-109084949D01*
X129007369Y-109084443D01*
X128947354Y-109089905D01*
X128807022Y-109102675D01*
X128807017Y-109102676D01*
X128802203Y-109103114D01*
X128604572Y-109161280D01*
X128600288Y-109163519D01*
X128600287Y-109163520D01*
X128577475Y-109175446D01*
X128422002Y-109256726D01*
X128408024Y-109267965D01*
X128302690Y-109352655D01*
X128240656Y-109374500D01*
X127924834Y-109374500D01*
X127866643Y-109355593D01*
X127830679Y-109306093D01*
X127830679Y-109244907D01*
X127854830Y-109205496D01*
X128380830Y-108679496D01*
X128435347Y-108651719D01*
X128450834Y-108650500D01*
X129869748Y-108650500D01*
X129895995Y-108645279D01*
X129918666Y-108640770D01*
X129918668Y-108640769D01*
X129928231Y-108638867D01*
X129994552Y-108594552D01*
X130038867Y-108528231D01*
X130044483Y-108500000D01*
X130049552Y-108474512D01*
X130050500Y-108469748D01*
X130050500Y-106730252D01*
X130038867Y-106671769D01*
X129994552Y-106605448D01*
X129928231Y-106561133D01*
X129918668Y-106559231D01*
X129918666Y-106559230D01*
X129895995Y-106554721D01*
X129869748Y-106549500D01*
X128130252Y-106549500D01*
X128104005Y-106554721D01*
X128081334Y-106559230D01*
X128081332Y-106559231D01*
X128071769Y-106561133D01*
X128005448Y-106605448D01*
X127961133Y-106671769D01*
X127949500Y-106730252D01*
X127949500Y-108149166D01*
X127930593Y-108207357D01*
X127920504Y-108219170D01*
X127319659Y-108820015D01*
X127265142Y-108847792D01*
X127249655Y-108849011D01*
X122299500Y-108849011D01*
X122241309Y-108830104D01*
X122205345Y-108780604D01*
X122200500Y-108750011D01*
X122200500Y-106830252D01*
X122188867Y-106771769D01*
X122144552Y-106705448D01*
X122078231Y-106661133D01*
X122068668Y-106659231D01*
X122068666Y-106659230D01*
X122045995Y-106654721D01*
X122019748Y-106649500D01*
X118180252Y-106649500D01*
X118154005Y-106654721D01*
X118131334Y-106659230D01*
X118131332Y-106659231D01*
X118121769Y-106661133D01*
X118055448Y-106705448D01*
X118011133Y-106771769D01*
X117999500Y-106830252D01*
X117999500Y-108869748D01*
X118000448Y-108874512D01*
X118008892Y-108916964D01*
X118011133Y-108928231D01*
X118055448Y-108994552D01*
X118121769Y-109038867D01*
X118131332Y-109040769D01*
X118131334Y-109040770D01*
X118154005Y-109045279D01*
X118180252Y-109050500D01*
X118950166Y-109050500D01*
X119008357Y-109069407D01*
X119044321Y-109118907D01*
X119044321Y-109180093D01*
X119020170Y-109219504D01*
X115259999Y-112979675D01*
X115205482Y-113007452D01*
X115145050Y-112997881D01*
X115101785Y-112954616D01*
X115092897Y-112890358D01*
X115099552Y-112856899D01*
X115099552Y-112856897D01*
X115100500Y-112852133D01*
X115100499Y-112647868D01*
X115084515Y-112567505D01*
X115079095Y-112559393D01*
X115076160Y-112555000D01*
X115059552Y-112496112D01*
X115076160Y-112445000D01*
X115079095Y-112440607D01*
X115079096Y-112440605D01*
X115084515Y-112432495D01*
X115086417Y-112422932D01*
X115086418Y-112422930D01*
X115095910Y-112375208D01*
X115100500Y-112352133D01*
X115100499Y-112147868D01*
X115084515Y-112067505D01*
X115079095Y-112059393D01*
X115076160Y-112055000D01*
X115059552Y-111996112D01*
X115076160Y-111945000D01*
X115079095Y-111940607D01*
X115079096Y-111940605D01*
X115084515Y-111932495D01*
X115086417Y-111922932D01*
X115086418Y-111922930D01*
X115099552Y-111856897D01*
X115100500Y-111852133D01*
X115100499Y-111647868D01*
X115084515Y-111567505D01*
X115079095Y-111559393D01*
X115076160Y-111555000D01*
X115059552Y-111496112D01*
X115076160Y-111445000D01*
X115079095Y-111440607D01*
X115079096Y-111440605D01*
X115084515Y-111432495D01*
X115086417Y-111422932D01*
X115086418Y-111422930D01*
X115093165Y-111389009D01*
X115100500Y-111352133D01*
X115100499Y-111147868D01*
X115084515Y-111067505D01*
X115079095Y-111059393D01*
X115076160Y-111055000D01*
X115059552Y-110996112D01*
X115076160Y-110945000D01*
X115079095Y-110940607D01*
X115079096Y-110940605D01*
X115084515Y-110932495D01*
X115086417Y-110922932D01*
X115086418Y-110922930D01*
X115095672Y-110876404D01*
X115100500Y-110852133D01*
X115100499Y-110674501D01*
X115119406Y-110616310D01*
X115168906Y-110580346D01*
X115199499Y-110575500D01*
X115631466Y-110575500D01*
X115640095Y-110575877D01*
X115678807Y-110579264D01*
X115716350Y-110569204D01*
X115724784Y-110567334D01*
X115754517Y-110562092D01*
X115754519Y-110562091D01*
X115763045Y-110560588D01*
X115770544Y-110556258D01*
X115776029Y-110554262D01*
X115781316Y-110551796D01*
X115789684Y-110549554D01*
X115821511Y-110527268D01*
X115828795Y-110522627D01*
X115841408Y-110515345D01*
X115862455Y-110503194D01*
X115887431Y-110473429D01*
X115893265Y-110467061D01*
X117317057Y-109043269D01*
X117323425Y-109037434D01*
X117328175Y-109033448D01*
X117353194Y-109012455D01*
X117372629Y-108978792D01*
X117377268Y-108971511D01*
X117378987Y-108969056D01*
X117399554Y-108939684D01*
X117401796Y-108931316D01*
X117404262Y-108926029D01*
X117406258Y-108920544D01*
X117410588Y-108913045D01*
X117412977Y-108899500D01*
X117417334Y-108874784D01*
X117419204Y-108866349D01*
X117427022Y-108837174D01*
X117429264Y-108828807D01*
X117425877Y-108790091D01*
X117425500Y-108781463D01*
X117425500Y-106175833D01*
X117444407Y-106117642D01*
X117454497Y-106105829D01*
X117605831Y-105954496D01*
X117660347Y-105926719D01*
X117675834Y-105925500D01*
X118094403Y-105925500D01*
X118152594Y-105944407D01*
X118188281Y-105993527D01*
X118189354Y-106000304D01*
X118208059Y-106037015D01*
X118219464Y-106059397D01*
X118246950Y-106113342D01*
X118336658Y-106203050D01*
X118343595Y-106206585D01*
X118343597Y-106206586D01*
X118442756Y-106257110D01*
X118449696Y-106260646D01*
X118457390Y-106261865D01*
X118457391Y-106261865D01*
X118539635Y-106274891D01*
X118539637Y-106274891D01*
X118543481Y-106275500D01*
X118774970Y-106275500D01*
X119006518Y-106275499D01*
X119010361Y-106274890D01*
X119010366Y-106274890D01*
X119047217Y-106269053D01*
X119100304Y-106260646D01*
X119190570Y-106214653D01*
X119206403Y-106206586D01*
X119206405Y-106206585D01*
X119213342Y-106203050D01*
X119303050Y-106113342D01*
X119322876Y-106074433D01*
X119357110Y-106007244D01*
X119357110Y-106007243D01*
X119360646Y-106000304D01*
X119363152Y-105984486D01*
X119374891Y-105910365D01*
X119374891Y-105910363D01*
X119375500Y-105906519D01*
X119375499Y-105293482D01*
X119374855Y-105289412D01*
X119365471Y-105230164D01*
X119360646Y-105199696D01*
X119331848Y-105143177D01*
X119306586Y-105093597D01*
X119306585Y-105093595D01*
X119303050Y-105086658D01*
X119213342Y-104996950D01*
X119206405Y-104993415D01*
X119206403Y-104993414D01*
X119107244Y-104942890D01*
X119107243Y-104942890D01*
X119100304Y-104939354D01*
X119092610Y-104938135D01*
X119092609Y-104938135D01*
X119010365Y-104925109D01*
X119010363Y-104925109D01*
X119006519Y-104924500D01*
X118775030Y-104924500D01*
X118543482Y-104924501D01*
X118539639Y-104925110D01*
X118539634Y-104925110D01*
X118502783Y-104930947D01*
X118449696Y-104939354D01*
X118393177Y-104968152D01*
X118343597Y-104993414D01*
X118343595Y-104993415D01*
X118336658Y-104996950D01*
X118246950Y-105086658D01*
X118243415Y-105093595D01*
X118243414Y-105093597D01*
X118216673Y-105146079D01*
X118189354Y-105199696D01*
X118188281Y-105206473D01*
X118152596Y-105255591D01*
X118094403Y-105274500D01*
X117518522Y-105274500D01*
X117509893Y-105274123D01*
X117479822Y-105271492D01*
X117471193Y-105270737D01*
X117433657Y-105280795D01*
X117425231Y-105282663D01*
X117416038Y-105284284D01*
X117386955Y-105289412D01*
X117379450Y-105293745D01*
X117373973Y-105295738D01*
X117368682Y-105298205D01*
X117360316Y-105300447D01*
X117328484Y-105322736D01*
X117321206Y-105327372D01*
X117295044Y-105342476D01*
X117295042Y-105342477D01*
X117287545Y-105346806D01*
X117265195Y-105373442D01*
X117262569Y-105376571D01*
X117256746Y-105382927D01*
X117144983Y-105494691D01*
X117090467Y-105522467D01*
X117030035Y-105512896D01*
X116986770Y-105469631D01*
X116975980Y-105424686D01*
X116975980Y-104925354D01*
X116994887Y-104867163D01*
X117004976Y-104855350D01*
X122030996Y-99829331D01*
X122085513Y-99801554D01*
X122145945Y-99811125D01*
X122189210Y-99854390D01*
X122200000Y-99899335D01*
X122200000Y-101301000D01*
X122202462Y-101332284D01*
X122207307Y-101362877D01*
X122209540Y-101368267D01*
X122209541Y-101368272D01*
X122223457Y-101401867D01*
X122243042Y-101449150D01*
X122279006Y-101498650D01*
X122282394Y-101502528D01*
X122297255Y-101519538D01*
X122302597Y-101525653D01*
X122379007Y-101571305D01*
X122384286Y-101573020D01*
X122384290Y-101573022D01*
X122433495Y-101589009D01*
X122437198Y-101590212D01*
X122441042Y-101590821D01*
X122441047Y-101590822D01*
X122495152Y-101599391D01*
X122495157Y-101599391D01*
X122499000Y-101600000D01*
X130601000Y-101600000D01*
X130632284Y-101597538D01*
X130662877Y-101592693D01*
X130668267Y-101590460D01*
X130668272Y-101590459D01*
X130721393Y-101568455D01*
X130749150Y-101556958D01*
X130798650Y-101520994D01*
X130825653Y-101497403D01*
X130871305Y-101420993D01*
X130874899Y-101409934D01*
X130889009Y-101366505D01*
X130889009Y-101366503D01*
X130890212Y-101362802D01*
X130890822Y-101358953D01*
X130899391Y-101304848D01*
X130899391Y-101304843D01*
X130900000Y-101301000D01*
X130900000Y-98799000D01*
X130897538Y-98767716D01*
X130892693Y-98737123D01*
X130890460Y-98731733D01*
X130890459Y-98731728D01*
X130859194Y-98656249D01*
X130856958Y-98650850D01*
X130820994Y-98601350D01*
X130797403Y-98574347D01*
X130720993Y-98528695D01*
X130715714Y-98526980D01*
X130715710Y-98526978D01*
X130666505Y-98510991D01*
X130666503Y-98510991D01*
X130662802Y-98509788D01*
X130658958Y-98509179D01*
X130658953Y-98509178D01*
X130604848Y-98500609D01*
X130604843Y-98500609D01*
X130601000Y-98500000D01*
X130140251Y-98500000D01*
X130082060Y-98481093D01*
X130046096Y-98431593D01*
X130043153Y-98381687D01*
X130049552Y-98349514D01*
X130050500Y-98344748D01*
X130050500Y-96605252D01*
X130038867Y-96546769D01*
X129994552Y-96480448D01*
X129928231Y-96436133D01*
X129918668Y-96434231D01*
X129918666Y-96434230D01*
X129895995Y-96429721D01*
X129869748Y-96424500D01*
X128130252Y-96424500D01*
X128104005Y-96429721D01*
X128081334Y-96434230D01*
X128081332Y-96434231D01*
X128071769Y-96436133D01*
X128005448Y-96480448D01*
X127961133Y-96546769D01*
X127949500Y-96605252D01*
X127949500Y-98024166D01*
X127930593Y-98082357D01*
X127920504Y-98094170D01*
X127669170Y-98345504D01*
X127614653Y-98373281D01*
X127599166Y-98374500D01*
X125149500Y-98374500D01*
X125091309Y-98355593D01*
X125055345Y-98306093D01*
X125050500Y-98275500D01*
X125050500Y-96605252D01*
X125038867Y-96546769D01*
X124994552Y-96480448D01*
X124928231Y-96436133D01*
X124918668Y-96434231D01*
X124918666Y-96434230D01*
X124895995Y-96429721D01*
X124869748Y-96424500D01*
X123130252Y-96424500D01*
X123104005Y-96429721D01*
X123081334Y-96434230D01*
X123081332Y-96434231D01*
X123071769Y-96436133D01*
X123005448Y-96480448D01*
X122961133Y-96546769D01*
X122949500Y-96605252D01*
X122949500Y-97313448D01*
X122930593Y-97371639D01*
X122920504Y-97383452D01*
X115983903Y-104320053D01*
X115977536Y-104325887D01*
X115947766Y-104350867D01*
X115943437Y-104358366D01*
X115928333Y-104384527D01*
X115923692Y-104391811D01*
X115901406Y-104423638D01*
X115899164Y-104432006D01*
X115896698Y-104437293D01*
X115894702Y-104442778D01*
X115890372Y-104450277D01*
X115888869Y-104458803D01*
X115888868Y-104458805D01*
X115883626Y-104488538D01*
X115881756Y-104496972D01*
X115871696Y-104534515D01*
X115872451Y-104543144D01*
X115875083Y-104573227D01*
X115875460Y-104581856D01*
X115875460Y-108251770D01*
X115856553Y-108309961D01*
X115846464Y-108321774D01*
X115272734Y-108895504D01*
X115218217Y-108923281D01*
X115202730Y-108924500D01*
X114968981Y-108924500D01*
X114936240Y-108917987D01*
X114932495Y-108915485D01*
X114852133Y-108899500D01*
X114162642Y-108899500D01*
X113472868Y-108899501D01*
X113415909Y-108910830D01*
X113355147Y-108903638D01*
X113310218Y-108862104D01*
X113298282Y-108802094D01*
X113326592Y-108743728D01*
X113440824Y-108629496D01*
X113495341Y-108601719D01*
X113510828Y-108600500D01*
X114695591Y-108600499D01*
X114852132Y-108600499D01*
X114932495Y-108584515D01*
X115023624Y-108523624D01*
X115084515Y-108432495D01*
X115086417Y-108422932D01*
X115086418Y-108422930D01*
X115099552Y-108356897D01*
X115100500Y-108352133D01*
X115100499Y-108147868D01*
X115084515Y-108067505D01*
X115023624Y-107976376D01*
X114932495Y-107915485D01*
X114922932Y-107913583D01*
X114922930Y-107913582D01*
X114889009Y-107906835D01*
X114852133Y-107899500D01*
X114587000Y-107899500D01*
X114528809Y-107880593D01*
X114492845Y-107831093D01*
X114488000Y-107800500D01*
X114488000Y-107524500D01*
X114506907Y-107466309D01*
X114556407Y-107430345D01*
X114587000Y-107425500D01*
X114783488Y-107425500D01*
X114787332Y-107424891D01*
X114787334Y-107424891D01*
X114875431Y-107410938D01*
X114875432Y-107410938D01*
X114883126Y-107409719D01*
X114890066Y-107406183D01*
X114996281Y-107352064D01*
X114996283Y-107352063D01*
X115003220Y-107348528D01*
X115098528Y-107253220D01*
X115106428Y-107237717D01*
X115156183Y-107140066D01*
X115156183Y-107140065D01*
X115159719Y-107133126D01*
X115175500Y-107033488D01*
X115175500Y-106516512D01*
X115159719Y-106416874D01*
X115098528Y-106296780D01*
X115003220Y-106201472D01*
X114996283Y-106197937D01*
X114996281Y-106197936D01*
X114890066Y-106143817D01*
X114890065Y-106143817D01*
X114883126Y-106140281D01*
X114875432Y-106139062D01*
X114875431Y-106139062D01*
X114787334Y-106125109D01*
X114787332Y-106125109D01*
X114783488Y-106124500D01*
X114216512Y-106124500D01*
X114212668Y-106125109D01*
X114212666Y-106125109D01*
X114124569Y-106139062D01*
X114124568Y-106139062D01*
X114116874Y-106140281D01*
X114109935Y-106143817D01*
X114109934Y-106143817D01*
X114003719Y-106197936D01*
X114003717Y-106197937D01*
X113996780Y-106201472D01*
X113901472Y-106296780D01*
X113840281Y-106416874D01*
X113824500Y-106516512D01*
X113824500Y-107033488D01*
X113840281Y-107133126D01*
X113843819Y-107140070D01*
X113846226Y-107147478D01*
X113844145Y-107148154D01*
X113851859Y-107199757D01*
X113845166Y-107237717D01*
X113843296Y-107246150D01*
X113833236Y-107283693D01*
X113833991Y-107292322D01*
X113836623Y-107322405D01*
X113837000Y-107331034D01*
X113837000Y-107800501D01*
X113818093Y-107858692D01*
X113768593Y-107894656D01*
X113738000Y-107899501D01*
X113472868Y-107899501D01*
X113468101Y-107900449D01*
X113468102Y-107900449D01*
X113402066Y-107913583D01*
X113402064Y-107913584D01*
X113392505Y-107915485D01*
X113391197Y-107916359D01*
X113351317Y-107922497D01*
X113339817Y-107921491D01*
X113331187Y-107920736D01*
X113322820Y-107922978D01*
X113293645Y-107930796D01*
X113285210Y-107932666D01*
X113255477Y-107937908D01*
X113255475Y-107937909D01*
X113246949Y-107939412D01*
X113239450Y-107943742D01*
X113233965Y-107945738D01*
X113228678Y-107948204D01*
X113220310Y-107950446D01*
X113198216Y-107965917D01*
X113188483Y-107972732D01*
X113181202Y-107977371D01*
X113147539Y-107996806D01*
X113141972Y-108003441D01*
X113122563Y-108026571D01*
X113116729Y-108032939D01*
X109244504Y-111905164D01*
X109189987Y-111932941D01*
X109129555Y-111923370D01*
X109086290Y-111880105D01*
X109075500Y-111835160D01*
X109075500Y-107643981D01*
X109082013Y-107611240D01*
X109084515Y-107607495D01*
X109100500Y-107527133D01*
X109100499Y-106147868D01*
X109089294Y-106091532D01*
X109086417Y-106077066D01*
X109086416Y-106077064D01*
X109084515Y-106067505D01*
X109083641Y-106066197D01*
X109077503Y-106026317D01*
X109078509Y-106014816D01*
X109079264Y-106006187D01*
X109077022Y-105997820D01*
X109076267Y-105989191D01*
X109077825Y-105989055D01*
X109080511Y-105937793D01*
X109119016Y-105890242D01*
X109178116Y-105874406D01*
X109235238Y-105896332D01*
X109242940Y-105903266D01*
X109376689Y-106037015D01*
X109404466Y-106091532D01*
X109403783Y-106126331D01*
X109400448Y-106143099D01*
X109399500Y-106147867D01*
X109399501Y-107527132D01*
X109415485Y-107607495D01*
X109476376Y-107698624D01*
X109567505Y-107759515D01*
X109577068Y-107761417D01*
X109577070Y-107761418D01*
X109610991Y-107768165D01*
X109647867Y-107775500D01*
X109749978Y-107775500D01*
X109852132Y-107775499D01*
X109932495Y-107759515D01*
X109940606Y-107754095D01*
X109945000Y-107751160D01*
X110003888Y-107734552D01*
X110055000Y-107751160D01*
X110059393Y-107754095D01*
X110059394Y-107754096D01*
X110067505Y-107759515D01*
X110077068Y-107761417D01*
X110077070Y-107761418D01*
X110110991Y-107768165D01*
X110147867Y-107775500D01*
X110249978Y-107775500D01*
X110352132Y-107775499D01*
X110432495Y-107759515D01*
X110440606Y-107754095D01*
X110445000Y-107751160D01*
X110503888Y-107734552D01*
X110555000Y-107751160D01*
X110559393Y-107754095D01*
X110559394Y-107754096D01*
X110567505Y-107759515D01*
X110577068Y-107761417D01*
X110577070Y-107761418D01*
X110610991Y-107768165D01*
X110647867Y-107775500D01*
X110749978Y-107775500D01*
X110852132Y-107775499D01*
X110932495Y-107759515D01*
X110940606Y-107754095D01*
X110945000Y-107751160D01*
X111003888Y-107734552D01*
X111055000Y-107751160D01*
X111059393Y-107754095D01*
X111059394Y-107754096D01*
X111067505Y-107759515D01*
X111077068Y-107761417D01*
X111077070Y-107761418D01*
X111110991Y-107768165D01*
X111147867Y-107775500D01*
X111249978Y-107775500D01*
X111352132Y-107775499D01*
X111432495Y-107759515D01*
X111440606Y-107754095D01*
X111445000Y-107751160D01*
X111503888Y-107734552D01*
X111555000Y-107751160D01*
X111559393Y-107754095D01*
X111559394Y-107754096D01*
X111567505Y-107759515D01*
X111577068Y-107761417D01*
X111577070Y-107761418D01*
X111610991Y-107768165D01*
X111647867Y-107775500D01*
X111749978Y-107775500D01*
X111852132Y-107775499D01*
X111932495Y-107759515D01*
X111940606Y-107754095D01*
X111945000Y-107751160D01*
X112003888Y-107734552D01*
X112055000Y-107751160D01*
X112059393Y-107754095D01*
X112059394Y-107754096D01*
X112067505Y-107759515D01*
X112077068Y-107761417D01*
X112077070Y-107761418D01*
X112110991Y-107768165D01*
X112147867Y-107775500D01*
X112249978Y-107775500D01*
X112352132Y-107775499D01*
X112432495Y-107759515D01*
X112440606Y-107754095D01*
X112445000Y-107751160D01*
X112503888Y-107734552D01*
X112555000Y-107751160D01*
X112559393Y-107754095D01*
X112559394Y-107754096D01*
X112567505Y-107759515D01*
X112577068Y-107761417D01*
X112577070Y-107761418D01*
X112610991Y-107768165D01*
X112647867Y-107775500D01*
X112749978Y-107775500D01*
X112852132Y-107775499D01*
X112932495Y-107759515D01*
X113023624Y-107698624D01*
X113084515Y-107607495D01*
X113086417Y-107597932D01*
X113086418Y-107597930D01*
X113099552Y-107531897D01*
X113100500Y-107527133D01*
X113100499Y-106147868D01*
X113084515Y-106067505D01*
X113023624Y-105976376D01*
X112932495Y-105915485D01*
X112922932Y-105913583D01*
X112922930Y-105913582D01*
X112887420Y-105906519D01*
X112852133Y-105899500D01*
X112750022Y-105899500D01*
X112647868Y-105899501D01*
X112567505Y-105915485D01*
X112559395Y-105920904D01*
X112555000Y-105923840D01*
X112496112Y-105940448D01*
X112445000Y-105923840D01*
X112440607Y-105920905D01*
X112440606Y-105920904D01*
X112432495Y-105915485D01*
X112422932Y-105913583D01*
X112422930Y-105913582D01*
X112387420Y-105906519D01*
X112352133Y-105899500D01*
X112250022Y-105899500D01*
X112147868Y-105899501D01*
X112067505Y-105915485D01*
X112059395Y-105920904D01*
X112055000Y-105923840D01*
X111996112Y-105940448D01*
X111945000Y-105923840D01*
X111940607Y-105920905D01*
X111940606Y-105920904D01*
X111932495Y-105915485D01*
X111922932Y-105913583D01*
X111922930Y-105913582D01*
X111887420Y-105906519D01*
X111852133Y-105899500D01*
X111750022Y-105899500D01*
X111647868Y-105899501D01*
X111590909Y-105910830D01*
X111530147Y-105903638D01*
X111485218Y-105862104D01*
X111473282Y-105802094D01*
X111501592Y-105743728D01*
X115593156Y-101652164D01*
X115647673Y-101624387D01*
X115708105Y-101633958D01*
X115735980Y-101656777D01*
X115736588Y-101656190D01*
X115739950Y-101659672D01*
X115742959Y-101663468D01*
X115746646Y-101666606D01*
X115746648Y-101666608D01*
X115881224Y-101781141D01*
X115881229Y-101781144D01*
X115884912Y-101784279D01*
X115889134Y-101786639D01*
X115889139Y-101786642D01*
X115956634Y-101824363D01*
X116047627Y-101875217D01*
X116052225Y-101876711D01*
X116220302Y-101931323D01*
X116220304Y-101931324D01*
X116224907Y-101932819D01*
X116409998Y-101954890D01*
X116414820Y-101954519D01*
X116414823Y-101954519D01*
X116591023Y-101940961D01*
X116591028Y-101940960D01*
X116595851Y-101940589D01*
X116775387Y-101890462D01*
X116779700Y-101888283D01*
X116779706Y-101888281D01*
X116937447Y-101808600D01*
X116937449Y-101808598D01*
X116941768Y-101806417D01*
X117088655Y-101691656D01*
X117210454Y-101550550D01*
X117300093Y-101392757D01*
X117300137Y-101392680D01*
X117300138Y-101392677D01*
X117302526Y-101388474D01*
X117309247Y-101368272D01*
X117359837Y-101216192D01*
X117359837Y-101216190D01*
X117361364Y-101211601D01*
X117362520Y-101202456D01*
X117384379Y-101029420D01*
X117384727Y-101026668D01*
X117385099Y-101000000D01*
X117366909Y-100814487D01*
X117313033Y-100636040D01*
X117225522Y-100471456D01*
X117107710Y-100327005D01*
X117103981Y-100323920D01*
X116967812Y-100211270D01*
X116967810Y-100211269D01*
X116964085Y-100208187D01*
X116912614Y-100180357D01*
X116807413Y-100123474D01*
X116765218Y-100079165D01*
X116755500Y-100036389D01*
X116755500Y-97587256D01*
X116774407Y-97529065D01*
X116784496Y-97517252D01*
X116798528Y-97503220D01*
X116802065Y-97496280D01*
X116856183Y-97390066D01*
X116856183Y-97390065D01*
X116859719Y-97383126D01*
X116861539Y-97371639D01*
X116874891Y-97287334D01*
X116874891Y-97287332D01*
X116875500Y-97283488D01*
X116875500Y-96716512D01*
X116859719Y-96616874D01*
X116851370Y-96600488D01*
X116802064Y-96503719D01*
X116802063Y-96503717D01*
X116798528Y-96496780D01*
X116703220Y-96401472D01*
X116696283Y-96397937D01*
X116696281Y-96397936D01*
X116590066Y-96343817D01*
X116590065Y-96343817D01*
X116583126Y-96340281D01*
X116575432Y-96339062D01*
X116575431Y-96339062D01*
X116487334Y-96325109D01*
X116487332Y-96325109D01*
X116483488Y-96324500D01*
X115966512Y-96324500D01*
X115962668Y-96325109D01*
X115962666Y-96325109D01*
X115874569Y-96339062D01*
X115874568Y-96339062D01*
X115866874Y-96340281D01*
X115859935Y-96343817D01*
X115859934Y-96343817D01*
X115753719Y-96397936D01*
X115753717Y-96397937D01*
X115746780Y-96401472D01*
X115651472Y-96496780D01*
X115647937Y-96503717D01*
X115647936Y-96503719D01*
X115598630Y-96600488D01*
X115590281Y-96616874D01*
X115574500Y-96716512D01*
X115574500Y-97283488D01*
X115575109Y-97287332D01*
X115575109Y-97287334D01*
X115588462Y-97371639D01*
X115590281Y-97383126D01*
X115593817Y-97390065D01*
X115593817Y-97390066D01*
X115647936Y-97496280D01*
X115651472Y-97503220D01*
X115746780Y-97598528D01*
X115753717Y-97602063D01*
X115753719Y-97602064D01*
X115859934Y-97656183D01*
X115866874Y-97659719D01*
X115874568Y-97660938D01*
X115874569Y-97660938D01*
X115962666Y-97674891D01*
X115962668Y-97674891D01*
X115966512Y-97675500D01*
X116005500Y-97675500D01*
X116063691Y-97694407D01*
X116099655Y-97743907D01*
X116104500Y-97774500D01*
X116104500Y-100037613D01*
X116085593Y-100095804D01*
X116051366Y-100125347D01*
X115907023Y-100200807D01*
X115903247Y-100203843D01*
X115903244Y-100203845D01*
X115845217Y-100250500D01*
X115761752Y-100317608D01*
X115758644Y-100321312D01*
X115645044Y-100456695D01*
X115645041Y-100456699D01*
X115641935Y-100460401D01*
X115552135Y-100623746D01*
X115550672Y-100628359D01*
X115550670Y-100628363D01*
X115517957Y-100731489D01*
X115495772Y-100801424D01*
X115495233Y-100806228D01*
X115495066Y-100807014D01*
X115468234Y-100856434D01*
X111094504Y-105230164D01*
X111039987Y-105257941D01*
X110979555Y-105248370D01*
X110936290Y-105205105D01*
X110925500Y-105160160D01*
X110925500Y-102125834D01*
X110944407Y-102067643D01*
X110954496Y-102055830D01*
X111100185Y-101910141D01*
X111154702Y-101882364D01*
X111200782Y-101885990D01*
X111340302Y-101931323D01*
X111340304Y-101931324D01*
X111344907Y-101932819D01*
X111529998Y-101954890D01*
X111534820Y-101954519D01*
X111534823Y-101954519D01*
X111711023Y-101940961D01*
X111711028Y-101940960D01*
X111715851Y-101940589D01*
X111895387Y-101890462D01*
X111899700Y-101888283D01*
X111899706Y-101888281D01*
X112057447Y-101808600D01*
X112057449Y-101808598D01*
X112061768Y-101806417D01*
X112208655Y-101691656D01*
X112330454Y-101550550D01*
X112420093Y-101392757D01*
X112420137Y-101392680D01*
X112420138Y-101392677D01*
X112422526Y-101388474D01*
X112429247Y-101368272D01*
X112479837Y-101216192D01*
X112479837Y-101216190D01*
X112481364Y-101211601D01*
X112482520Y-101202456D01*
X112504379Y-101029420D01*
X112504727Y-101026668D01*
X112505099Y-101000000D01*
X112486909Y-100814487D01*
X112433033Y-100636040D01*
X112345522Y-100471456D01*
X112227710Y-100327005D01*
X112223981Y-100323920D01*
X112087812Y-100211270D01*
X112087810Y-100211269D01*
X112084085Y-100208187D01*
X112032614Y-100180357D01*
X111927413Y-100123474D01*
X111885218Y-100079165D01*
X111875500Y-100036389D01*
X111875500Y-97774500D01*
X111894407Y-97716309D01*
X111943907Y-97680345D01*
X111974500Y-97675500D01*
X112033488Y-97675500D01*
X112037332Y-97674891D01*
X112037334Y-97674891D01*
X112125431Y-97660938D01*
X112125432Y-97660938D01*
X112133126Y-97659719D01*
X112140066Y-97656183D01*
X112246281Y-97602064D01*
X112246283Y-97602063D01*
X112253220Y-97598528D01*
X112348528Y-97503220D01*
X112352065Y-97496280D01*
X112406183Y-97390066D01*
X112406183Y-97390065D01*
X112409719Y-97383126D01*
X112411539Y-97371639D01*
X112424891Y-97287334D01*
X112424891Y-97287332D01*
X112425500Y-97283488D01*
X112425500Y-96716512D01*
X112409719Y-96616874D01*
X112401370Y-96600488D01*
X112352064Y-96503719D01*
X112352063Y-96503717D01*
X112348528Y-96496780D01*
X112253220Y-96401472D01*
X112246283Y-96397937D01*
X112246281Y-96397936D01*
X112140066Y-96343817D01*
X112140065Y-96343817D01*
X112133126Y-96340281D01*
X112125432Y-96339062D01*
X112125431Y-96339062D01*
X112037334Y-96325109D01*
X112037332Y-96325109D01*
X112033488Y-96324500D01*
X111516512Y-96324500D01*
X111512668Y-96325109D01*
X111512666Y-96325109D01*
X111424569Y-96339062D01*
X111424568Y-96339062D01*
X111416874Y-96340281D01*
X111409935Y-96343817D01*
X111409934Y-96343817D01*
X111303719Y-96397936D01*
X111303717Y-96397937D01*
X111296780Y-96401472D01*
X111201472Y-96496780D01*
X111197937Y-96503717D01*
X111197936Y-96503719D01*
X111148630Y-96600488D01*
X111140281Y-96616874D01*
X111124500Y-96716512D01*
X111124500Y-97283488D01*
X111125109Y-97287332D01*
X111125109Y-97287334D01*
X111138462Y-97371639D01*
X111140281Y-97383126D01*
X111201472Y-97503220D01*
X111205845Y-97507593D01*
X111224500Y-97565010D01*
X111224500Y-100037613D01*
X111205593Y-100095804D01*
X111171366Y-100125347D01*
X111027023Y-100200807D01*
X111023247Y-100203843D01*
X111023244Y-100203845D01*
X110965217Y-100250500D01*
X110881752Y-100317608D01*
X110878644Y-100321312D01*
X110765044Y-100456695D01*
X110765041Y-100456699D01*
X110761935Y-100460401D01*
X110672135Y-100623746D01*
X110670672Y-100628359D01*
X110670670Y-100628363D01*
X110621013Y-100784902D01*
X110615772Y-100801424D01*
X110615232Y-100806236D01*
X110615232Y-100806237D01*
X110609602Y-100856434D01*
X110594994Y-100986665D01*
X110598120Y-101023894D01*
X110609326Y-101157335D01*
X110610592Y-101172414D01*
X110611925Y-101177062D01*
X110611925Y-101177063D01*
X110661971Y-101351595D01*
X110660407Y-101352043D01*
X110663824Y-101406352D01*
X110637938Y-101451736D01*
X110382943Y-101706731D01*
X110376576Y-101712565D01*
X110346806Y-101737545D01*
X110342477Y-101745044D01*
X110327373Y-101771205D01*
X110322732Y-101778489D01*
X110300446Y-101810316D01*
X110298204Y-101818684D01*
X110295738Y-101823971D01*
X110293742Y-101829456D01*
X110289412Y-101836955D01*
X110287909Y-101845481D01*
X110287908Y-101845483D01*
X110282666Y-101875216D01*
X110280796Y-101883651D01*
X110273698Y-101910141D01*
X110270736Y-101921193D01*
X110271491Y-101929822D01*
X110274123Y-101959905D01*
X110274500Y-101968534D01*
X110274500Y-105373442D01*
X110255593Y-105431633D01*
X110245504Y-105443446D01*
X110044642Y-105644308D01*
X109990125Y-105672085D01*
X109929693Y-105662514D01*
X109904634Y-105644308D01*
X108443269Y-104182943D01*
X108437434Y-104176575D01*
X108412455Y-104146806D01*
X108378792Y-104127371D01*
X108371511Y-104122732D01*
X108369056Y-104121013D01*
X108339684Y-104100446D01*
X108331316Y-104098204D01*
X108326029Y-104095738D01*
X108320544Y-104093742D01*
X108313045Y-104089412D01*
X108304519Y-104087909D01*
X108304517Y-104087908D01*
X108274784Y-104082666D01*
X108266349Y-104080796D01*
X108237174Y-104072978D01*
X108228807Y-104070736D01*
X108220178Y-104071491D01*
X108190095Y-104074123D01*
X108181466Y-104074500D01*
X103286552Y-104074500D01*
X103228361Y-104055593D01*
X103216548Y-104045504D01*
X101879496Y-102708452D01*
X101851719Y-102653935D01*
X101850500Y-102638448D01*
X101850500Y-102521214D01*
X101869407Y-102463023D01*
X101904554Y-102433005D01*
X101956400Y-102406588D01*
X101956404Y-102406585D01*
X101963342Y-102403050D01*
X102053050Y-102313342D01*
X102058208Y-102303220D01*
X102107107Y-102207249D01*
X102110646Y-102200304D01*
X102111719Y-102193527D01*
X102147404Y-102144409D01*
X102205597Y-102125500D01*
X102300911Y-102125500D01*
X102359102Y-102144407D01*
X102388055Y-102184260D01*
X102390281Y-102183126D01*
X102451472Y-102303220D01*
X102546780Y-102398528D01*
X102553717Y-102402063D01*
X102553719Y-102402064D01*
X102659934Y-102456183D01*
X102666874Y-102459719D01*
X102674568Y-102460938D01*
X102674569Y-102460938D01*
X102762666Y-102474891D01*
X102762668Y-102474891D01*
X102766512Y-102475500D01*
X103283488Y-102475500D01*
X103287332Y-102474891D01*
X103287334Y-102474891D01*
X103375431Y-102460938D01*
X103375432Y-102460938D01*
X103383126Y-102459719D01*
X103390066Y-102456183D01*
X103496281Y-102402064D01*
X103496283Y-102402063D01*
X103503220Y-102398528D01*
X103598528Y-102303220D01*
X103623253Y-102254696D01*
X103656183Y-102190066D01*
X103656183Y-102190065D01*
X103659719Y-102183126D01*
X103665852Y-102144407D01*
X103674891Y-102087334D01*
X103674891Y-102087332D01*
X103675500Y-102083488D01*
X103675500Y-101516512D01*
X103672671Y-101498650D01*
X103660938Y-101424569D01*
X103660938Y-101424568D01*
X103659719Y-101416874D01*
X103652073Y-101401867D01*
X103602064Y-101303719D01*
X103602063Y-101303717D01*
X103598528Y-101296780D01*
X103503220Y-101201472D01*
X103496283Y-101197937D01*
X103496281Y-101197936D01*
X103390066Y-101143817D01*
X103390065Y-101143817D01*
X103383126Y-101140281D01*
X103375432Y-101139062D01*
X103375431Y-101139062D01*
X103287334Y-101125109D01*
X103287332Y-101125109D01*
X103283488Y-101124500D01*
X102766512Y-101124500D01*
X102762668Y-101125109D01*
X102762666Y-101125109D01*
X102674569Y-101139062D01*
X102674568Y-101139062D01*
X102666874Y-101140281D01*
X102659935Y-101143817D01*
X102659934Y-101143817D01*
X102553719Y-101197936D01*
X102553717Y-101197937D01*
X102546780Y-101201472D01*
X102451472Y-101296780D01*
X102447937Y-101303717D01*
X102447936Y-101303719D01*
X102402608Y-101392680D01*
X102390281Y-101416874D01*
X102388055Y-101415740D01*
X102359108Y-101455588D01*
X102300911Y-101474500D01*
X102205597Y-101474500D01*
X102147406Y-101455593D01*
X102111719Y-101406473D01*
X102110646Y-101399696D01*
X102075313Y-101330352D01*
X102056586Y-101293597D01*
X102056585Y-101293595D01*
X102053050Y-101286658D01*
X101963342Y-101196950D01*
X101956404Y-101193415D01*
X101956400Y-101193412D01*
X101904554Y-101166995D01*
X101861290Y-101123730D01*
X101850500Y-101078786D01*
X101850500Y-100243534D01*
X101850877Y-100234905D01*
X101853509Y-100204822D01*
X101854264Y-100196193D01*
X101844204Y-100158650D01*
X101842334Y-100150216D01*
X101837092Y-100120483D01*
X101837091Y-100120481D01*
X101835588Y-100111955D01*
X101831258Y-100104456D01*
X101829262Y-100098971D01*
X101826796Y-100093684D01*
X101824554Y-100085316D01*
X101802268Y-100053489D01*
X101797627Y-100046205D01*
X101778194Y-100012545D01*
X101748429Y-99987569D01*
X101742061Y-99981735D01*
X100829496Y-99069170D01*
X100801719Y-99014653D01*
X100800500Y-98999166D01*
X100800499Y-98072376D01*
X100800499Y-98068482D01*
X100785646Y-97974696D01*
X100728050Y-97861658D01*
X100638342Y-97771950D01*
X100631405Y-97768415D01*
X100631403Y-97768414D01*
X100532244Y-97717890D01*
X100532243Y-97717890D01*
X100525304Y-97714354D01*
X100517610Y-97713135D01*
X100517609Y-97713135D01*
X100435365Y-97700109D01*
X100435363Y-97700109D01*
X100431519Y-97699500D01*
X100200030Y-97699500D01*
X99968482Y-97699501D01*
X99964639Y-97700110D01*
X99964634Y-97700110D01*
X99927783Y-97705947D01*
X99874696Y-97714354D01*
X99818177Y-97743152D01*
X99768597Y-97768414D01*
X99768595Y-97768415D01*
X99761658Y-97771950D01*
X99671950Y-97861658D01*
X99614354Y-97974696D01*
X99599500Y-98068481D01*
X99599501Y-99731518D01*
X99614354Y-99825304D01*
X99617890Y-99832243D01*
X99655085Y-99905242D01*
X99671950Y-99938342D01*
X99761658Y-100028050D01*
X99768595Y-100031585D01*
X99768597Y-100031586D01*
X99861976Y-100079165D01*
X99874696Y-100085646D01*
X99882390Y-100086865D01*
X99882391Y-100086865D01*
X99964635Y-100099891D01*
X99964637Y-100099891D01*
X99968481Y-100100500D01*
X100199970Y-100100500D01*
X100431518Y-100100499D01*
X100435361Y-100099890D01*
X100435366Y-100099890D01*
X100472217Y-100094053D01*
X100525304Y-100085646D01*
X100621976Y-100036389D01*
X100631403Y-100031586D01*
X100631405Y-100031585D01*
X100638342Y-100028050D01*
X100683029Y-99983363D01*
X100737546Y-99955586D01*
X100797978Y-99965157D01*
X100823037Y-99983363D01*
X101170504Y-100330830D01*
X101198281Y-100385347D01*
X101199500Y-100400834D01*
X101199500Y-101078786D01*
X101180593Y-101136977D01*
X101145446Y-101166995D01*
X101093600Y-101193412D01*
X101093596Y-101193415D01*
X101086658Y-101196950D01*
X100996950Y-101286658D01*
X100993415Y-101293595D01*
X100993414Y-101293597D01*
X100958114Y-101362877D01*
X100939354Y-101399696D01*
X100938135Y-101407390D01*
X100938135Y-101407391D01*
X100930501Y-101455593D01*
X100924500Y-101493481D01*
X100924501Y-102106518D01*
X100925110Y-102110361D01*
X100925110Y-102110366D01*
X100930030Y-102141429D01*
X100920458Y-102201861D01*
X100877193Y-102245125D01*
X100816761Y-102254696D01*
X100762245Y-102226919D01*
X100504496Y-101969170D01*
X100476719Y-101914653D01*
X100475500Y-101899166D01*
X100475499Y-101497376D01*
X100475499Y-101493482D01*
X100469499Y-101455593D01*
X100464585Y-101424569D01*
X100460646Y-101399696D01*
X100425313Y-101330352D01*
X100406586Y-101293597D01*
X100406585Y-101293595D01*
X100403050Y-101286658D01*
X100313342Y-101196950D01*
X100306405Y-101193415D01*
X100306403Y-101193414D01*
X100207244Y-101142890D01*
X100207243Y-101142890D01*
X100200304Y-101139354D01*
X100192610Y-101138135D01*
X100192609Y-101138135D01*
X100110365Y-101125109D01*
X100110363Y-101125109D01*
X100106519Y-101124500D01*
X99875030Y-101124500D01*
X99643482Y-101124501D01*
X99639639Y-101125110D01*
X99639634Y-101125110D01*
X99602783Y-101130947D01*
X99549696Y-101139354D01*
X99542755Y-101142891D01*
X99542754Y-101142891D01*
X99514404Y-101157335D01*
X99453972Y-101166906D01*
X99399456Y-101139129D01*
X98079496Y-99819170D01*
X98051719Y-99764653D01*
X98050500Y-99749166D01*
X98050500Y-98330252D01*
X98038867Y-98271769D01*
X97994552Y-98205448D01*
X97928231Y-98161133D01*
X97918668Y-98159231D01*
X97918666Y-98159230D01*
X97895995Y-98154721D01*
X97869748Y-98149500D01*
X96130252Y-98149500D01*
X96104005Y-98154721D01*
X96081334Y-98159230D01*
X96081332Y-98159231D01*
X96071769Y-98161133D01*
X96005448Y-98205448D01*
X95961133Y-98271769D01*
X95949500Y-98330252D01*
X95949500Y-100069748D01*
X93400000Y-100069748D01*
X93400000Y-93599000D01*
X93418907Y-93540809D01*
X93468407Y-93504845D01*
X93499000Y-93500000D01*
X132501000Y-93500000D01*
X132559191Y-93518907D01*
G37*
%TD.AperFunction*%
%TD*%
%TA.AperFunction,NonConductor*%
G36*
X110655061Y-120833568D02*
G01*
X110682839Y-120888084D01*
X110673268Y-120948517D01*
X110655062Y-120973576D01*
X110569504Y-121059134D01*
X110514987Y-121086911D01*
X110454555Y-121077340D01*
X110411290Y-121034075D01*
X110400500Y-120989130D01*
X110400500Y-120936007D01*
X110419407Y-120877816D01*
X110468907Y-120841852D01*
X110484013Y-120838226D01*
X110500304Y-120835646D01*
X110507242Y-120832111D01*
X110507245Y-120832110D01*
X110540112Y-120815363D01*
X110600544Y-120805791D01*
X110655061Y-120833568D01*
G37*
%TD.AperFunction*%
%TA.AperFunction,NonConductor*%
G36*
X113183676Y-108983387D02*
G01*
X113226941Y-109026652D01*
X113235829Y-109090911D01*
X113224500Y-109147867D01*
X113224501Y-109352132D01*
X113240485Y-109432495D01*
X113245904Y-109440605D01*
X113248840Y-109445000D01*
X113265448Y-109503888D01*
X113248840Y-109555000D01*
X113248273Y-109555849D01*
X113240485Y-109567505D01*
X113238583Y-109577068D01*
X113238583Y-109577069D01*
X113224500Y-109647867D01*
X113224501Y-109852132D01*
X113240485Y-109932495D01*
X113245904Y-109940605D01*
X113248840Y-109945000D01*
X113265448Y-110003888D01*
X113248840Y-110055000D01*
X113245905Y-110059393D01*
X113240485Y-110067505D01*
X113238583Y-110077068D01*
X113238583Y-110077069D01*
X113224500Y-110147867D01*
X113224501Y-110352132D01*
X113240485Y-110432495D01*
X113245904Y-110440605D01*
X113248840Y-110445000D01*
X113265448Y-110503888D01*
X113248840Y-110555000D01*
X113245905Y-110559393D01*
X113240485Y-110567505D01*
X113238583Y-110577068D01*
X113238582Y-110577070D01*
X113231835Y-110610991D01*
X113224500Y-110647867D01*
X113224501Y-110852132D01*
X113240485Y-110932495D01*
X113245904Y-110940605D01*
X113248840Y-110945000D01*
X113265448Y-111003888D01*
X113248840Y-111055000D01*
X113245905Y-111059393D01*
X113240485Y-111067505D01*
X113238583Y-111077068D01*
X113238582Y-111077070D01*
X113232570Y-111107297D01*
X113224500Y-111147867D01*
X113224501Y-111352132D01*
X113240485Y-111432495D01*
X113245904Y-111440605D01*
X113248840Y-111445000D01*
X113265448Y-111503888D01*
X113248840Y-111555000D01*
X113245905Y-111559393D01*
X113240485Y-111567505D01*
X113238583Y-111577068D01*
X113238582Y-111577070D01*
X113231835Y-111610991D01*
X113224500Y-111647867D01*
X113224501Y-111852132D01*
X113240485Y-111932495D01*
X113245904Y-111940605D01*
X113248840Y-111945000D01*
X113265448Y-112003888D01*
X113248840Y-112055000D01*
X113245905Y-112059393D01*
X113240485Y-112067505D01*
X113238583Y-112077068D01*
X113238583Y-112077069D01*
X113224500Y-112147867D01*
X113224501Y-112352132D01*
X113240485Y-112432495D01*
X113245904Y-112440605D01*
X113248840Y-112445000D01*
X113265448Y-112503888D01*
X113248840Y-112555000D01*
X113245905Y-112559393D01*
X113240485Y-112567505D01*
X113238583Y-112577068D01*
X113238583Y-112577069D01*
X113224500Y-112647867D01*
X113224501Y-112852132D01*
X113240485Y-112932495D01*
X113245904Y-112940605D01*
X113248840Y-112945000D01*
X113265448Y-113003888D01*
X113248840Y-113055000D01*
X113248610Y-113055345D01*
X113240485Y-113067505D01*
X113238583Y-113077068D01*
X113238582Y-113077070D01*
X113237101Y-113084515D01*
X113224500Y-113147867D01*
X113224501Y-113352132D01*
X113240485Y-113432495D01*
X113245904Y-113440605D01*
X113248840Y-113445000D01*
X113265448Y-113503888D01*
X113248840Y-113555000D01*
X113245905Y-113559393D01*
X113240485Y-113567505D01*
X113224500Y-113647867D01*
X113224500Y-113675980D01*
X113205593Y-113734171D01*
X113156093Y-113770135D01*
X113125500Y-113774980D01*
X112028040Y-113774980D01*
X112019412Y-113774603D01*
X112016090Y-113774312D01*
X111980707Y-113771217D01*
X111972344Y-113773458D01*
X111972341Y-113773458D01*
X111943170Y-113781274D01*
X111934743Y-113783143D01*
X111896469Y-113789892D01*
X111888968Y-113794223D01*
X111883474Y-113796222D01*
X111878192Y-113798685D01*
X111869830Y-113800926D01*
X111846787Y-113817061D01*
X111837992Y-113823219D01*
X111830733Y-113827844D01*
X111797059Y-113847286D01*
X111791489Y-113853924D01*
X111772083Y-113877051D01*
X111766249Y-113883418D01*
X111532949Y-114116719D01*
X111526581Y-114122555D01*
X111496806Y-114147539D01*
X111477519Y-114180946D01*
X111432050Y-114221888D01*
X111372468Y-114228545D01*
X111352133Y-114224500D01*
X111250022Y-114224500D01*
X111147868Y-114224501D01*
X111067505Y-114240485D01*
X111059395Y-114245904D01*
X111055000Y-114248840D01*
X110996112Y-114265448D01*
X110945000Y-114248840D01*
X110940607Y-114245905D01*
X110940606Y-114245904D01*
X110932495Y-114240485D01*
X110922932Y-114238583D01*
X110922930Y-114238582D01*
X110889009Y-114231835D01*
X110852133Y-114224500D01*
X110750022Y-114224500D01*
X110647868Y-114224501D01*
X110567505Y-114240485D01*
X110559395Y-114245904D01*
X110555000Y-114248840D01*
X110496112Y-114265448D01*
X110445000Y-114248840D01*
X110440607Y-114245905D01*
X110440606Y-114245904D01*
X110432495Y-114240485D01*
X110422932Y-114238583D01*
X110422930Y-114238582D01*
X110389009Y-114231835D01*
X110352133Y-114224500D01*
X110250022Y-114224500D01*
X110147868Y-114224501D01*
X110067505Y-114240485D01*
X110059395Y-114245904D01*
X110055000Y-114248840D01*
X109996112Y-114265448D01*
X109945000Y-114248840D01*
X109940607Y-114245905D01*
X109940606Y-114245904D01*
X109932495Y-114240485D01*
X109922932Y-114238583D01*
X109922930Y-114238582D01*
X109889009Y-114231835D01*
X109852133Y-114224500D01*
X109750022Y-114224500D01*
X109647868Y-114224501D01*
X109567505Y-114240485D01*
X109559395Y-114245904D01*
X109555000Y-114248840D01*
X109496112Y-114265448D01*
X109445000Y-114248840D01*
X109440607Y-114245905D01*
X109440606Y-114245904D01*
X109432495Y-114240485D01*
X109422932Y-114238583D01*
X109422930Y-114238582D01*
X109389009Y-114231835D01*
X109352133Y-114224500D01*
X109250022Y-114224500D01*
X109147868Y-114224501D01*
X109067505Y-114240485D01*
X109059395Y-114245904D01*
X109055000Y-114248840D01*
X108996112Y-114265448D01*
X108945000Y-114248840D01*
X108940607Y-114245905D01*
X108940606Y-114245904D01*
X108932495Y-114240485D01*
X108922932Y-114238583D01*
X108922930Y-114238582D01*
X108889009Y-114231835D01*
X108852133Y-114224500D01*
X108750022Y-114224500D01*
X108647868Y-114224501D01*
X108567505Y-114240485D01*
X108559395Y-114245904D01*
X108555000Y-114248840D01*
X108496112Y-114265448D01*
X108445000Y-114248840D01*
X108440607Y-114245905D01*
X108440606Y-114245904D01*
X108432495Y-114240485D01*
X108422932Y-114238583D01*
X108422930Y-114238582D01*
X108389009Y-114231835D01*
X108352133Y-114224500D01*
X108250022Y-114224500D01*
X108147868Y-114224501D01*
X108067505Y-114240485D01*
X108059395Y-114245904D01*
X108055000Y-114248840D01*
X107996112Y-114265448D01*
X107945000Y-114248840D01*
X107932497Y-114240486D01*
X107934167Y-114237987D01*
X107899574Y-114208437D01*
X107885296Y-114148941D01*
X107908715Y-114092415D01*
X107950130Y-114063687D01*
X107954510Y-114062093D01*
X107963045Y-114060588D01*
X107970551Y-114056255D01*
X107976039Y-114054257D01*
X107981315Y-114051797D01*
X107989684Y-114049554D01*
X108021511Y-114027268D01*
X108028795Y-114022627D01*
X108062455Y-114003194D01*
X108087431Y-113973429D01*
X108093265Y-113967061D01*
X108176993Y-113883333D01*
X108197497Y-113867600D01*
X108214951Y-113857523D01*
X108222449Y-113853194D01*
X108247425Y-113823429D01*
X108253259Y-113817061D01*
X113068727Y-109001593D01*
X113123244Y-108973816D01*
X113183676Y-108983387D01*
G37*
%TD.AperFunction*%
M02*
