M48
; DRILL file {KiCad (6.0.2)} date Sun Feb  5 14:58:16 2023
; FORMAT={-:-/ absolute / inch / decimal}
; #@! TF.CreationDate,2023-02-05T14:58:16+00:00
; #@! TF.GenerationSoftware,Kicad,Pcbnew,(6.0.2)
; #@! TF.FileFunction,MixedPlating,1,2
FMAT,2
INCH
; #@! TA.AperFunction,Plated,PTH,ComponentDrill
T1C0.0236
; #@! TA.AperFunction,Plated,PTH,ComponentDrill
T2C0.0315
; #@! TA.AperFunction,Plated,PTH,ComponentDrill
T3C0.0394
; #@! TA.AperFunction,Plated,PTH,ComponentDrill
T4C0.0591
; #@! TA.AperFunction,NonPlated,NPTH,ComponentDrill
T5C0.0256
%
G90
G05
T2
X4.3917Y-3.9764
X4.5839Y-3.9764
X4.8583Y-4.7087
X4.937Y-4.7087
X5.0157Y-4.7087
T3
X3.8189Y-3.9055
X3.8189Y-4.0055
X3.8189Y-4.1594
X3.8189Y-4.2594
X3.8189Y-4.3594
X3.8189Y-4.4594
X3.8189Y-4.5594
X3.8189Y-4.6594
X4.8819Y-3.8376
X4.8819Y-3.9376
X4.8819Y-4.0376
X5.0787Y-3.8376
X5.0787Y-3.9376
X5.0787Y-4.0376
X5.0787Y-4.2362
X5.0787Y-4.3362
X5.0787Y-4.4362
X5.0787Y-4.5362
T4
X4.7756Y-4.7087
X5.0984Y-4.7087
T5
X4.0334Y-4.9719
X4.2609Y-4.9719
X4.6224Y-4.9719
X4.85Y-4.9719
T1
G00X3.9771Y-4.9305
M15
G01X3.9771Y-4.9738
M16
G05
G00X3.9771Y-5.101
M15
G01X3.9771Y-5.1325
M16
G05
G00X4.3172Y-4.9305
M15
G01X4.3172Y-4.9738
M16
G05
G00X4.3172Y-5.101
M15
G01X4.3172Y-5.1325
M16
G05
G00X4.5661Y-4.9305
M15
G01X4.5661Y-4.9738
M16
G05
G00X4.5661Y-5.101
M15
G01X4.5661Y-5.1325
M16
G05
G00X4.9063Y-4.9305
M15
G01X4.9063Y-4.9738
M16
G05
G00X4.9063Y-5.101
M15
G01X4.9063Y-5.1325
M16
G05
T0
M30
