%TF.GenerationSoftware,KiCad,Pcbnew,(6.0.2)*%
%TF.CreationDate,2023-02-05T14:58:07+00:00*%
%TF.ProjectId,STM32Board,53544d33-3242-46f6-9172-642e6b696361,rev?*%
%TF.SameCoordinates,Original*%
%TF.FileFunction,Copper,L2,Bot*%
%TF.FilePolarity,Positive*%
%FSLAX46Y46*%
G04 Gerber Fmt 4.6, Leading zero omitted, Abs format (unit mm)*
G04 Created by KiCad (PCBNEW (6.0.2)) date 2023-02-05 14:58:07*
%MOMM*%
%LPD*%
G01*
G04 APERTURE LIST*
%TA.AperFunction,ComponentPad*%
%ADD10O,1.000000X2.000000*%
%TD*%
%TA.AperFunction,ComponentPad*%
%ADD11O,1.050000X2.100000*%
%TD*%
%TA.AperFunction,ComponentPad*%
%ADD12C,1.500000*%
%TD*%
%TA.AperFunction,ComponentPad*%
%ADD13R,1.700000X1.700000*%
%TD*%
%TA.AperFunction,ComponentPad*%
%ADD14O,1.700000X1.700000*%
%TD*%
%TA.AperFunction,ComponentPad*%
%ADD15R,1.500000X2.500000*%
%TD*%
%TA.AperFunction,ComponentPad*%
%ADD16O,1.500000X2.500000*%
%TD*%
%TA.AperFunction,ComponentPad*%
%ADD17O,2.200000X3.500000*%
%TD*%
%TA.AperFunction,Conductor*%
%ADD18C,0.500000*%
%TD*%
%TA.AperFunction,Conductor*%
%ADD19C,1.000000*%
%TD*%
%TA.AperFunction,Conductor*%
%ADD20C,0.250000*%
%TD*%
G04 APERTURE END LIST*
D10*
%TO.P,J9,S2,SHELL_GND*%
%TO.N,GND*%
X115980000Y-129965000D03*
%TO.P,J9,S3,SHELL_GND*%
X124620000Y-129965000D03*
D11*
%TO.P,J9,S1,SHELL_GND*%
X115980000Y-125785000D03*
%TO.P,J9,S4,SHELL_GND*%
X124620000Y-125785000D03*
%TD*%
D10*
%TO.P,J8,S2,SHELL_GND*%
%TO.N,GND*%
X101017500Y-129965000D03*
%TO.P,J8,S3,SHELL_GND*%
X109657500Y-129965000D03*
D11*
%TO.P,J8,S1,SHELL_GND*%
X101017500Y-125785000D03*
%TO.P,J8,S4,SHELL_GND*%
X109657500Y-125785000D03*
%TD*%
D12*
%TO.P,Y1,1,1*%
%TO.N,/PD1*%
X111550000Y-101000000D03*
%TO.P,Y1,2,2*%
%TO.N,/PD0*%
X116430000Y-101000000D03*
%TD*%
D13*
%TO.P,J1,1,Pin_1*%
%TO.N,/PWM2*%
X129000000Y-97475000D03*
D14*
%TO.P,J1,2,Pin_2*%
%TO.N,+5V*%
X129000000Y-100015000D03*
%TO.P,J1,3,Pin_3*%
%TO.N,GND*%
X129000000Y-102555000D03*
%TD*%
D13*
%TO.P,J4,1,Pin_1*%
%TO.N,Net-(J4-Pad1)*%
X129000000Y-107600000D03*
D14*
%TO.P,J4,2,Pin_2*%
%TO.N,Net-(J4-Pad2)*%
X129000000Y-110140000D03*
%TO.P,J4,3,Pin_3*%
%TO.N,GND*%
X129000000Y-112680000D03*
%TO.P,J4,4,Pin_4*%
%TO.N,+3V3*%
X129000000Y-115220000D03*
%TD*%
D13*
%TO.P,J2,1,Pin_1*%
%TO.N,/PWM1*%
X124000000Y-97475000D03*
D14*
%TO.P,J2,2,Pin_2*%
%TO.N,+5V*%
X124000000Y-100015000D03*
%TO.P,J2,3,Pin_3*%
%TO.N,GND*%
X124000000Y-102555000D03*
%TD*%
D13*
%TO.P,J7,1,Pin_1*%
%TO.N,+3V3*%
X97000000Y-99200000D03*
D14*
%TO.P,J7,2,Pin_2*%
%TO.N,GND*%
X97000000Y-101740000D03*
%TD*%
D15*
%TO.P,SW2,1,A*%
%TO.N,/VBUS*%
X123400000Y-119600000D03*
D16*
%TO.P,SW2,2,B*%
%TO.N,+5V*%
X125400000Y-119600000D03*
%TO.P,SW2,3,C*%
%TO.N,unconnected-(SW2-Pad3)*%
X127400000Y-119600000D03*
D17*
%TO.P,SW2,4,SH1*%
%TO.N,GND*%
X121300000Y-119600000D03*
%TO.P,SW2,5,SH1*%
X129500000Y-119600000D03*
%TD*%
D13*
%TO.P,J3,1,Pin_1*%
%TO.N,/IN1*%
X97000000Y-105650000D03*
D14*
%TO.P,J3,2,Pin_2*%
%TO.N,/IN2*%
X97000000Y-108190000D03*
%TO.P,J3,3,Pin_3*%
%TO.N,/IN3*%
X97000000Y-110730000D03*
%TO.P,J3,4,Pin_4*%
%TO.N,/IN4*%
X97000000Y-113270000D03*
%TO.P,J3,5,Pin_5*%
%TO.N,GND*%
X97000000Y-115810000D03*
%TO.P,J3,6,Pin_6*%
%TO.N,+5V*%
X97000000Y-118350000D03*
%TD*%
D18*
%TO.N,+3V3*%
X97000000Y-99200000D02*
X100200000Y-99200000D01*
X100200000Y-99200000D02*
X116220000Y-115220000D01*
X116220000Y-115220000D02*
X129000000Y-115220000D01*
D19*
%TO.N,+5V*%
X125500000Y-119197500D02*
X125500000Y-118300000D01*
X124100000Y-116900000D02*
X98450000Y-116900000D01*
D20*
X125500000Y-119697500D02*
X125500000Y-119197500D01*
D19*
X98450000Y-116900000D02*
X97727020Y-117622980D01*
D20*
X97727020Y-117622980D02*
X97000000Y-118350000D01*
D19*
X125500000Y-118300000D02*
X124100000Y-116900000D01*
%TD*%
%TA.AperFunction,Conductor*%
%TO.N,GND*%
G36*
X132559191Y-93518907D02*
G01*
X132595155Y-93568407D01*
X132600000Y-93599000D01*
X132600000Y-132701000D01*
X132581093Y-132759191D01*
X132531593Y-132795155D01*
X132501000Y-132800000D01*
X93499000Y-132800000D01*
X93440809Y-132781093D01*
X93404845Y-132731593D01*
X93400000Y-132701000D01*
X93400000Y-126285000D01*
X101867034Y-126285000D01*
X101886813Y-126435236D01*
X101889297Y-126441233D01*
X101942319Y-126569240D01*
X101942321Y-126569244D01*
X101944802Y-126575233D01*
X101948748Y-126580375D01*
X101948750Y-126580379D01*
X102033098Y-126690302D01*
X102037049Y-126695451D01*
X102042198Y-126699402D01*
X102152121Y-126783750D01*
X102152125Y-126783752D01*
X102157267Y-126787698D01*
X102163256Y-126790179D01*
X102163260Y-126790181D01*
X102291267Y-126843203D01*
X102297264Y-126845687D01*
X102409780Y-126860500D01*
X102485220Y-126860500D01*
X102597736Y-126845687D01*
X102603733Y-126843203D01*
X102731740Y-126790181D01*
X102731744Y-126790179D01*
X102737733Y-126787698D01*
X102742875Y-126783752D01*
X102742879Y-126783750D01*
X102852802Y-126699402D01*
X102857951Y-126695451D01*
X102861902Y-126690302D01*
X102946250Y-126580379D01*
X102946252Y-126580375D01*
X102950198Y-126575233D01*
X102952679Y-126569244D01*
X102952681Y-126569240D01*
X103005703Y-126441233D01*
X103008187Y-126435236D01*
X103027966Y-126285000D01*
X107647034Y-126285000D01*
X107666813Y-126435236D01*
X107669297Y-126441233D01*
X107722319Y-126569240D01*
X107722321Y-126569244D01*
X107724802Y-126575233D01*
X107728748Y-126580375D01*
X107728750Y-126580379D01*
X107813098Y-126690302D01*
X107817049Y-126695451D01*
X107822198Y-126699402D01*
X107932121Y-126783750D01*
X107932125Y-126783752D01*
X107937267Y-126787698D01*
X107943256Y-126790179D01*
X107943260Y-126790181D01*
X108071267Y-126843203D01*
X108077264Y-126845687D01*
X108189780Y-126860500D01*
X108265220Y-126860500D01*
X108377736Y-126845687D01*
X108383733Y-126843203D01*
X108511740Y-126790181D01*
X108511744Y-126790179D01*
X108517733Y-126787698D01*
X108522875Y-126783752D01*
X108522879Y-126783750D01*
X108632802Y-126699402D01*
X108637951Y-126695451D01*
X108641902Y-126690302D01*
X108726250Y-126580379D01*
X108726252Y-126580375D01*
X108730198Y-126575233D01*
X108732679Y-126569244D01*
X108732681Y-126569240D01*
X108785703Y-126441233D01*
X108788187Y-126435236D01*
X108807966Y-126285000D01*
X116829534Y-126285000D01*
X116849313Y-126435236D01*
X116851797Y-126441233D01*
X116904819Y-126569240D01*
X116904821Y-126569244D01*
X116907302Y-126575233D01*
X116911248Y-126580375D01*
X116911250Y-126580379D01*
X116995598Y-126690302D01*
X116999549Y-126695451D01*
X117004698Y-126699402D01*
X117114621Y-126783750D01*
X117114625Y-126783752D01*
X117119767Y-126787698D01*
X117125756Y-126790179D01*
X117125760Y-126790181D01*
X117253767Y-126843203D01*
X117259764Y-126845687D01*
X117372280Y-126860500D01*
X117447720Y-126860500D01*
X117560236Y-126845687D01*
X117566233Y-126843203D01*
X117694240Y-126790181D01*
X117694244Y-126790179D01*
X117700233Y-126787698D01*
X117705375Y-126783752D01*
X117705379Y-126783750D01*
X117815302Y-126699402D01*
X117820451Y-126695451D01*
X117824402Y-126690302D01*
X117908750Y-126580379D01*
X117908752Y-126580375D01*
X117912698Y-126575233D01*
X117915179Y-126569244D01*
X117915181Y-126569240D01*
X117968203Y-126441233D01*
X117970687Y-126435236D01*
X117990466Y-126285000D01*
X122609534Y-126285000D01*
X122629313Y-126435236D01*
X122631797Y-126441233D01*
X122684819Y-126569240D01*
X122684821Y-126569244D01*
X122687302Y-126575233D01*
X122691248Y-126580375D01*
X122691250Y-126580379D01*
X122775598Y-126690302D01*
X122779549Y-126695451D01*
X122784698Y-126699402D01*
X122894621Y-126783750D01*
X122894625Y-126783752D01*
X122899767Y-126787698D01*
X122905756Y-126790179D01*
X122905760Y-126790181D01*
X123033767Y-126843203D01*
X123039764Y-126845687D01*
X123152280Y-126860500D01*
X123227720Y-126860500D01*
X123340236Y-126845687D01*
X123346233Y-126843203D01*
X123474240Y-126790181D01*
X123474244Y-126790179D01*
X123480233Y-126787698D01*
X123485375Y-126783752D01*
X123485379Y-126783750D01*
X123595302Y-126699402D01*
X123600451Y-126695451D01*
X123604402Y-126690302D01*
X123688750Y-126580379D01*
X123688752Y-126580375D01*
X123692698Y-126575233D01*
X123695179Y-126569244D01*
X123695181Y-126569240D01*
X123748203Y-126441233D01*
X123750687Y-126435236D01*
X123770466Y-126285000D01*
X123750687Y-126134764D01*
X123748203Y-126128767D01*
X123695181Y-126000760D01*
X123695179Y-126000756D01*
X123692698Y-125994767D01*
X123688752Y-125989625D01*
X123688750Y-125989621D01*
X123604402Y-125879698D01*
X123600451Y-125874549D01*
X123595302Y-125870598D01*
X123485379Y-125786250D01*
X123485375Y-125786248D01*
X123480233Y-125782302D01*
X123474244Y-125779821D01*
X123474240Y-125779819D01*
X123346233Y-125726797D01*
X123340236Y-125724313D01*
X123227720Y-125709500D01*
X123152280Y-125709500D01*
X123039764Y-125724313D01*
X123033767Y-125726797D01*
X122905760Y-125779819D01*
X122905756Y-125779821D01*
X122899767Y-125782302D01*
X122894625Y-125786248D01*
X122894621Y-125786250D01*
X122784698Y-125870598D01*
X122779549Y-125874549D01*
X122775598Y-125879698D01*
X122691250Y-125989621D01*
X122691248Y-125989625D01*
X122687302Y-125994767D01*
X122684821Y-126000756D01*
X122684819Y-126000760D01*
X122631797Y-126128767D01*
X122629313Y-126134764D01*
X122609534Y-126285000D01*
X117990466Y-126285000D01*
X117970687Y-126134764D01*
X117968203Y-126128767D01*
X117915181Y-126000760D01*
X117915179Y-126000756D01*
X117912698Y-125994767D01*
X117908752Y-125989625D01*
X117908750Y-125989621D01*
X117824402Y-125879698D01*
X117820451Y-125874549D01*
X117815302Y-125870598D01*
X117705379Y-125786250D01*
X117705375Y-125786248D01*
X117700233Y-125782302D01*
X117694244Y-125779821D01*
X117694240Y-125779819D01*
X117566233Y-125726797D01*
X117560236Y-125724313D01*
X117447720Y-125709500D01*
X117372280Y-125709500D01*
X117259764Y-125724313D01*
X117253767Y-125726797D01*
X117125760Y-125779819D01*
X117125756Y-125779821D01*
X117119767Y-125782302D01*
X117114625Y-125786248D01*
X117114621Y-125786250D01*
X117004698Y-125870598D01*
X116999549Y-125874549D01*
X116995598Y-125879698D01*
X116911250Y-125989621D01*
X116911248Y-125989625D01*
X116907302Y-125994767D01*
X116904821Y-126000756D01*
X116904819Y-126000760D01*
X116851797Y-126128767D01*
X116849313Y-126134764D01*
X116829534Y-126285000D01*
X108807966Y-126285000D01*
X108788187Y-126134764D01*
X108785703Y-126128767D01*
X108732681Y-126000760D01*
X108732679Y-126000756D01*
X108730198Y-125994767D01*
X108726252Y-125989625D01*
X108726250Y-125989621D01*
X108641902Y-125879698D01*
X108637951Y-125874549D01*
X108632802Y-125870598D01*
X108522879Y-125786250D01*
X108522875Y-125786248D01*
X108517733Y-125782302D01*
X108511744Y-125779821D01*
X108511740Y-125779819D01*
X108383733Y-125726797D01*
X108377736Y-125724313D01*
X108265220Y-125709500D01*
X108189780Y-125709500D01*
X108077264Y-125724313D01*
X108071267Y-125726797D01*
X107943260Y-125779819D01*
X107943256Y-125779821D01*
X107937267Y-125782302D01*
X107932125Y-125786248D01*
X107932121Y-125786250D01*
X107822198Y-125870598D01*
X107817049Y-125874549D01*
X107813098Y-125879698D01*
X107728750Y-125989621D01*
X107728748Y-125989625D01*
X107724802Y-125994767D01*
X107722321Y-126000756D01*
X107722319Y-126000760D01*
X107669297Y-126128767D01*
X107666813Y-126134764D01*
X107647034Y-126285000D01*
X103027966Y-126285000D01*
X103008187Y-126134764D01*
X103005703Y-126128767D01*
X102952681Y-126000760D01*
X102952679Y-126000756D01*
X102950198Y-125994767D01*
X102946252Y-125989625D01*
X102946250Y-125989621D01*
X102861902Y-125879698D01*
X102857951Y-125874549D01*
X102852802Y-125870598D01*
X102742879Y-125786250D01*
X102742875Y-125786248D01*
X102737733Y-125782302D01*
X102731744Y-125779821D01*
X102731740Y-125779819D01*
X102603733Y-125726797D01*
X102597736Y-125724313D01*
X102485220Y-125709500D01*
X102409780Y-125709500D01*
X102297264Y-125724313D01*
X102291267Y-125726797D01*
X102163260Y-125779819D01*
X102163256Y-125779821D01*
X102157267Y-125782302D01*
X102152125Y-125786248D01*
X102152121Y-125786250D01*
X102042198Y-125870598D01*
X102037049Y-125874549D01*
X102033098Y-125879698D01*
X101948750Y-125989621D01*
X101948748Y-125989625D01*
X101944802Y-125994767D01*
X101942321Y-126000756D01*
X101942319Y-126000760D01*
X101889297Y-126128767D01*
X101886813Y-126134764D01*
X101867034Y-126285000D01*
X93400000Y-126285000D01*
X93400000Y-118335262D01*
X95944520Y-118335262D01*
X95961759Y-118540553D01*
X95963092Y-118545201D01*
X95963092Y-118545202D01*
X96014255Y-118723627D01*
X96018544Y-118738586D01*
X96112712Y-118921818D01*
X96240677Y-119083270D01*
X96244357Y-119086402D01*
X96244359Y-119086404D01*
X96357017Y-119182283D01*
X96397564Y-119216791D01*
X96401787Y-119219151D01*
X96401791Y-119219154D01*
X96441342Y-119241258D01*
X96577398Y-119317297D01*
X96581996Y-119318791D01*
X96768724Y-119379463D01*
X96768726Y-119379464D01*
X96773329Y-119380959D01*
X96977894Y-119405351D01*
X96982716Y-119404980D01*
X96982719Y-119404980D01*
X97050541Y-119399761D01*
X97183300Y-119389546D01*
X97381725Y-119334145D01*
X97386038Y-119331966D01*
X97386044Y-119331964D01*
X97561289Y-119243441D01*
X97561291Y-119243440D01*
X97565610Y-119241258D01*
X97600943Y-119213653D01*
X97724135Y-119117406D01*
X97724139Y-119117402D01*
X97727951Y-119114424D01*
X97862564Y-118958472D01*
X97881231Y-118925613D01*
X97961934Y-118783550D01*
X97961935Y-118783547D01*
X97964323Y-118779344D01*
X97968497Y-118766799D01*
X98027824Y-118588454D01*
X98027824Y-118588452D01*
X98029351Y-118583863D01*
X98030829Y-118572168D01*
X98054823Y-118382228D01*
X98055171Y-118379474D01*
X98055583Y-118350000D01*
X98052183Y-118315322D01*
X98065322Y-118255564D01*
X98090443Y-118227120D01*
X98137962Y-118190657D01*
X98189698Y-118150958D01*
X98711161Y-117629496D01*
X98765678Y-117601719D01*
X98781165Y-117600500D01*
X123768836Y-117600500D01*
X123827027Y-117619407D01*
X123838840Y-117629497D01*
X124189839Y-117980497D01*
X124217616Y-118035013D01*
X124208045Y-118095445D01*
X124164780Y-118138710D01*
X124119835Y-118149500D01*
X122630252Y-118149500D01*
X122604005Y-118154721D01*
X122581334Y-118159230D01*
X122581332Y-118159231D01*
X122571769Y-118161133D01*
X122505448Y-118205448D01*
X122461133Y-118271769D01*
X122449500Y-118330252D01*
X122449500Y-120869748D01*
X122450448Y-120874512D01*
X122457992Y-120912438D01*
X122461133Y-120928231D01*
X122505448Y-120994552D01*
X122571769Y-121038867D01*
X122581332Y-121040769D01*
X122581334Y-121040770D01*
X122604005Y-121045279D01*
X122630252Y-121050500D01*
X124169748Y-121050500D01*
X124195995Y-121045279D01*
X124218666Y-121040770D01*
X124218668Y-121040769D01*
X124228231Y-121038867D01*
X124294552Y-120994552D01*
X124338867Y-120928231D01*
X124342009Y-120912438D01*
X124349552Y-120874512D01*
X124350500Y-120869748D01*
X124350500Y-120550042D01*
X124369407Y-120491851D01*
X124418907Y-120455887D01*
X124480093Y-120455887D01*
X124529593Y-120491851D01*
X124536085Y-120502043D01*
X124615472Y-120645261D01*
X124741136Y-120791875D01*
X124745103Y-120794952D01*
X124889754Y-120907156D01*
X124889759Y-120907159D01*
X124893714Y-120910227D01*
X125066974Y-120995481D01*
X125155630Y-121018574D01*
X125248979Y-121042890D01*
X125248983Y-121042891D01*
X125253837Y-121044155D01*
X125258849Y-121044418D01*
X125258851Y-121044418D01*
X125326778Y-121047978D01*
X125446671Y-121054261D01*
X125451630Y-121053511D01*
X125451631Y-121053511D01*
X125513494Y-121044155D01*
X125637599Y-121025386D01*
X125818821Y-120958710D01*
X125823079Y-120956070D01*
X125823081Y-120956069D01*
X125978670Y-120859599D01*
X125978671Y-120859598D01*
X125982934Y-120856955D01*
X126123235Y-120724279D01*
X126126109Y-120720174D01*
X126126112Y-120720171D01*
X126231116Y-120570208D01*
X126233991Y-120566102D01*
X126266123Y-120491851D01*
X126310680Y-120388885D01*
X126312418Y-120389637D01*
X126343532Y-120346179D01*
X126401590Y-120326866D01*
X126459911Y-120345368D01*
X126496750Y-120396259D01*
X126521856Y-120476373D01*
X126615472Y-120645261D01*
X126741136Y-120791875D01*
X126745103Y-120794952D01*
X126889754Y-120907156D01*
X126889759Y-120907159D01*
X126893714Y-120910227D01*
X127066974Y-120995481D01*
X127155630Y-121018574D01*
X127248979Y-121042890D01*
X127248983Y-121042891D01*
X127253837Y-121044155D01*
X127258849Y-121044418D01*
X127258851Y-121044418D01*
X127326778Y-121047978D01*
X127446671Y-121054261D01*
X127451630Y-121053511D01*
X127451631Y-121053511D01*
X127513494Y-121044155D01*
X127637599Y-121025386D01*
X127818821Y-120958710D01*
X127823079Y-120956070D01*
X127823081Y-120956069D01*
X127978670Y-120859599D01*
X127978671Y-120859598D01*
X127982934Y-120856955D01*
X128123235Y-120724279D01*
X128126109Y-120720174D01*
X128126112Y-120720171D01*
X128231116Y-120570208D01*
X128233991Y-120566102D01*
X128266123Y-120491851D01*
X128308691Y-120393481D01*
X128310680Y-120388885D01*
X128350168Y-120199867D01*
X128350500Y-120193532D01*
X128350500Y-119051741D01*
X128350247Y-119049248D01*
X128336395Y-118912877D01*
X128336394Y-118912873D01*
X128335888Y-118907890D01*
X128300656Y-118795464D01*
X128301297Y-118734282D01*
X128339561Y-118683923D01*
X128391386Y-118648778D01*
X128395987Y-118645658D01*
X128437715Y-118600910D01*
X128472705Y-118549035D01*
X128530579Y-118424925D01*
X128530580Y-118424924D01*
X128530585Y-118424914D01*
X128539640Y-118405496D01*
X128548268Y-118390551D01*
X128648779Y-118247005D01*
X128659871Y-118233785D01*
X128783784Y-118109872D01*
X128797005Y-118098780D01*
X128940559Y-117998264D01*
X128955502Y-117989636D01*
X129114321Y-117915577D01*
X129130526Y-117909679D01*
X129194327Y-117892583D01*
X129299804Y-117864320D01*
X129316800Y-117861324D01*
X129491372Y-117846051D01*
X129508628Y-117846051D01*
X129683201Y-117861324D01*
X129700196Y-117864320D01*
X129805674Y-117892583D01*
X129869467Y-117909676D01*
X129885684Y-117915579D01*
X130044500Y-117989637D01*
X130059444Y-117998265D01*
X130202996Y-118098780D01*
X130216216Y-118109872D01*
X130340129Y-118233785D01*
X130351221Y-118247005D01*
X130451736Y-118390557D01*
X130460364Y-118405501D01*
X130534423Y-118564321D01*
X130540322Y-118580526D01*
X130556685Y-118641593D01*
X130585680Y-118749805D01*
X130588676Y-118766799D01*
X130600123Y-118897635D01*
X130600500Y-118906264D01*
X130600500Y-119901000D01*
X130602962Y-119932284D01*
X130607807Y-119962877D01*
X130610040Y-119968267D01*
X130610041Y-119968272D01*
X130629691Y-120015710D01*
X130643542Y-120049150D01*
X130679506Y-120098650D01*
X130682894Y-120102528D01*
X130697755Y-120119538D01*
X130703097Y-120125653D01*
X130779507Y-120171305D01*
X130784786Y-120173020D01*
X130784790Y-120173022D01*
X130833995Y-120189009D01*
X130837698Y-120190212D01*
X130841542Y-120190821D01*
X130841547Y-120190822D01*
X130895652Y-120199391D01*
X130895657Y-120199391D01*
X130899500Y-120200000D01*
X131501000Y-120200000D01*
X131532284Y-120197538D01*
X131562877Y-120192693D01*
X131568267Y-120190460D01*
X131568272Y-120190459D01*
X131621393Y-120168455D01*
X131649150Y-120156958D01*
X131698650Y-120120994D01*
X131725653Y-120097403D01*
X131771305Y-120020993D01*
X131790212Y-119962802D01*
X131790822Y-119958953D01*
X131799391Y-119904848D01*
X131799391Y-119904843D01*
X131800000Y-119901000D01*
X131800000Y-98799000D01*
X131797538Y-98767716D01*
X131792693Y-98737123D01*
X131790460Y-98731733D01*
X131790459Y-98731728D01*
X131759194Y-98656249D01*
X131756958Y-98650850D01*
X131720994Y-98601350D01*
X131707428Y-98585822D01*
X131702528Y-98580213D01*
X131702527Y-98580212D01*
X131697403Y-98574347D01*
X131620993Y-98528695D01*
X131615714Y-98526980D01*
X131615710Y-98526978D01*
X131566505Y-98510991D01*
X131566503Y-98510991D01*
X131562802Y-98509788D01*
X131558958Y-98509179D01*
X131558953Y-98509178D01*
X131504848Y-98500609D01*
X131504843Y-98500609D01*
X131501000Y-98500000D01*
X130140251Y-98500000D01*
X130082060Y-98481093D01*
X130046096Y-98431593D01*
X130043153Y-98381687D01*
X130049552Y-98349514D01*
X130050500Y-98344748D01*
X130050500Y-96605252D01*
X130038867Y-96546769D01*
X129994552Y-96480448D01*
X129928231Y-96436133D01*
X129918668Y-96434231D01*
X129918666Y-96434230D01*
X129895995Y-96429721D01*
X129869748Y-96424500D01*
X128130252Y-96424500D01*
X128104005Y-96429721D01*
X128081334Y-96434230D01*
X128081332Y-96434231D01*
X128071769Y-96436133D01*
X128005448Y-96480448D01*
X127961133Y-96546769D01*
X127949500Y-96605252D01*
X127949500Y-98344748D01*
X127950448Y-98349514D01*
X127956847Y-98381687D01*
X127949655Y-98442448D01*
X127908122Y-98487378D01*
X127859749Y-98500000D01*
X125140251Y-98500000D01*
X125082060Y-98481093D01*
X125046096Y-98431593D01*
X125043153Y-98381687D01*
X125049552Y-98349514D01*
X125050500Y-98344748D01*
X125050500Y-96605252D01*
X125038867Y-96546769D01*
X124994552Y-96480448D01*
X124928231Y-96436133D01*
X124918668Y-96434231D01*
X124918666Y-96434230D01*
X124895995Y-96429721D01*
X124869748Y-96424500D01*
X123130252Y-96424500D01*
X123104005Y-96429721D01*
X123081334Y-96434230D01*
X123081332Y-96434231D01*
X123071769Y-96436133D01*
X123005448Y-96480448D01*
X122961133Y-96546769D01*
X122949500Y-96605252D01*
X122949500Y-98344748D01*
X122950448Y-98349514D01*
X122956847Y-98381687D01*
X122949655Y-98442448D01*
X122908122Y-98487378D01*
X122859749Y-98500000D01*
X122499000Y-98500000D01*
X122467716Y-98502462D01*
X122437123Y-98507307D01*
X122431733Y-98509540D01*
X122431728Y-98509541D01*
X122389632Y-98526978D01*
X122350850Y-98543042D01*
X122301350Y-98579006D01*
X122274347Y-98602597D01*
X122228695Y-98679007D01*
X122209788Y-98737198D01*
X122209179Y-98741042D01*
X122209178Y-98741047D01*
X122200638Y-98794973D01*
X122200000Y-98799000D01*
X122200000Y-101301000D01*
X122202462Y-101332284D01*
X122207307Y-101362877D01*
X122209540Y-101368267D01*
X122209541Y-101368272D01*
X122230731Y-101419428D01*
X122243042Y-101449150D01*
X122279006Y-101498650D01*
X122302597Y-101525653D01*
X122379007Y-101571305D01*
X122384286Y-101573020D01*
X122384290Y-101573022D01*
X122433495Y-101589009D01*
X122437198Y-101590212D01*
X122441042Y-101590821D01*
X122441047Y-101590822D01*
X122495152Y-101599391D01*
X122495157Y-101599391D01*
X122499000Y-101600000D01*
X129801000Y-101600000D01*
X129859191Y-101618907D01*
X129895155Y-101668407D01*
X129900000Y-101699000D01*
X129900000Y-106450500D01*
X129881093Y-106508691D01*
X129831593Y-106544655D01*
X129801000Y-106549500D01*
X128130252Y-106549500D01*
X128104005Y-106554721D01*
X128081334Y-106559230D01*
X128081332Y-106559231D01*
X128071769Y-106561133D01*
X128005448Y-106605448D01*
X127961133Y-106671769D01*
X127949500Y-106730252D01*
X127949500Y-108469748D01*
X127961133Y-108528231D01*
X128005448Y-108594552D01*
X128071769Y-108638867D01*
X128081332Y-108640769D01*
X128081334Y-108640770D01*
X128099997Y-108644482D01*
X128130252Y-108650500D01*
X129801000Y-108650500D01*
X129859191Y-108669407D01*
X129895155Y-108718907D01*
X129900000Y-108749500D01*
X129900000Y-109310723D01*
X129881093Y-109368914D01*
X129831593Y-109404878D01*
X129770407Y-109404878D01*
X129737895Y-109387004D01*
X129594002Y-109267965D01*
X129594000Y-109267964D01*
X129590275Y-109264882D01*
X129409055Y-109166897D01*
X129345855Y-109147333D01*
X129216875Y-109107407D01*
X129216871Y-109107406D01*
X129212254Y-109105977D01*
X129207446Y-109105472D01*
X129207443Y-109105471D01*
X129012185Y-109084949D01*
X129012183Y-109084949D01*
X129007369Y-109084443D01*
X128947354Y-109089905D01*
X128807022Y-109102675D01*
X128807017Y-109102676D01*
X128802203Y-109103114D01*
X128604572Y-109161280D01*
X128600288Y-109163519D01*
X128600287Y-109163520D01*
X128577475Y-109175446D01*
X128422002Y-109256726D01*
X128418231Y-109259758D01*
X128265220Y-109382781D01*
X128265217Y-109382783D01*
X128261447Y-109385815D01*
X128129024Y-109543630D01*
X128126689Y-109547878D01*
X128126688Y-109547879D01*
X128100819Y-109594935D01*
X128029776Y-109724162D01*
X128028313Y-109728775D01*
X128028311Y-109728779D01*
X127989935Y-109849758D01*
X127967484Y-109920532D01*
X127944520Y-110125262D01*
X127945934Y-110142095D01*
X127961165Y-110323476D01*
X127961759Y-110330553D01*
X127963092Y-110335201D01*
X127963092Y-110335202D01*
X128012044Y-110505917D01*
X128018544Y-110528586D01*
X128112712Y-110711818D01*
X128240677Y-110873270D01*
X128244357Y-110876402D01*
X128244359Y-110876404D01*
X128341480Y-110959060D01*
X128397564Y-111006791D01*
X128401787Y-111009151D01*
X128401791Y-111009154D01*
X128441342Y-111031258D01*
X128577398Y-111107297D01*
X128581996Y-111108791D01*
X128768724Y-111169463D01*
X128768726Y-111169464D01*
X128773329Y-111170959D01*
X128977894Y-111195351D01*
X128982716Y-111194980D01*
X128982719Y-111194980D01*
X129050541Y-111189761D01*
X129183300Y-111179546D01*
X129381725Y-111124145D01*
X129386038Y-111121966D01*
X129386044Y-111121964D01*
X129561289Y-111033441D01*
X129561291Y-111033440D01*
X129565610Y-111031258D01*
X129727951Y-110904424D01*
X129731113Y-110900760D01*
X129732730Y-110899221D01*
X129787910Y-110872785D01*
X129848090Y-110883832D01*
X129890283Y-110928142D01*
X129900000Y-110970916D01*
X129900000Y-114390723D01*
X129881093Y-114448914D01*
X129831593Y-114484878D01*
X129770407Y-114484878D01*
X129737895Y-114467004D01*
X129594002Y-114347965D01*
X129594000Y-114347964D01*
X129590275Y-114344882D01*
X129409055Y-114246897D01*
X129345855Y-114227333D01*
X129216875Y-114187407D01*
X129216871Y-114187406D01*
X129212254Y-114185977D01*
X129207446Y-114185472D01*
X129207443Y-114185471D01*
X129012185Y-114164949D01*
X129012183Y-114164949D01*
X129007369Y-114164443D01*
X128947354Y-114169905D01*
X128807022Y-114182675D01*
X128807017Y-114182676D01*
X128802203Y-114183114D01*
X128604572Y-114241280D01*
X128600288Y-114243519D01*
X128600287Y-114243520D01*
X128577475Y-114255446D01*
X128422002Y-114336726D01*
X128418231Y-114339758D01*
X128265220Y-114462781D01*
X128265217Y-114462783D01*
X128261447Y-114465815D01*
X128258333Y-114469526D01*
X128258332Y-114469527D01*
X128132139Y-114619917D01*
X128132136Y-114619921D01*
X128129024Y-114623630D01*
X128126692Y-114627873D01*
X128126690Y-114627875D01*
X128077038Y-114718193D01*
X128032435Y-114760078D01*
X127990283Y-114769500D01*
X116447611Y-114769500D01*
X116389420Y-114750593D01*
X116377607Y-114740504D01*
X102623768Y-100986665D01*
X110594994Y-100986665D01*
X110610592Y-101172414D01*
X110611925Y-101177062D01*
X110611925Y-101177063D01*
X110656434Y-101332284D01*
X110661971Y-101351595D01*
X110747176Y-101517385D01*
X110862959Y-101663468D01*
X110866646Y-101666606D01*
X110866648Y-101666608D01*
X111001224Y-101781141D01*
X111001229Y-101781144D01*
X111004912Y-101784279D01*
X111009134Y-101786639D01*
X111009139Y-101786642D01*
X111039191Y-101803437D01*
X111167627Y-101875217D01*
X111172225Y-101876711D01*
X111340302Y-101931323D01*
X111340304Y-101931324D01*
X111344907Y-101932819D01*
X111529998Y-101954890D01*
X111534820Y-101954519D01*
X111534823Y-101954519D01*
X111711023Y-101940961D01*
X111711028Y-101940960D01*
X111715851Y-101940589D01*
X111895387Y-101890462D01*
X111899700Y-101888283D01*
X111899706Y-101888281D01*
X112057447Y-101808600D01*
X112057449Y-101808598D01*
X112061768Y-101806417D01*
X112208655Y-101691656D01*
X112330454Y-101550550D01*
X112422526Y-101388474D01*
X112429247Y-101368272D01*
X112479837Y-101216192D01*
X112479837Y-101216190D01*
X112481364Y-101211601D01*
X112504727Y-101026668D01*
X112505099Y-101000000D01*
X112503791Y-100986665D01*
X115474994Y-100986665D01*
X115490592Y-101172414D01*
X115491925Y-101177062D01*
X115491925Y-101177063D01*
X115536434Y-101332284D01*
X115541971Y-101351595D01*
X115627176Y-101517385D01*
X115742959Y-101663468D01*
X115746646Y-101666606D01*
X115746648Y-101666608D01*
X115881224Y-101781141D01*
X115881229Y-101781144D01*
X115884912Y-101784279D01*
X115889134Y-101786639D01*
X115889139Y-101786642D01*
X115919191Y-101803437D01*
X116047627Y-101875217D01*
X116052225Y-101876711D01*
X116220302Y-101931323D01*
X116220304Y-101931324D01*
X116224907Y-101932819D01*
X116409998Y-101954890D01*
X116414820Y-101954519D01*
X116414823Y-101954519D01*
X116591023Y-101940961D01*
X116591028Y-101940960D01*
X116595851Y-101940589D01*
X116775387Y-101890462D01*
X116779700Y-101888283D01*
X116779706Y-101888281D01*
X116937447Y-101808600D01*
X116937449Y-101808598D01*
X116941768Y-101806417D01*
X117088655Y-101691656D01*
X117210454Y-101550550D01*
X117302526Y-101388474D01*
X117309247Y-101368272D01*
X117359837Y-101216192D01*
X117359837Y-101216190D01*
X117361364Y-101211601D01*
X117384727Y-101026668D01*
X117385099Y-101000000D01*
X117366909Y-100814487D01*
X117313033Y-100636040D01*
X117225522Y-100471456D01*
X117107710Y-100327005D01*
X117103981Y-100323920D01*
X116967812Y-100211270D01*
X116967810Y-100211269D01*
X116964085Y-100208187D01*
X116800116Y-100119529D01*
X116622049Y-100064409D01*
X116617239Y-100063903D01*
X116617237Y-100063903D01*
X116441484Y-100045430D01*
X116441482Y-100045430D01*
X116436668Y-100044924D01*
X116374673Y-100050566D01*
X116255852Y-100061379D01*
X116255848Y-100061380D01*
X116251032Y-100061818D01*
X116246390Y-100063184D01*
X116246386Y-100063185D01*
X116076861Y-100113080D01*
X116076858Y-100113081D01*
X116072214Y-100114448D01*
X115907023Y-100200807D01*
X115903247Y-100203843D01*
X115903244Y-100203845D01*
X115845217Y-100250500D01*
X115761752Y-100317608D01*
X115758644Y-100321312D01*
X115645044Y-100456695D01*
X115645041Y-100456699D01*
X115641935Y-100460401D01*
X115552135Y-100623746D01*
X115550672Y-100628359D01*
X115550670Y-100628363D01*
X115501013Y-100784902D01*
X115495772Y-100801424D01*
X115474994Y-100986665D01*
X112503791Y-100986665D01*
X112486909Y-100814487D01*
X112433033Y-100636040D01*
X112345522Y-100471456D01*
X112227710Y-100327005D01*
X112223981Y-100323920D01*
X112087812Y-100211270D01*
X112087810Y-100211269D01*
X112084085Y-100208187D01*
X111920116Y-100119529D01*
X111742049Y-100064409D01*
X111737239Y-100063903D01*
X111737237Y-100063903D01*
X111561484Y-100045430D01*
X111561482Y-100045430D01*
X111556668Y-100044924D01*
X111494673Y-100050566D01*
X111375852Y-100061379D01*
X111375848Y-100061380D01*
X111371032Y-100061818D01*
X111366390Y-100063184D01*
X111366386Y-100063185D01*
X111196861Y-100113080D01*
X111196858Y-100113081D01*
X111192214Y-100114448D01*
X111027023Y-100200807D01*
X111023247Y-100203843D01*
X111023244Y-100203845D01*
X110965217Y-100250500D01*
X110881752Y-100317608D01*
X110878644Y-100321312D01*
X110765044Y-100456695D01*
X110765041Y-100456699D01*
X110761935Y-100460401D01*
X110672135Y-100623746D01*
X110670672Y-100628359D01*
X110670670Y-100628363D01*
X110621013Y-100784902D01*
X110615772Y-100801424D01*
X110594994Y-100986665D01*
X102623768Y-100986665D01*
X100541619Y-98904516D01*
X100533877Y-98895803D01*
X100516453Y-98873701D01*
X100511872Y-98867890D01*
X100463251Y-98834286D01*
X100460728Y-98832483D01*
X100419139Y-98801764D01*
X100419137Y-98801763D01*
X100413184Y-98797366D01*
X100406368Y-98794973D01*
X100400431Y-98790869D01*
X100393372Y-98788636D01*
X100393371Y-98788636D01*
X100373027Y-98782202D01*
X100344071Y-98773044D01*
X100341186Y-98772082D01*
X100285369Y-98752481D01*
X100279327Y-98752244D01*
X100276653Y-98751723D01*
X100271270Y-98750020D01*
X100264663Y-98749500D01*
X100211459Y-98749500D01*
X100207572Y-98749424D01*
X100157397Y-98747452D01*
X100157394Y-98747452D01*
X100150006Y-98747162D01*
X100143228Y-98748959D01*
X100133403Y-98749500D01*
X98149500Y-98749500D01*
X98091309Y-98730593D01*
X98055345Y-98681093D01*
X98050500Y-98650500D01*
X98050500Y-98330252D01*
X98038867Y-98271769D01*
X97994552Y-98205448D01*
X97928231Y-98161133D01*
X97918668Y-98159231D01*
X97918666Y-98159230D01*
X97895995Y-98154721D01*
X97869748Y-98149500D01*
X96130252Y-98149500D01*
X96104005Y-98154721D01*
X96081334Y-98159230D01*
X96081332Y-98159231D01*
X96071769Y-98161133D01*
X96005448Y-98205448D01*
X95961133Y-98271769D01*
X95949500Y-98330252D01*
X95949500Y-100069748D01*
X95950448Y-100074512D01*
X95959118Y-100118100D01*
X95961133Y-100128231D01*
X96005448Y-100194552D01*
X96071769Y-100238867D01*
X96081332Y-100240769D01*
X96081334Y-100240770D01*
X96104005Y-100245279D01*
X96130252Y-100250500D01*
X97869748Y-100250500D01*
X97895995Y-100245279D01*
X97918666Y-100240770D01*
X97918668Y-100240769D01*
X97928231Y-100238867D01*
X97994552Y-100194552D01*
X98038867Y-100128231D01*
X98040883Y-100118100D01*
X98049552Y-100074512D01*
X98050500Y-100069748D01*
X98050500Y-99749500D01*
X98069407Y-99691309D01*
X98118907Y-99655345D01*
X98149500Y-99650500D01*
X99972389Y-99650500D01*
X100030580Y-99669407D01*
X100042393Y-99679496D01*
X115878381Y-115515484D01*
X115886122Y-115524196D01*
X115908128Y-115552110D01*
X115914215Y-115556317D01*
X115956741Y-115585708D01*
X115959272Y-115587517D01*
X116000861Y-115618236D01*
X116000863Y-115618237D01*
X116006816Y-115622634D01*
X116013632Y-115625027D01*
X116019569Y-115629131D01*
X116026628Y-115631364D01*
X116026629Y-115631364D01*
X116046973Y-115637798D01*
X116075929Y-115646956D01*
X116078814Y-115647918D01*
X116134631Y-115667519D01*
X116140673Y-115667756D01*
X116143347Y-115668277D01*
X116148730Y-115669980D01*
X116155337Y-115670500D01*
X116208541Y-115670500D01*
X116212428Y-115670576D01*
X116269994Y-115672838D01*
X116276773Y-115671041D01*
X116286593Y-115670500D01*
X127989933Y-115670500D01*
X128048124Y-115689407D01*
X128077985Y-115724247D01*
X128112712Y-115791818D01*
X128240677Y-115953270D01*
X128244357Y-115956402D01*
X128244359Y-115956404D01*
X128355411Y-116050916D01*
X128397564Y-116086791D01*
X128401787Y-116089151D01*
X128401791Y-116089154D01*
X128441342Y-116111258D01*
X128577398Y-116187297D01*
X128605251Y-116196347D01*
X128637560Y-116206845D01*
X128687060Y-116242809D01*
X128705967Y-116301000D01*
X128687060Y-116359191D01*
X128637559Y-116395155D01*
X128606967Y-116400000D01*
X124699000Y-116400000D01*
X124667716Y-116402462D01*
X124660801Y-116403557D01*
X124657555Y-116404071D01*
X124597123Y-116394499D01*
X124575969Y-116379960D01*
X124572169Y-116375604D01*
X124519939Y-116338897D01*
X124515786Y-116335812D01*
X124514162Y-116334538D01*
X124496868Y-116320978D01*
X124470242Y-116300100D01*
X124470239Y-116300098D01*
X124465543Y-116296416D01*
X124460099Y-116293958D01*
X124457165Y-116292633D01*
X124440972Y-116283398D01*
X124433453Y-116278113D01*
X124427894Y-116275946D01*
X124427891Y-116275944D01*
X124373973Y-116254922D01*
X124369197Y-116252914D01*
X124340920Y-116240147D01*
X124311016Y-116226645D01*
X124301975Y-116224969D01*
X124284062Y-116219867D01*
X124275487Y-116216524D01*
X124212181Y-116208190D01*
X124207086Y-116207384D01*
X124174913Y-116201420D01*
X124150180Y-116196836D01*
X124150177Y-116196836D01*
X124144308Y-116195748D01*
X124083203Y-116199271D01*
X124082076Y-116199336D01*
X124076378Y-116199500D01*
X98477729Y-116199500D01*
X98470995Y-116199271D01*
X98470683Y-116199250D01*
X98413070Y-116195322D01*
X98407199Y-116196347D01*
X98407194Y-116196347D01*
X98350180Y-116206298D01*
X98345053Y-116207055D01*
X98287604Y-116214007D01*
X98287603Y-116214007D01*
X98281680Y-116214724D01*
X98273068Y-116217978D01*
X98255105Y-116222892D01*
X98246046Y-116224473D01*
X98240584Y-116226871D01*
X98240583Y-116226871D01*
X98187593Y-116250132D01*
X98182795Y-116252090D01*
X98123077Y-116274655D01*
X98118160Y-116278035D01*
X98118157Y-116278036D01*
X98115498Y-116279864D01*
X98099220Y-116288925D01*
X98090797Y-116292622D01*
X98086064Y-116296254D01*
X98040141Y-116331492D01*
X98035957Y-116334532D01*
X97983349Y-116370688D01*
X97962134Y-116394499D01*
X97941885Y-116417226D01*
X97937972Y-116421372D01*
X97201628Y-117157715D01*
X97123436Y-117257437D01*
X97121729Y-117256099D01*
X97082451Y-117290013D01*
X97033725Y-117297213D01*
X97012185Y-117294949D01*
X97012183Y-117294949D01*
X97007369Y-117294443D01*
X96947354Y-117299905D01*
X96807022Y-117312675D01*
X96807017Y-117312676D01*
X96802203Y-117313114D01*
X96604572Y-117371280D01*
X96422002Y-117466726D01*
X96418231Y-117469758D01*
X96265220Y-117592781D01*
X96265217Y-117592783D01*
X96261447Y-117595815D01*
X96129024Y-117753630D01*
X96029776Y-117934162D01*
X96028313Y-117938775D01*
X96028311Y-117938779D01*
X96009441Y-117998265D01*
X95967484Y-118130532D01*
X95966944Y-118135344D01*
X95966944Y-118135345D01*
X95946757Y-118315322D01*
X95944520Y-118335262D01*
X93400000Y-118335262D01*
X93400000Y-113255262D01*
X95944520Y-113255262D01*
X95961759Y-113460553D01*
X96018544Y-113658586D01*
X96112712Y-113841818D01*
X96240677Y-114003270D01*
X96244357Y-114006402D01*
X96244359Y-114006404D01*
X96357017Y-114102283D01*
X96397564Y-114136791D01*
X96401787Y-114139151D01*
X96401791Y-114139154D01*
X96518702Y-114204493D01*
X96577398Y-114237297D01*
X96581996Y-114238791D01*
X96768724Y-114299463D01*
X96768726Y-114299464D01*
X96773329Y-114300959D01*
X96977894Y-114325351D01*
X96982716Y-114324980D01*
X96982719Y-114324980D01*
X97050541Y-114319761D01*
X97183300Y-114309546D01*
X97381725Y-114254145D01*
X97386038Y-114251966D01*
X97386044Y-114251964D01*
X97561289Y-114163441D01*
X97561291Y-114163440D01*
X97565610Y-114161258D01*
X97600943Y-114133653D01*
X97724135Y-114037406D01*
X97724139Y-114037402D01*
X97727951Y-114034424D01*
X97862564Y-113878472D01*
X97881231Y-113845613D01*
X97961934Y-113703550D01*
X97961935Y-113703547D01*
X97964323Y-113699344D01*
X97977882Y-113658586D01*
X98027824Y-113508454D01*
X98027824Y-113508452D01*
X98029351Y-113503863D01*
X98055171Y-113299474D01*
X98055583Y-113270000D01*
X98035480Y-113064970D01*
X97975935Y-112867749D01*
X97879218Y-112685849D01*
X97749011Y-112526200D01*
X97590275Y-112394882D01*
X97409055Y-112296897D01*
X97345855Y-112277333D01*
X97216875Y-112237407D01*
X97216871Y-112237406D01*
X97212254Y-112235977D01*
X97207446Y-112235472D01*
X97207443Y-112235471D01*
X97012185Y-112214949D01*
X97012183Y-112214949D01*
X97007369Y-112214443D01*
X96947354Y-112219905D01*
X96807022Y-112232675D01*
X96807017Y-112232676D01*
X96802203Y-112233114D01*
X96604572Y-112291280D01*
X96600288Y-112293519D01*
X96600287Y-112293520D01*
X96589428Y-112299197D01*
X96422002Y-112386726D01*
X96418231Y-112389758D01*
X96265220Y-112512781D01*
X96265217Y-112512783D01*
X96261447Y-112515815D01*
X96258333Y-112519526D01*
X96258332Y-112519527D01*
X96249585Y-112529952D01*
X96129024Y-112673630D01*
X96126689Y-112677878D01*
X96126688Y-112677879D01*
X96119955Y-112690126D01*
X96029776Y-112854162D01*
X95967484Y-113050532D01*
X95966944Y-113055344D01*
X95966944Y-113055345D01*
X95965865Y-113064970D01*
X95944520Y-113255262D01*
X93400000Y-113255262D01*
X93400000Y-110715262D01*
X95944520Y-110715262D01*
X95944925Y-110720082D01*
X95960405Y-110904424D01*
X95961759Y-110920553D01*
X95963092Y-110925201D01*
X95963092Y-110925202D01*
X95985588Y-111003653D01*
X96018544Y-111118586D01*
X96112712Y-111301818D01*
X96240677Y-111463270D01*
X96244357Y-111466402D01*
X96244359Y-111466404D01*
X96357017Y-111562283D01*
X96397564Y-111596791D01*
X96401787Y-111599151D01*
X96401791Y-111599154D01*
X96441342Y-111621258D01*
X96577398Y-111697297D01*
X96581996Y-111698791D01*
X96768724Y-111759463D01*
X96768726Y-111759464D01*
X96773329Y-111760959D01*
X96977894Y-111785351D01*
X96982716Y-111784980D01*
X96982719Y-111784980D01*
X97050541Y-111779761D01*
X97183300Y-111769546D01*
X97381725Y-111714145D01*
X97386038Y-111711966D01*
X97386044Y-111711964D01*
X97561289Y-111623441D01*
X97561291Y-111623440D01*
X97565610Y-111621258D01*
X97600943Y-111593653D01*
X97724135Y-111497406D01*
X97724139Y-111497402D01*
X97727951Y-111494424D01*
X97862564Y-111338472D01*
X97881231Y-111305613D01*
X97961934Y-111163550D01*
X97961935Y-111163547D01*
X97964323Y-111159344D01*
X97975600Y-111125446D01*
X98027824Y-110968454D01*
X98027824Y-110968452D01*
X98029351Y-110963863D01*
X98040400Y-110876404D01*
X98054823Y-110762228D01*
X98055171Y-110759474D01*
X98055583Y-110730000D01*
X98054611Y-110720082D01*
X98035952Y-110529780D01*
X98035951Y-110529776D01*
X98035480Y-110524970D01*
X97975935Y-110327749D01*
X97879218Y-110145849D01*
X97749011Y-109986200D01*
X97590275Y-109854882D01*
X97409055Y-109756897D01*
X97345855Y-109737333D01*
X97216875Y-109697407D01*
X97216871Y-109697406D01*
X97212254Y-109695977D01*
X97207446Y-109695472D01*
X97207443Y-109695471D01*
X97012185Y-109674949D01*
X97012183Y-109674949D01*
X97007369Y-109674443D01*
X96947354Y-109679905D01*
X96807022Y-109692675D01*
X96807017Y-109692676D01*
X96802203Y-109693114D01*
X96604572Y-109751280D01*
X96600288Y-109753519D01*
X96600287Y-109753520D01*
X96589428Y-109759197D01*
X96422002Y-109846726D01*
X96418231Y-109849758D01*
X96265220Y-109972781D01*
X96265217Y-109972783D01*
X96261447Y-109975815D01*
X96258333Y-109979526D01*
X96258332Y-109979527D01*
X96136046Y-110125262D01*
X96129024Y-110133630D01*
X96126689Y-110137878D01*
X96126688Y-110137879D01*
X96119955Y-110150126D01*
X96029776Y-110314162D01*
X96028313Y-110318775D01*
X96028311Y-110318779D01*
X95974413Y-110488689D01*
X95967484Y-110510532D01*
X95966944Y-110515344D01*
X95966944Y-110515345D01*
X95945390Y-110707508D01*
X95944520Y-110715262D01*
X93400000Y-110715262D01*
X93400000Y-108175262D01*
X95944520Y-108175262D01*
X95961759Y-108380553D01*
X96018544Y-108578586D01*
X96112712Y-108761818D01*
X96240677Y-108923270D01*
X96244357Y-108926402D01*
X96244359Y-108926404D01*
X96357017Y-109022283D01*
X96397564Y-109056791D01*
X96401787Y-109059151D01*
X96401791Y-109059154D01*
X96518702Y-109124493D01*
X96577398Y-109157297D01*
X96581996Y-109158791D01*
X96768724Y-109219463D01*
X96768726Y-109219464D01*
X96773329Y-109220959D01*
X96977894Y-109245351D01*
X96982716Y-109244980D01*
X96982719Y-109244980D01*
X97050541Y-109239761D01*
X97183300Y-109229546D01*
X97381725Y-109174145D01*
X97386038Y-109171966D01*
X97386044Y-109171964D01*
X97561289Y-109083441D01*
X97561291Y-109083440D01*
X97565610Y-109081258D01*
X97600943Y-109053653D01*
X97724135Y-108957406D01*
X97724139Y-108957402D01*
X97727951Y-108954424D01*
X97862564Y-108798472D01*
X97881231Y-108765613D01*
X97961934Y-108623550D01*
X97961935Y-108623547D01*
X97964323Y-108619344D01*
X97972571Y-108594552D01*
X98027824Y-108428454D01*
X98027824Y-108428452D01*
X98029351Y-108423863D01*
X98055171Y-108219474D01*
X98055583Y-108190000D01*
X98035480Y-107984970D01*
X97975935Y-107787749D01*
X97879218Y-107605849D01*
X97749011Y-107446200D01*
X97590275Y-107314882D01*
X97409055Y-107216897D01*
X97345855Y-107197333D01*
X97216875Y-107157407D01*
X97216871Y-107157406D01*
X97212254Y-107155977D01*
X97207446Y-107155472D01*
X97207443Y-107155471D01*
X97012185Y-107134949D01*
X97012183Y-107134949D01*
X97007369Y-107134443D01*
X96947354Y-107139905D01*
X96807022Y-107152675D01*
X96807017Y-107152676D01*
X96802203Y-107153114D01*
X96604572Y-107211280D01*
X96600288Y-107213519D01*
X96600287Y-107213520D01*
X96589428Y-107219197D01*
X96422002Y-107306726D01*
X96418231Y-107309758D01*
X96265220Y-107432781D01*
X96265217Y-107432783D01*
X96261447Y-107435815D01*
X96258333Y-107439526D01*
X96258332Y-107439527D01*
X96249585Y-107449952D01*
X96129024Y-107593630D01*
X96126689Y-107597878D01*
X96126688Y-107597879D01*
X96119955Y-107610126D01*
X96029776Y-107774162D01*
X95967484Y-107970532D01*
X95966944Y-107975344D01*
X95966944Y-107975345D01*
X95965865Y-107984970D01*
X95944520Y-108175262D01*
X93400000Y-108175262D01*
X93400000Y-106519748D01*
X95949500Y-106519748D01*
X95961133Y-106578231D01*
X96005448Y-106644552D01*
X96071769Y-106688867D01*
X96081332Y-106690769D01*
X96081334Y-106690770D01*
X96104005Y-106695279D01*
X96130252Y-106700500D01*
X97869748Y-106700500D01*
X97895995Y-106695279D01*
X97918666Y-106690770D01*
X97918668Y-106690769D01*
X97928231Y-106688867D01*
X97994552Y-106644552D01*
X98038867Y-106578231D01*
X98050500Y-106519748D01*
X98050500Y-104780252D01*
X98038867Y-104721769D01*
X97994552Y-104655448D01*
X97928231Y-104611133D01*
X97918668Y-104609231D01*
X97918666Y-104609230D01*
X97895995Y-104604721D01*
X97869748Y-104599500D01*
X96130252Y-104599500D01*
X96104005Y-104604721D01*
X96081334Y-104609230D01*
X96081332Y-104609231D01*
X96071769Y-104611133D01*
X96005448Y-104655448D01*
X95961133Y-104721769D01*
X95949500Y-104780252D01*
X95949500Y-106519748D01*
X93400000Y-106519748D01*
X93400000Y-93599000D01*
X93418907Y-93540809D01*
X93468407Y-93504845D01*
X93499000Y-93500000D01*
X132501000Y-93500000D01*
X132559191Y-93518907D01*
G37*
%TD.AperFunction*%
%TD*%
%TA.AperFunction,NonConductor*%
G36*
X129848090Y-115963832D02*
G01*
X129890283Y-116008142D01*
X129900000Y-116050916D01*
X129900000Y-116301000D01*
X129881093Y-116359191D01*
X129831593Y-116395155D01*
X129801000Y-116400000D01*
X129402968Y-116400000D01*
X129344777Y-116381093D01*
X129308813Y-116331593D01*
X129308813Y-116270407D01*
X129344777Y-116220907D01*
X129372641Y-116207438D01*
X129372548Y-116207198D01*
X129375525Y-116206043D01*
X129376344Y-116205647D01*
X129381725Y-116204145D01*
X129386038Y-116201966D01*
X129386044Y-116201964D01*
X129561289Y-116113441D01*
X129561291Y-116113440D01*
X129565610Y-116111258D01*
X129727951Y-115984424D01*
X129731113Y-115980760D01*
X129732730Y-115979221D01*
X129787910Y-115952785D01*
X129848090Y-115963832D01*
G37*
%TD.AperFunction*%
%TA.AperFunction,Conductor*%
%TO.N,+5V*%
G36*
X130200000Y-101400000D02*
G01*
X122499000Y-101400000D01*
X122440809Y-101381093D01*
X122404845Y-101331593D01*
X122400000Y-101301000D01*
X122400000Y-98799000D01*
X122418907Y-98740809D01*
X122468407Y-98704845D01*
X122499000Y-98700000D01*
X130200000Y-98700000D01*
X130200000Y-101400000D01*
G37*
%TD.AperFunction*%
%TD*%
%TA.AperFunction,Conductor*%
%TO.N,+5V*%
G36*
X131559191Y-98718907D02*
G01*
X131595155Y-98768407D01*
X131600000Y-98799000D01*
X131600000Y-119901000D01*
X131581093Y-119959191D01*
X131531593Y-119995155D01*
X131501000Y-120000000D01*
X130899500Y-120000000D01*
X130841309Y-119981093D01*
X130805345Y-119931593D01*
X130800500Y-119901000D01*
X130800500Y-118893216D01*
X130800311Y-118891061D01*
X130800311Y-118891050D01*
X130786012Y-118727619D01*
X130785635Y-118723308D01*
X130726739Y-118503504D01*
X130630568Y-118297266D01*
X130627472Y-118292844D01*
X130502526Y-118114401D01*
X130502524Y-118114399D01*
X130500047Y-118110861D01*
X130339139Y-117949953D01*
X130152734Y-117819432D01*
X129946496Y-117723261D01*
X129857437Y-117699398D01*
X129730869Y-117665484D01*
X129730867Y-117665484D01*
X129726692Y-117664365D01*
X129500000Y-117644532D01*
X129273308Y-117664365D01*
X129269133Y-117665484D01*
X129269131Y-117665484D01*
X129142563Y-117699398D01*
X129053504Y-117723261D01*
X128847266Y-117819432D01*
X128660861Y-117949953D01*
X128499953Y-118110861D01*
X128497476Y-118114399D01*
X128497474Y-118114401D01*
X128372528Y-118292844D01*
X128369432Y-118297266D01*
X128349318Y-118340401D01*
X128291444Y-118464511D01*
X128249716Y-118509259D01*
X128189655Y-118520933D01*
X128134202Y-118495075D01*
X128126552Y-118487098D01*
X128062130Y-118411935D01*
X128062128Y-118411933D01*
X128058864Y-118408125D01*
X128032213Y-118387453D01*
X127910246Y-118292844D01*
X127910241Y-118292841D01*
X127906286Y-118289773D01*
X127733026Y-118204519D01*
X127618219Y-118174614D01*
X127551021Y-118157110D01*
X127551017Y-118157109D01*
X127546163Y-118155845D01*
X127541151Y-118155582D01*
X127541149Y-118155582D01*
X127473222Y-118152022D01*
X127353329Y-118145739D01*
X127348370Y-118146489D01*
X127348369Y-118146489D01*
X127328460Y-118149500D01*
X127162401Y-118174614D01*
X126981179Y-118241290D01*
X126976921Y-118243930D01*
X126976919Y-118243931D01*
X126884569Y-118301191D01*
X126817066Y-118343045D01*
X126676765Y-118475721D01*
X126673891Y-118479826D01*
X126673888Y-118479829D01*
X126645107Y-118520933D01*
X126566009Y-118633898D01*
X126564020Y-118638494D01*
X126564019Y-118638496D01*
X126529125Y-118719131D01*
X126489320Y-118811115D01*
X126449832Y-119000133D01*
X126449500Y-119006468D01*
X126449500Y-119901000D01*
X126430593Y-119959191D01*
X126381093Y-119995155D01*
X126350500Y-120000000D01*
X124699000Y-120000000D01*
X124640809Y-119981093D01*
X124604845Y-119931593D01*
X124600000Y-119901000D01*
X124600000Y-116699000D01*
X124618907Y-116640809D01*
X124668407Y-116604845D01*
X124699000Y-116600000D01*
X130100000Y-116600000D01*
X130100000Y-98700000D01*
X131501000Y-98700000D01*
X131559191Y-98718907D01*
G37*
%TD.AperFunction*%
%TD*%
M02*
